%TF.GenerationSoftware,KiCad,Pcbnew,9.0.4*%
%TF.CreationDate,2026-01-25T08:23:28+01:00*%
%TF.ProjectId,VQFN_Training_Lab,5651464e-5f54-4726-9169-6e696e675f4c,1.0*%
%TF.SameCoordinates,PX7270e00PY7270e00*%
%TF.FileFunction,Copper,L1,Top*%
%TF.FilePolarity,Positive*%
%FSLAX46Y46*%
G04 Gerber Fmt 4.6, Leading zero omitted, Abs format (unit mm)*
G04 Created by KiCad (PCBNEW 9.0.4) date 2026-01-25 08:23:28*
%MOMM*%
%LPD*%
G01*
G04 APERTURE LIST*
G04 Aperture macros list*
%AMRoundRect*
0 Rectangle with rounded corners*
0 $1 Rounding radius*
0 $2 $3 $4 $5 $6 $7 $8 $9 X,Y pos of 4 corners*
0 Add a 4 corners polygon primitive as box body*
4,1,4,$2,$3,$4,$5,$6,$7,$8,$9,$2,$3,0*
0 Add four circle primitives for the rounded corners*
1,1,$1+$1,$2,$3*
1,1,$1+$1,$4,$5*
1,1,$1+$1,$6,$7*
1,1,$1+$1,$8,$9*
0 Add four rect primitives between the rounded corners*
20,1,$1+$1,$2,$3,$4,$5,0*
20,1,$1+$1,$4,$5,$6,$7,0*
20,1,$1+$1,$6,$7,$8,$9,0*
20,1,$1+$1,$8,$9,$2,$3,0*%
G04 Aperture macros list end*
%TA.AperFunction,SMDPad,CuDef*%
%ADD10RoundRect,0.237500X0.237500X-0.300000X0.237500X0.300000X-0.237500X0.300000X-0.237500X-0.300000X0*%
%TD*%
%TA.AperFunction,ComponentPad*%
%ADD11R,1.700000X1.700000*%
%TD*%
%TA.AperFunction,ComponentPad*%
%ADD12C,1.700000*%
%TD*%
%TA.AperFunction,SMDPad,CuDef*%
%ADD13RoundRect,0.237500X-0.300000X-0.237500X0.300000X-0.237500X0.300000X0.237500X-0.300000X0.237500X0*%
%TD*%
%TA.AperFunction,SMDPad,CuDef*%
%ADD14C,1.000000*%
%TD*%
%TA.AperFunction,SMDPad,CuDef*%
%ADD15RoundRect,0.033750X-0.426250X-0.101250X0.426250X-0.101250X0.426250X0.101250X-0.426250X0.101250X0*%
%TD*%
%TA.AperFunction,HeatsinkPad*%
%ADD16R,1.500000X2.250000*%
%TD*%
%TA.AperFunction,HeatsinkPad*%
%ADD17C,0.500000*%
%TD*%
%TA.AperFunction,SMDPad,CuDef*%
%ADD18RoundRect,0.250000X0.450000X-0.350000X0.450000X0.350000X-0.450000X0.350000X-0.450000X-0.350000X0*%
%TD*%
%TA.AperFunction,SMDPad,CuDef*%
%ADD19RoundRect,0.250000X0.350000X0.450000X-0.350000X0.450000X-0.350000X-0.450000X0.350000X-0.450000X0*%
%TD*%
%TA.AperFunction,SMDPad,CuDef*%
%ADD20R,0.600000X0.600000*%
%TD*%
%TA.AperFunction,SMDPad,CuDef*%
%ADD21R,0.600000X0.400000*%
%TD*%
%TA.AperFunction,SMDPad,CuDef*%
%ADD22RoundRect,0.237500X0.300000X0.237500X-0.300000X0.237500X-0.300000X-0.237500X0.300000X-0.237500X0*%
%TD*%
%TA.AperFunction,ComponentPad*%
%ADD23C,0.800000*%
%TD*%
%TA.AperFunction,ComponentPad*%
%ADD24C,6.400000*%
%TD*%
%TA.AperFunction,SMDPad,CuDef*%
%ADD25R,0.900000X0.240000*%
%TD*%
%TA.AperFunction,SMDPad,CuDef*%
%ADD26R,0.240000X0.900000*%
%TD*%
%TA.AperFunction,SMDPad,CuDef*%
%ADD27R,1.400000X0.900000*%
%TD*%
%TA.AperFunction,SMDPad,CuDef*%
%ADD28RoundRect,0.237500X-0.237500X0.300000X-0.237500X-0.300000X0.237500X-0.300000X0.237500X0.300000X0*%
%TD*%
%TA.AperFunction,SMDPad,CuDef*%
%ADD29RoundRect,0.250000X0.325000X0.450000X-0.325000X0.450000X-0.325000X-0.450000X0.325000X-0.450000X0*%
%TD*%
%TA.AperFunction,SMDPad,CuDef*%
%ADD30RoundRect,0.250000X-0.450000X0.350000X-0.450000X-0.350000X0.450000X-0.350000X0.450000X0.350000X0*%
%TD*%
%TA.AperFunction,ComponentPad*%
%ADD31C,2.000000*%
%TD*%
%TA.AperFunction,ComponentPad*%
%ADD32RoundRect,0.249999X-0.850001X0.850001X-0.850001X-0.850001X0.850001X-0.850001X0.850001X0.850001X0*%
%TD*%
%TA.AperFunction,ComponentPad*%
%ADD33C,2.200000*%
%TD*%
%TA.AperFunction,ComponentPad*%
%ADD34RoundRect,0.249999X0.850001X-0.850001X0.850001X0.850001X-0.850001X0.850001X-0.850001X-0.850001X0*%
%TD*%
%TA.AperFunction,ViaPad*%
%ADD35C,0.600000*%
%TD*%
%TA.AperFunction,Conductor*%
%ADD36C,0.250000*%
%TD*%
%TA.AperFunction,Conductor*%
%ADD37C,0.400000*%
%TD*%
%TA.AperFunction,Conductor*%
%ADD38C,0.200000*%
%TD*%
%TA.AperFunction,Conductor*%
%ADD39C,0.600000*%
%TD*%
G04 APERTURE END LIST*
D10*
%TO.P,C6,1*%
%TO.N,+5V*%
X24800000Y24830000D03*
%TO.P,C6,2*%
%TO.N,GND*%
X24800000Y26555000D03*
%TD*%
D11*
%TO.P,J5,1,Pin_1*%
%TO.N,+5V*%
X20300000Y20592500D03*
D12*
%TO.P,J5,2,Pin_2*%
%TO.N,/LDO_EN_SEL*%
X20300000Y18052500D03*
%TO.P,J5,3,Pin_3*%
%TO.N,/LDO_EN*%
X20300000Y15512500D03*
%TD*%
D13*
%TO.P,C4,1*%
%TO.N,+5V*%
X4975000Y26700000D03*
%TO.P,C4,2*%
%TO.N,GND*%
X6700000Y26700000D03*
%TD*%
D14*
%TO.P,TP5,1,1*%
%TO.N,Net-(IC1-1Y)*%
X24800000Y36000000D03*
%TD*%
D10*
%TO.P,C1,1*%
%TO.N,/POWER_ON*%
X12650000Y34307500D03*
%TO.P,C1,2*%
%TO.N,GND*%
X12650000Y36032500D03*
%TD*%
%TO.P,C2,1*%
%TO.N,/RESET*%
X32100000Y34137500D03*
%TO.P,C2,2*%
%TO.N,GND*%
X32100000Y35862500D03*
%TD*%
D14*
%TO.P,TP1,1,1*%
%TO.N,Net-(R1-Pad2)*%
X7900000Y35807500D03*
%TD*%
D15*
%TO.P,U1,1,OUT*%
%TO.N,+3V3*%
X21262500Y11055000D03*
%TO.P,U1,2,NC*%
%TO.N,unconnected-(U1-NC-Pad2)*%
X21262500Y10405000D03*
%TO.P,U1,3,ADJ/NC*%
%TO.N,Net-(U1-ADJ{slash}NC)*%
X21262500Y9755000D03*
%TO.P,U1,4,GND*%
%TO.N,GND*%
X21262500Y9105000D03*
%TO.P,U1,5,EN*%
%TO.N,/LDO_EN_SEL*%
X24042500Y9105000D03*
%TO.P,U1,6,NC*%
%TO.N,unconnected-(U1-NC-Pad6)*%
X24042500Y9755000D03*
%TO.P,U1,7,NC*%
%TO.N,unconnected-(U1-NC-Pad7)*%
X24042500Y10405000D03*
%TO.P,U1,8,IN*%
%TO.N,+5V*%
X24042500Y11055000D03*
D16*
%TO.P,U1,9,GND*%
%TO.N,GND*%
X22652500Y10080000D03*
D17*
%TO.P,U1,10*%
X22352500Y10680000D03*
%TO.P,U1,11*%
X22952500Y9480000D03*
%TD*%
D18*
%TO.P,R7,1*%
%TO.N,Net-(R6-Pad2)*%
X14590000Y3242500D03*
%TO.P,R7,2*%
%TO.N,Net-(U1-ADJ{slash}NC)*%
X14590000Y5242500D03*
%TD*%
D14*
%TO.P,TP7,1,1*%
%TO.N,/LDO_EN*%
X31200000Y15292500D03*
%TD*%
D19*
%TO.P,R5,1*%
%TO.N,+5V*%
X32300000Y10892500D03*
%TO.P,R5,2*%
%TO.N,Net-(D1-A)*%
X30300000Y10892500D03*
%TD*%
D20*
%TO.P,IC1,1,1A*%
%TO.N,/POWER_ON*%
X20300000Y35300000D03*
D21*
%TO.P,IC1,2,GND*%
%TO.N,GND*%
X20300000Y34550000D03*
D20*
%TO.P,IC1,3,2A*%
%TO.N,/RESET*%
X20300000Y33800000D03*
%TO.P,IC1,4,2Y*%
%TO.N,Net-(IC1-2Y)*%
X22100000Y33800000D03*
D21*
%TO.P,IC1,5,VCC*%
%TO.N,+5V*%
X22100000Y34550000D03*
D20*
%TO.P,IC1,6,1Y*%
%TO.N,Net-(IC1-1Y)*%
X22100000Y35300000D03*
%TD*%
D11*
%TO.P,J4,1,Pin_1*%
%TO.N,+3V3*%
X3200000Y13970000D03*
D12*
%TO.P,J4,2,Pin_2*%
%TO.N,GND*%
X3200000Y11430000D03*
%TD*%
D11*
%TO.P,J1,1,Pin_1*%
%TO.N,+5V*%
X41925000Y13960000D03*
D12*
%TO.P,J1,2,Pin_2*%
%TO.N,GND*%
X41925000Y11420000D03*
%TD*%
D22*
%TO.P,C3,1*%
%TO.N,+5V*%
X22050000Y38800000D03*
%TO.P,C3,2*%
%TO.N,GND*%
X20325000Y38800000D03*
%TD*%
D23*
%TO.P,H1,1,1*%
%TO.N,GND*%
X1600000Y46000000D03*
X2302944Y47697056D03*
X2302944Y44302944D03*
X4000000Y48400000D03*
D24*
X4000000Y46000000D03*
D23*
X4000000Y43600000D03*
X5697056Y47697056D03*
X5697056Y44302944D03*
X6400000Y46000000D03*
%TD*%
D14*
%TO.P,TP4,1,1*%
%TO.N,/RESET*%
X32100000Y30350000D03*
%TD*%
%TO.P,TP3,1,1*%
%TO.N,/POWER_ON*%
X12650000Y30400000D03*
%TD*%
D18*
%TO.P,R8,1*%
%TO.N,Net-(U1-ADJ{slash}NC)*%
X16590000Y3242500D03*
%TO.P,R8,2*%
%TO.N,GND*%
X16590000Y5242500D03*
%TD*%
D25*
%TO.P,IC3,1,1A*%
%TO.N,Net-(IC2-1Y)*%
X30150000Y24292500D03*
D26*
%TO.P,IC3,2,1B*%
%TO.N,Net-(IC1-2Y)*%
X30700000Y23242500D03*
%TO.P,IC3,3,1Y*%
%TO.N,/LDO_EN*%
X31200000Y23242500D03*
%TO.P,IC3,4,2A*%
%TO.N,GND*%
X31700000Y23242500D03*
%TO.P,IC3,5,2B*%
X32200000Y23242500D03*
%TO.P,IC3,6,2Y*%
%TO.N,unconnected-(IC3-2Y-Pad6)*%
X32700000Y23242500D03*
D25*
%TO.P,IC3,7,GND_1*%
%TO.N,GND*%
X33250000Y24292500D03*
%TO.P,IC3,8,3Y*%
%TO.N,unconnected-(IC3-3Y-Pad8)*%
X33250000Y24792500D03*
D26*
%TO.P,IC3,9,3A*%
%TO.N,GND*%
X32700000Y25842500D03*
%TO.P,IC3,10,3B*%
X32200000Y25842500D03*
%TO.P,IC3,11,4Y*%
%TO.N,unconnected-(IC3-4Y-Pad11)*%
X31700000Y25842500D03*
%TO.P,IC3,12,4A*%
%TO.N,GND*%
X31200000Y25842500D03*
%TO.P,IC3,13,4B*%
X30700000Y25842500D03*
D25*
%TO.P,IC3,14,VCC*%
%TO.N,+5V*%
X30150000Y24792500D03*
D27*
%TO.P,IC3,15,GND_2*%
%TO.N,GND*%
X31700000Y24542500D03*
%TD*%
D14*
%TO.P,TP6,1,1*%
%TO.N,Net-(IC1-2Y)*%
X24800000Y29600000D03*
%TD*%
D23*
%TO.P,H3,1,1*%
%TO.N,GND*%
X1600000Y4000000D03*
X2302944Y5697056D03*
X2302944Y2302944D03*
X4000000Y6400000D03*
D24*
X4000000Y4000000D03*
D23*
X4000000Y1600000D03*
X5697056Y5697056D03*
X5697056Y2302944D03*
X6400000Y4000000D03*
%TD*%
D28*
%TO.P,C7,1*%
%TO.N,+3V3*%
X16400000Y12417500D03*
%TO.P,C7,2*%
%TO.N,GND*%
X16400000Y10692500D03*
%TD*%
D29*
%TO.P,D1,1,K*%
%TO.N,GND*%
X32350000Y8692500D03*
%TO.P,D1,2,A*%
%TO.N,Net-(D1-A)*%
X30300000Y8692500D03*
%TD*%
D30*
%TO.P,R3,1*%
%TO.N,Net-(R3-Pad1)*%
X34600000Y36007500D03*
%TO.P,R3,2*%
%TO.N,GND*%
X34600000Y34007500D03*
%TD*%
D19*
%TO.P,R9,1*%
%TO.N,+3V3*%
X14490000Y12492500D03*
%TO.P,R9,2*%
%TO.N,Net-(D2-A)*%
X12490000Y12492500D03*
%TD*%
D31*
%TO.P,SW2,1,1*%
%TO.N,Net-(R3-Pad1)*%
X34600000Y45100000D03*
X34600000Y38600000D03*
%TO.P,SW2,2,2*%
%TO.N,+5V*%
X30100000Y45100000D03*
X30100000Y38600000D03*
%TD*%
D18*
%TO.P,R1,1*%
%TO.N,+5V*%
X15150000Y34057500D03*
%TO.P,R1,2*%
%TO.N,Net-(R1-Pad2)*%
X15150000Y36057500D03*
%TD*%
D14*
%TO.P,TP2,1,1*%
%TO.N,Net-(R3-Pad1)*%
X27350000Y36000000D03*
%TD*%
D23*
%TO.P,H2,1,1*%
%TO.N,GND*%
X38600000Y46000000D03*
X39302944Y47697056D03*
X39302944Y44302944D03*
X41000000Y48400000D03*
D24*
X41000000Y46000000D03*
D23*
X41000000Y43600000D03*
X42697056Y47697056D03*
X42697056Y44302944D03*
X43400000Y46000000D03*
%TD*%
D29*
%TO.P,D2,1,K*%
%TO.N,GND*%
X14490000Y10292500D03*
%TO.P,D2,2,A*%
%TO.N,Net-(D2-A)*%
X12440000Y10292500D03*
%TD*%
D30*
%TO.P,R4,1*%
%TO.N,Net-(R3-Pad1)*%
X29600000Y36000000D03*
%TO.P,R4,2*%
%TO.N,/RESET*%
X29600000Y34000000D03*
%TD*%
D18*
%TO.P,R10,1*%
%TO.N,/LDO_EN_SEL*%
X17300000Y14600000D03*
%TO.P,R10,2*%
%TO.N,GND*%
X17300000Y16600000D03*
%TD*%
D32*
%TO.P,J3,1,Pin_1*%
%TO.N,GND*%
X4040000Y22330000D03*
D33*
%TO.P,J3,2,Pin_2*%
%TO.N,+3V3*%
X4040000Y19790000D03*
%TD*%
D25*
%TO.P,IC2,1,1A*%
%TO.N,Net-(IC1-1Y)*%
X11850000Y24292500D03*
D26*
%TO.P,IC2,2,1B*%
%TO.N,+3V3*%
X12400000Y23242500D03*
%TO.P,IC2,3,1Y*%
%TO.N,Net-(IC2-1Y)*%
X12900000Y23242500D03*
%TO.P,IC2,4,2A*%
%TO.N,GND*%
X13400000Y23242500D03*
%TO.P,IC2,5,2B*%
X13900000Y23242500D03*
%TO.P,IC2,6,2Y*%
%TO.N,unconnected-(IC2-2Y-Pad6)*%
X14400000Y23242500D03*
D25*
%TO.P,IC2,7,GND_1*%
%TO.N,GND*%
X14950000Y24292500D03*
%TO.P,IC2,8,3Y*%
%TO.N,unconnected-(IC2-3Y-Pad8)*%
X14950000Y24792500D03*
D26*
%TO.P,IC2,9,3A*%
%TO.N,GND*%
X14400000Y25842500D03*
%TO.P,IC2,10,3B*%
X13900000Y25842500D03*
%TO.P,IC2,11,4Y*%
%TO.N,unconnected-(IC2-4Y-Pad11)*%
X13400000Y25842500D03*
%TO.P,IC2,12,4A*%
%TO.N,GND*%
X12900000Y25842500D03*
%TO.P,IC2,13,4B*%
X12400000Y25842500D03*
D25*
%TO.P,IC2,14,VCC*%
%TO.N,+5V*%
X11850000Y24792500D03*
D27*
%TO.P,IC2,15,GND_2*%
%TO.N,GND*%
X13400000Y24542500D03*
%TD*%
D23*
%TO.P,H4,1,1*%
%TO.N,GND*%
X38600000Y4000000D03*
X39302944Y5697056D03*
X39302944Y2302944D03*
X41000000Y6400000D03*
D24*
X41000000Y4000000D03*
D23*
X41000000Y1600000D03*
X42697056Y5697056D03*
X42697056Y2302944D03*
X43400000Y4000000D03*
%TD*%
D31*
%TO.P,SW1,1,1*%
%TO.N,GND*%
X14650000Y45150000D03*
X14650000Y38650000D03*
%TO.P,SW1,2,2*%
%TO.N,Net-(R1-Pad2)*%
X10150000Y45150000D03*
X10150000Y38650000D03*
%TD*%
D30*
%TO.P,R6,1*%
%TO.N,+3V3*%
X12590000Y5242500D03*
%TO.P,R6,2*%
%TO.N,Net-(R6-Pad2)*%
X12590000Y3242500D03*
%TD*%
D34*
%TO.P,J2,1,Pin_1*%
%TO.N,+5V*%
X40960000Y19760000D03*
D33*
%TO.P,J2,2,Pin_2*%
%TO.N,GND*%
X40960000Y22300000D03*
%TD*%
D30*
%TO.P,R2,1*%
%TO.N,Net-(R1-Pad2)*%
X10150000Y36057500D03*
%TO.P,R2,2*%
%TO.N,/POWER_ON*%
X10150000Y34057500D03*
%TD*%
D28*
%TO.P,C5,1*%
%TO.N,+5V*%
X28410000Y10817500D03*
%TO.P,C5,2*%
%TO.N,GND*%
X28410000Y9092500D03*
%TD*%
D35*
%TO.N,GND*%
X17300000Y18100000D03*
X11500000Y36000000D03*
X19840000Y8530000D03*
X36000000Y34000000D03*
X19100000Y38800000D03*
X11750000Y27750000D03*
X31000000Y27800000D03*
X23700000Y26600000D03*
X17000000Y24250000D03*
X17600000Y10700000D03*
X7900000Y26700000D03*
X28400000Y7600000D03*
X32500000Y27800000D03*
%TO.N,Net-(IC1-2Y)*%
X31825000Y21500000D03*
X30575000Y21500000D03*
%TO.N,Net-(IC1-1Y)*%
X11000000Y25500000D03*
X21250000Y33800000D03*
X20250000Y28750000D03*
X9750000Y24500000D03*
%TO.N,/RESET*%
X23000000Y33175000D03*
X25000000Y33200000D03*
%TO.N,Net-(IC2-1Y)*%
X26750000Y20250000D03*
X28250000Y22250000D03*
%TO.N,/LDO_EN*%
X28275000Y14100000D03*
X30125000Y14100000D03*
%TO.N,Net-(R3-Pad1)*%
X36500000Y39250000D03*
X36500000Y42000000D03*
%TO.N,/LDO_EN_SEL*%
X25600000Y10100000D03*
X25600000Y11855000D03*
%TD*%
D36*
%TO.N,/POWER_ON*%
X12650000Y34307500D02*
X10400000Y34307500D01*
X12650000Y34307500D02*
X12650000Y30400000D01*
X20131500Y35131500D02*
X13474000Y35131500D01*
X13474000Y35131500D02*
X12650000Y34307500D01*
X20300000Y35300000D02*
X20131500Y35131500D01*
X10400000Y34307500D02*
X10150000Y34057500D01*
D37*
%TO.N,+3V3*%
X11857500Y5242500D02*
X11050000Y6050000D01*
X11350000Y9175000D02*
X13025080Y9175000D01*
X13514000Y9663920D02*
X13514000Y11516500D01*
X13514000Y11516500D02*
X14490000Y12492500D01*
X21262500Y11055000D02*
X19545000Y11055000D01*
X11050000Y8875000D02*
X11350000Y9175000D01*
X18182500Y12417500D02*
X16400000Y12417500D01*
X19545000Y11055000D02*
X18182500Y12417500D01*
X12590000Y5242500D02*
X11857500Y5242500D01*
X11050000Y6050000D02*
X11050000Y8875000D01*
X13025080Y9175000D02*
X13514000Y9663920D01*
D38*
%TO.N,GND*%
X32700000Y25542500D02*
X31700000Y24542500D01*
X16000000Y10292500D02*
X16400000Y10692500D01*
X19840000Y8890000D02*
X20060000Y9110000D01*
X30700000Y25842500D02*
X30700000Y25542500D01*
X31200000Y25842500D02*
X31200000Y27600000D01*
X14400000Y25842500D02*
X14400000Y25542500D01*
X16400000Y10692500D02*
X17592500Y10692500D01*
X17000000Y24250000D02*
X16750000Y24250000D01*
X12400000Y25542500D02*
X13400000Y24542500D01*
X13900000Y24042500D02*
X13400000Y24542500D01*
X32700000Y25842500D02*
X32700000Y25542500D01*
X29273500Y7691500D02*
X28410000Y8555000D01*
X31700000Y23242500D02*
X31700000Y24542500D01*
X11750000Y26500000D02*
X11750000Y27750000D01*
X12400000Y25842500D02*
X12400000Y25850000D01*
X12900000Y25042500D02*
X13400000Y24542500D01*
X12400000Y25842500D02*
X12400000Y25542500D01*
X32700000Y27600000D02*
X32500000Y27800000D01*
X32200000Y25042500D02*
X31700000Y24542500D01*
X32200000Y24042500D02*
X31700000Y24542500D01*
X14400000Y25542500D02*
X13400000Y24542500D01*
X20065000Y9105000D02*
X21262500Y9105000D01*
X31200000Y27600000D02*
X31000000Y27800000D01*
X30700000Y25542500D02*
X31700000Y24542500D01*
X28400000Y9082500D02*
X28410000Y9092500D01*
X32200000Y27500000D02*
X32200000Y25842500D01*
X14950000Y24292500D02*
X13650000Y24292500D01*
X20325000Y38800000D02*
X19100000Y38800000D01*
X32500000Y27800000D02*
X32200000Y27500000D01*
X16750000Y24250000D02*
X16707500Y24292500D01*
X13400000Y23242500D02*
X13400000Y24542500D01*
X17592500Y10692500D02*
X17600000Y10700000D01*
X30700000Y27500000D02*
X31000000Y27800000D01*
X31200000Y25842500D02*
X31200000Y25042500D01*
X16590000Y5242500D02*
X16590000Y10502500D01*
X32350000Y8692500D02*
X31349000Y7691500D01*
X11532500Y36032500D02*
X11500000Y36000000D01*
X31950000Y24292500D02*
X31700000Y24542500D01*
X30700000Y25842500D02*
X30700000Y27500000D01*
X13900000Y25042500D02*
X13400000Y24542500D01*
X22652500Y10080000D02*
X21677500Y9105000D01*
X21677500Y9105000D02*
X21262500Y9105000D01*
X13650000Y24292500D02*
X13400000Y24542500D01*
X32100000Y35862500D02*
X32745000Y35862500D01*
X13900000Y23242500D02*
X13900000Y24042500D01*
X32200000Y23242500D02*
X32200000Y24042500D01*
X19840000Y8530000D02*
X19840000Y8890000D01*
X14490000Y10292500D02*
X16000000Y10292500D01*
X34600000Y34007500D02*
X35992500Y34007500D01*
X20325000Y38800000D02*
X20901000Y38224000D01*
X32700000Y25842500D02*
X32700000Y27600000D01*
X16590000Y10502500D02*
X16400000Y10692500D01*
X6700000Y26700000D02*
X7900000Y26700000D01*
X28400000Y7600000D02*
X28400000Y9082500D01*
X17300000Y16600000D02*
X17300000Y18100000D01*
X31200000Y25042500D02*
X31700000Y24542500D01*
X20901000Y38224000D02*
X20901000Y34651000D01*
X24800000Y26555000D02*
X23745000Y26555000D01*
X23745000Y26555000D02*
X23700000Y26600000D01*
X33250000Y24292500D02*
X31950000Y24292500D01*
X20901000Y34651000D02*
X20800000Y34550000D01*
X12650000Y36032500D02*
X11532500Y36032500D01*
X32200000Y25842500D02*
X32200000Y25042500D01*
X20060000Y9110000D02*
X20065000Y9105000D01*
X12900000Y25842500D02*
X12900000Y25042500D01*
X35992500Y34007500D02*
X36000000Y34000000D01*
X28410000Y8555000D02*
X28410000Y9092500D01*
X13900000Y25842500D02*
X13900000Y25042500D01*
X16707500Y24292500D02*
X14950000Y24292500D01*
X12400000Y25850000D02*
X11750000Y26500000D01*
X32745000Y35862500D02*
X34600000Y34007500D01*
X20800000Y34550000D02*
X20300000Y34550000D01*
X31349000Y7691500D02*
X29273500Y7691500D01*
D37*
%TO.N,+5V*%
X26050000Y36900000D02*
X27900000Y38750000D01*
D39*
X24042500Y11055000D02*
X28172500Y11055000D01*
D37*
X28172500Y11055000D02*
X28410000Y10817500D01*
X26050000Y35500000D02*
X26050000Y36900000D01*
X29950000Y38750000D02*
X30100000Y38600000D01*
X25100000Y34550000D02*
X26050000Y35500000D01*
X27900000Y38750000D02*
X29950000Y38750000D01*
X22100000Y34550000D02*
X25100000Y34550000D01*
D38*
%TO.N,Net-(D1-A)*%
X30300000Y10892500D02*
X30300000Y8692500D01*
%TO.N,Net-(D2-A)*%
X12490000Y10342500D02*
X12440000Y10292500D01*
X12490000Y12492500D02*
X12490000Y10342500D01*
D36*
%TO.N,Net-(IC1-2Y)*%
X35250000Y22000000D02*
X34750000Y21500000D01*
X30575000Y23117500D02*
X30700000Y23242500D01*
X24800000Y32400000D02*
X23400000Y33800000D01*
X34500000Y28500000D02*
X35250000Y27750000D01*
X23400000Y33800000D02*
X22100000Y33800000D01*
X25900000Y28500000D02*
X34500000Y28500000D01*
X35250000Y27750000D02*
X35250000Y22000000D01*
X24800000Y29600000D02*
X25900000Y28500000D01*
X24800000Y29600000D02*
X24800000Y32400000D01*
X30575000Y21500000D02*
X30575000Y23117500D01*
X34750000Y21500000D02*
X31825000Y21500000D01*
%TO.N,Net-(IC1-1Y)*%
X22100000Y35300000D02*
X21550000Y35300000D01*
X21327000Y33877000D02*
X21250000Y33800000D01*
X19500000Y28000000D02*
X13250000Y28000000D01*
X11490702Y28376000D02*
X11000000Y27885298D01*
X12874000Y28376000D02*
X11490702Y28376000D01*
X22800000Y36000000D02*
X22100000Y35300000D01*
X24800000Y36000000D02*
X22800000Y36000000D01*
X13250000Y28000000D02*
X12874000Y28376000D01*
X9957500Y24292500D02*
X11850000Y24292500D01*
X11000000Y27885298D02*
X11000000Y25500000D01*
X20250000Y28750000D02*
X19500000Y28000000D01*
X21550000Y35300000D02*
X21327000Y35077000D01*
X9750000Y24500000D02*
X9957500Y24292500D01*
X21327000Y35077000D02*
X21327000Y33877000D01*
%TO.N,/RESET*%
X32100000Y34137500D02*
X32100000Y30350000D01*
X28800000Y33200000D02*
X28200000Y33200000D01*
X32100000Y34137500D02*
X29737500Y34137500D01*
X23000000Y33175000D02*
X20925000Y33175000D01*
X20925000Y33175000D02*
X20300000Y33800000D01*
X28200000Y33200000D02*
X24883884Y33200000D01*
X24883884Y33200000D02*
X25000000Y33200000D01*
X29600000Y34000000D02*
X28800000Y33200000D01*
X29737500Y34137500D02*
X29600000Y34000000D01*
%TO.N,Net-(IC2-1Y)*%
X25916500Y19416500D02*
X26750000Y20250000D01*
X13920500Y21500000D02*
X16250000Y21500000D01*
X12900000Y23242500D02*
X12900000Y22520500D01*
X29292500Y24292500D02*
X30150000Y24292500D01*
X12900000Y22520500D02*
X13920500Y21500000D01*
X28250000Y22250000D02*
X28250000Y23250000D01*
X18333500Y19416500D02*
X25916500Y19416500D01*
X16250000Y21500000D02*
X18333500Y19416500D01*
X28250000Y23250000D02*
X29292500Y24292500D01*
%TO.N,/LDO_EN*%
X30125000Y14100000D02*
X30125000Y14217500D01*
X21712500Y14100000D02*
X28275000Y14100000D01*
X30125000Y14217500D02*
X31200000Y15292500D01*
X31200000Y23242500D02*
X31200000Y15292500D01*
X20300000Y15512500D02*
X21712500Y14100000D01*
D38*
%TO.N,Net-(R1-Pad2)*%
X9900000Y35807500D02*
X10150000Y36057500D01*
X10150000Y38650000D02*
X10150000Y36057500D01*
X7900000Y35807500D02*
X9900000Y35807500D01*
X10963500Y36871000D02*
X10150000Y36057500D01*
X14336500Y36871000D02*
X10963500Y36871000D01*
X15150000Y36057500D02*
X14336500Y36871000D01*
X10150000Y45150000D02*
X10150000Y38650000D01*
%TO.N,Net-(R3-Pad1)*%
X30301000Y36701000D02*
X33906500Y36701000D01*
X34600000Y38600000D02*
X35850000Y38600000D01*
X33906500Y36701000D02*
X34600000Y36007500D01*
X29600000Y36000000D02*
X30301000Y36701000D01*
X36500000Y43200000D02*
X34600000Y45100000D01*
X35850000Y38600000D02*
X36500000Y39250000D01*
X27350000Y36000000D02*
X29600000Y36000000D01*
X36500000Y42000000D02*
X36500000Y43200000D01*
X34600000Y36007500D02*
X34600000Y38600000D01*
%TO.N,Net-(U1-ADJ{slash}NC)*%
X19000000Y8800000D02*
X19000000Y4000000D01*
X21262500Y9755000D02*
X19955000Y9755000D01*
X19000000Y4000000D02*
X18242500Y3242500D01*
X14590000Y5242500D02*
X16590000Y3242500D01*
X18242500Y3242500D02*
X16590000Y3242500D01*
X19955000Y9755000D02*
X19000000Y8800000D01*
%TO.N,Net-(R6-Pad2)*%
X14590000Y3242500D02*
X12590000Y3242500D01*
D36*
%TO.N,/LDO_EN_SEL*%
X18400000Y17200000D02*
X19252500Y18052500D01*
X17300000Y14600000D02*
X18200000Y14600000D01*
X18200000Y14600000D02*
X18400000Y14800000D01*
X18625000Y13275000D02*
X25150000Y13275000D01*
X25600000Y10100000D02*
X24605000Y9105000D01*
X24605000Y9105000D02*
X24042500Y9105000D01*
X25600000Y12825000D02*
X25600000Y11855000D01*
X19252500Y18052500D02*
X20300000Y18052500D01*
X18400000Y14800000D02*
X18400000Y17200000D01*
X17300000Y14600000D02*
X18625000Y13275000D01*
X25150000Y13275000D02*
X25600000Y12825000D01*
%TD*%
%TA.AperFunction,Conductor*%
%TO.N,+3V3*%
G36*
X12507719Y23607719D02*
G01*
X12525000Y23566000D01*
X12525000Y22430688D01*
X12507719Y22388969D01*
X12136031Y22017281D01*
X12094312Y22000000D01*
X10604686Y22000000D01*
X10100000Y21495315D01*
X10100000Y21495313D01*
X10100000Y19014284D01*
X15200000Y13400000D01*
X16600562Y13400000D01*
X16642281Y13382719D01*
X17082719Y12942281D01*
X17100000Y12900562D01*
X17100000Y11880688D01*
X17082719Y11838969D01*
X16761031Y11517281D01*
X16719312Y11500000D01*
X13759000Y11500000D01*
X13717281Y11517281D01*
X13700000Y11559000D01*
X13700000Y13300000D01*
X12400000Y14700000D01*
X12399997Y14700003D01*
X12399984Y14700017D01*
X11900001Y15200000D01*
X11900000Y15200000D01*
X4743750Y15200000D01*
X4743749Y15200000D01*
X4500000Y14956252D01*
X4500000Y14249438D01*
X4482719Y14207719D01*
X3692281Y13417281D01*
X3650562Y13400000D01*
X2699439Y13400000D01*
X2657720Y13417281D01*
X2417281Y13657720D01*
X2400000Y13699439D01*
X2400000Y19954729D01*
X2417281Y19996448D01*
X3203552Y20782719D01*
X3245271Y20800000D01*
X5043338Y20800000D01*
X5084974Y20782802D01*
X5668508Y20201579D01*
X5685872Y20160011D01*
X5686590Y19979167D01*
X5698486Y16981486D01*
X6413567Y16274987D01*
X8550328Y16292304D01*
X9500000Y17249703D01*
X9500000Y21100000D01*
X9500000Y22044312D01*
X9517281Y22086031D01*
X9913969Y22482719D01*
X9955688Y22500000D01*
X11993750Y22500000D01*
X12275000Y22781250D01*
X12275000Y23566000D01*
X12292281Y23607719D01*
X12334000Y23625000D01*
X12466000Y23625000D01*
X12507719Y23607719D01*
G37*
%TD.AperFunction*%
%TD*%
%TA.AperFunction,Conductor*%
%TO.N,+5V*%
G36*
X30967183Y46281093D02*
G01*
X30978996Y46271004D01*
X31371004Y45878996D01*
X31398781Y45824479D01*
X31400000Y45808992D01*
X31400000Y43187500D01*
X32437500Y42150000D01*
X35218939Y42150000D01*
X35277130Y42131093D01*
X35289062Y42120884D01*
X37732813Y39668781D01*
X37760497Y39614217D01*
X37761690Y39598791D01*
X37748001Y26766382D01*
X37748002Y26766380D01*
X38816934Y25150000D01*
X38833576Y25124836D01*
X38850000Y25070227D01*
X38850000Y20000000D01*
X42610924Y20000000D01*
X42669115Y19981093D01*
X42705079Y19931593D01*
X42708022Y19881686D01*
X42699500Y19838845D01*
X42699500Y19681156D01*
X42730263Y19526504D01*
X42730263Y19526502D01*
X42790603Y19380826D01*
X42790609Y19380815D01*
X42843312Y19301941D01*
X42878211Y19249711D01*
X42878214Y19249708D01*
X42878218Y19249703D01*
X42971887Y19156035D01*
X42989711Y19138211D01*
X43056002Y19093917D01*
X43093881Y19045868D01*
X43100000Y19011602D01*
X43100000Y13074697D01*
X43081093Y13016506D01*
X43031593Y12980542D01*
X43001028Y12975697D01*
X40649028Y12975029D01*
X40590832Y12993920D01*
X40554854Y13043410D01*
X40550000Y13074029D01*
X40550000Y14899999D01*
X40550000Y14900000D01*
X40549999Y14900000D01*
X37999998Y14900000D01*
X33050000Y12212098D01*
X33050000Y10378508D01*
X33047531Y10370911D01*
X33048781Y10363021D01*
X33038256Y10342366D01*
X33031093Y10320317D01*
X33021004Y10308504D01*
X32941496Y10228996D01*
X32886979Y10201219D01*
X32871492Y10200000D01*
X31969133Y10200000D01*
X31910942Y10218907D01*
X31899129Y10228996D01*
X31628996Y10499129D01*
X31601219Y10553646D01*
X31600000Y10569133D01*
X31600000Y11924999D01*
X31600000Y11925000D01*
X31325000Y12200000D01*
X31324999Y12200000D01*
X29500001Y12200000D01*
X29500000Y12200000D01*
X29200000Y11900000D01*
X29200000Y11899999D01*
X29200000Y10641008D01*
X29181093Y10582817D01*
X29171004Y10571004D01*
X28828996Y10228996D01*
X28774479Y10201219D01*
X28758992Y10200000D01*
X28041008Y10200000D01*
X27982817Y10218907D01*
X27971004Y10228996D01*
X27628996Y10571004D01*
X27601219Y10625521D01*
X27600000Y10641008D01*
X27600000Y10999999D01*
X27600000Y11000000D01*
X27599999Y11000000D01*
X27399000Y11000000D01*
X27340809Y11018907D01*
X27304845Y11068407D01*
X27300000Y11099000D01*
X27300000Y12608992D01*
X27318907Y12667183D01*
X27328996Y12678996D01*
X27821004Y13171004D01*
X27875521Y13198781D01*
X27891008Y13200000D01*
X28506249Y13200000D01*
X28506250Y13200000D01*
X28925000Y13618750D01*
X28925000Y16975000D01*
X28925000Y16975001D01*
X27261641Y20177998D01*
X27250500Y20223624D01*
X27250500Y20315891D01*
X27232843Y20381789D01*
X27216392Y20443186D01*
X27216390Y20443189D01*
X27216390Y20443191D01*
X27150503Y20557310D01*
X27150501Y20557312D01*
X27150500Y20557314D01*
X27057314Y20650500D01*
X27057311Y20650502D01*
X27023719Y20669897D01*
X26985361Y20710007D01*
X25900000Y22800000D01*
X22593773Y22800000D01*
X22593772Y22800000D01*
X21519937Y21734091D01*
X21519936Y21734090D01*
X21503934Y20240917D01*
X21484404Y20182932D01*
X21474470Y20171504D01*
X21068050Y19770531D01*
X21013347Y19743122D01*
X20998245Y19742005D01*
X19845527Y19745206D01*
X19787389Y19764275D01*
X19775798Y19774202D01*
X19428996Y20121004D01*
X19401219Y20175521D01*
X19400000Y20191008D01*
X19400000Y24546492D01*
X19418907Y24604683D01*
X19428996Y24616496D01*
X20183504Y25371004D01*
X20238021Y25398781D01*
X20253508Y25400000D01*
X21300000Y25400000D01*
X21300000Y25400001D01*
X21287923Y26426567D01*
X21255147Y29212530D01*
X20812500Y29650000D01*
X20812499Y29650000D01*
X17500001Y29650000D01*
X17500000Y29650000D01*
X17500000Y29649999D01*
X17500000Y29441008D01*
X17481093Y29382817D01*
X17471004Y29371004D01*
X16878996Y28778996D01*
X16824479Y28751219D01*
X16808992Y28750000D01*
X11499999Y28750000D01*
X11471592Y28721593D01*
X11427213Y28695971D01*
X11382941Y28684108D01*
X11365064Y28679318D01*
X11290840Y28636465D01*
X10739531Y28085156D01*
X10696683Y28010941D01*
X10696682Y28010938D01*
X10689600Y27984512D01*
X10689601Y27984511D01*
X10680029Y27948788D01*
X10654406Y27904408D01*
X10500000Y27750001D01*
X10500000Y27750000D01*
X10500000Y25567759D01*
X10499500Y25565892D01*
X10499500Y25434108D01*
X10500000Y25432242D01*
X10500000Y25275000D01*
X10875000Y24900000D01*
X12201000Y24900000D01*
X12215912Y24895155D01*
X12231593Y24895155D01*
X12244278Y24885939D01*
X12259191Y24881093D01*
X12268407Y24868408D01*
X12281093Y24859191D01*
X12285938Y24844279D01*
X12295155Y24831593D01*
X12300000Y24801000D01*
X12300000Y24799000D01*
X12281093Y24740809D01*
X12231593Y24704845D01*
X12201000Y24700000D01*
X10291008Y24700000D01*
X10232817Y24718907D01*
X10221004Y24728996D01*
X10170388Y24779612D01*
X10154656Y24800115D01*
X10154145Y24801000D01*
X10150500Y24807314D01*
X10113535Y24844279D01*
X10057318Y24900497D01*
X10057317Y24900498D01*
X10050110Y24904659D01*
X10029611Y24920389D01*
X9828996Y25121004D01*
X9801219Y25175521D01*
X9800000Y25191008D01*
X9800000Y27724999D01*
X9800000Y27725000D01*
X9325000Y28200000D01*
X9324999Y28200000D01*
X5600001Y28200000D01*
X5600000Y28200000D01*
X5600000Y28199999D01*
X5600000Y26484758D01*
X5581093Y26426567D01*
X5571004Y26414754D01*
X5385246Y26228996D01*
X5330729Y26201219D01*
X5315242Y26200000D01*
X4666008Y26200000D01*
X4607817Y26218907D01*
X4596004Y26228996D01*
X4328996Y26496004D01*
X4301219Y26550521D01*
X4300000Y26566008D01*
X4300000Y28833992D01*
X4318907Y28892183D01*
X4328996Y28903996D01*
X4596004Y29171004D01*
X4650521Y29198781D01*
X4666008Y29200000D01*
X16353797Y29200000D01*
X16786446Y29636750D01*
X16755306Y32937525D01*
X16187500Y33500000D01*
X14599000Y33500000D01*
X14540809Y33518907D01*
X14504845Y33568407D01*
X14500000Y33599000D01*
X14500000Y34401000D01*
X14518907Y34459191D01*
X14568407Y34495155D01*
X14599000Y34500000D01*
X16708992Y34500000D01*
X16767183Y34481093D01*
X16778996Y34471004D01*
X17471004Y33778996D01*
X17498781Y33724479D01*
X17500000Y33708992D01*
X17500000Y30050000D01*
X21371492Y30050000D01*
X21429683Y30031093D01*
X21441496Y30021004D01*
X22021004Y29441496D01*
X22048781Y29386979D01*
X22050000Y29371492D01*
X22050000Y25400000D01*
X25900000Y25400000D01*
X27604219Y25400000D01*
X27662410Y25381093D01*
X27679648Y25365119D01*
X27887147Y25121004D01*
X28074577Y24900497D01*
X28075000Y24900000D01*
X30426000Y24900000D01*
X30440912Y24895155D01*
X30456593Y24895155D01*
X30469278Y24885939D01*
X30484191Y24881093D01*
X30493407Y24868408D01*
X30506093Y24859191D01*
X30510938Y24844279D01*
X30520155Y24831593D01*
X30525000Y24801000D01*
X30525000Y24774000D01*
X30506093Y24715809D01*
X30456593Y24679845D01*
X30426000Y24675000D01*
X28022330Y24675000D01*
X27548483Y24202598D01*
X27542633Y22285081D01*
X29460132Y18648934D01*
X29471561Y18602328D01*
X29453556Y14425000D01*
X29450062Y13614322D01*
X29862602Y13200000D01*
X32599999Y13200000D01*
X32600000Y13200000D01*
X38000000Y16100000D01*
X38000000Y19999655D01*
X38000001Y20000187D01*
X38000957Y20177998D01*
X38025000Y24650000D01*
X38003769Y24679845D01*
X37018329Y26065137D01*
X37000000Y26122523D01*
X37000000Y39182242D01*
X37000500Y39184108D01*
X37000500Y39315892D01*
X37000000Y39317759D01*
X37000000Y39617096D01*
X36999999Y39617098D01*
X35863080Y40800000D01*
X35863079Y40800000D01*
X32400000Y40800000D01*
X31400000Y39800000D01*
X31400000Y39799999D01*
X31400000Y38791008D01*
X31381093Y38732817D01*
X31371004Y38721004D01*
X31078996Y38428996D01*
X31024479Y38401219D01*
X31008992Y38400000D01*
X21814445Y38400000D01*
X21756254Y38418907D01*
X21744441Y38428996D01*
X21578996Y38594441D01*
X21551219Y38648958D01*
X21550000Y38664445D01*
X21550000Y39052742D01*
X21568907Y39110933D01*
X21578996Y39122746D01*
X21752254Y39296004D01*
X21806771Y39323781D01*
X21822258Y39325000D01*
X28006249Y39325000D01*
X28006250Y39325000D01*
X28700000Y40018750D01*
X28700000Y45752742D01*
X28718907Y45810933D01*
X28728996Y45822746D01*
X29177254Y46271004D01*
X29231771Y46298781D01*
X29247258Y46300000D01*
X30908992Y46300000D01*
X30967183Y46281093D01*
G37*
%TD.AperFunction*%
%TD*%
M02*
