%TF.GenerationSoftware,KiCad,Pcbnew,9.0.4*%
%TF.CreationDate,2026-01-25T08:22:20+01:00*%
%TF.ProjectId,VQFN_Training_Lab,5651464e-5f54-4726-9169-6e696e675f4c,1.0*%
%TF.SameCoordinates,PX7270e00PY7270e00*%
%TF.FileFunction,Plated,1,2,PTH,Drill*%
%TF.FilePolarity,Positive*%
%FSLAX46Y46*%
G04 Gerber Fmt 4.6, Leading zero omitted, Abs format (unit mm)*
G04 Created by KiCad (PCBNEW 9.0.4) date 2026-01-25 08:22:21*
%MOMM*%
%LPD*%
G01*
G04 APERTURE LIST*
%TA.AperFunction,ComponentDrill*%
%ADD10C,0.200000*%
%TD*%
%TA.AperFunction,ViaDrill*%
%ADD11C,0.300000*%
%TD*%
%TA.AperFunction,ComponentDrill*%
%ADD12C,0.500000*%
%TD*%
%TA.AperFunction,ComponentDrill*%
%ADD13C,1.000000*%
%TD*%
%TA.AperFunction,ComponentDrill*%
%ADD14C,1.100000*%
%TD*%
%TA.AperFunction,ComponentDrill*%
%ADD15C,3.200000*%
%TD*%
G04 APERTURE END LIST*
D10*
%TO.C,U1*%
X22352500Y10680000D03*
X22952500Y9480000D03*
%TD*%
D11*
X7900000Y26700000D03*
X9750000Y24500000D03*
X11000000Y25500000D03*
X11500000Y36000000D03*
X11750000Y27750000D03*
X17000000Y24250000D03*
X17300000Y18100000D03*
X17600000Y10700000D03*
X19100000Y38800000D03*
X19840000Y8530000D03*
X20250000Y28750000D03*
X21250000Y33800000D03*
X23000000Y33175000D03*
X23700000Y26600000D03*
X25000000Y33200000D03*
X25600000Y11855000D03*
X25600000Y10100000D03*
X26750000Y20250000D03*
X28250000Y22250000D03*
X28275000Y14100000D03*
X28400000Y7600000D03*
X30125000Y14100000D03*
X30575000Y21500000D03*
X31000000Y27800000D03*
X31825000Y21500000D03*
X32500000Y27800000D03*
X36000000Y34000000D03*
X36500000Y42000000D03*
X36500000Y39250000D03*
D12*
%TO.C,H1*%
X1600000Y46000000D03*
%TO.C,H3*%
X1600000Y4000000D03*
%TO.C,H1*%
X2302944Y47697056D03*
X2302944Y44302944D03*
%TO.C,H3*%
X2302944Y5697056D03*
X2302944Y2302944D03*
%TO.C,H1*%
X4000000Y48400000D03*
X4000000Y43600000D03*
%TO.C,H3*%
X4000000Y6400000D03*
X4000000Y1600000D03*
%TO.C,H1*%
X5697056Y47697056D03*
X5697056Y44302944D03*
%TO.C,H3*%
X5697056Y5697056D03*
X5697056Y2302944D03*
%TO.C,H1*%
X6400000Y46000000D03*
%TO.C,H3*%
X6400000Y4000000D03*
%TO.C,H2*%
X38600000Y46000000D03*
%TO.C,H4*%
X38600000Y4000000D03*
%TO.C,H2*%
X39302944Y47697056D03*
X39302944Y44302944D03*
%TO.C,H4*%
X39302944Y5697056D03*
X39302944Y2302944D03*
%TO.C,H2*%
X41000000Y48400000D03*
X41000000Y43600000D03*
%TO.C,H4*%
X41000000Y6400000D03*
X41000000Y1600000D03*
%TO.C,H2*%
X42697056Y47697056D03*
X42697056Y44302944D03*
%TO.C,H4*%
X42697056Y5697056D03*
X42697056Y2302944D03*
%TO.C,H2*%
X43400000Y46000000D03*
%TO.C,H4*%
X43400000Y4000000D03*
D13*
%TO.C,J4*%
X3200000Y13970000D03*
X3200000Y11430000D03*
%TO.C,J5*%
X20300000Y20592500D03*
X20300000Y18052500D03*
X20300000Y15512500D03*
%TO.C,J1*%
X41925000Y13960000D03*
X41925000Y11420000D03*
D14*
%TO.C,J3*%
X4040000Y22330000D03*
X4040000Y19790000D03*
%TO.C,SW1*%
X10150000Y45150000D03*
X10150000Y38650000D03*
X14650000Y45150000D03*
X14650000Y38650000D03*
%TO.C,SW2*%
X30100000Y45100000D03*
X30100000Y38600000D03*
X34600000Y45100000D03*
X34600000Y38600000D03*
%TO.C,J2*%
X40960000Y22300000D03*
X40960000Y19760000D03*
D15*
%TO.C,H1*%
X4000000Y46000000D03*
%TO.C,H3*%
X4000000Y4000000D03*
%TO.C,H2*%
X41000000Y46000000D03*
%TO.C,H4*%
X41000000Y4000000D03*
M02*
