%TF.GenerationSoftware,KiCad,Pcbnew,9.0.4*%
%TF.CreationDate,2026-01-25T08:22:21+01:00*%
%TF.ProjectId,VQFN_Training_Lab,5651464e-5f54-4726-9169-6e696e675f4c,1.0*%
%TF.SameCoordinates,PX7270e00PY7270e00*%
%TF.FileFunction,Drillmap*%
%TF.FilePolarity,Positive*%
%FSLAX45Y45*%
G04 Gerber Fmt 4.5, Leading zero omitted, Abs format (unit mm)*
G04 Created by KiCad (PCBNEW 9.0.4) date 2026-01-25 08:22:21*
%MOMM*%
%LPD*%
G01*
G04 APERTURE LIST*
%ADD10C,0.050000*%
%ADD11C,0.200000*%
%ADD12C,0.100000*%
%ADD13C,0.110000*%
%ADD14C,0.320000*%
G04 APERTURE END LIST*
D10*
X0Y400000D02*
X0Y4600000D01*
X4100000Y0D02*
X400000Y0D01*
X0Y4600000D02*
G75*
G02*
X400000Y5000000I400000J0D01*
G01*
X4100000Y5000000D02*
X400000Y5000000D01*
X4500000Y4600000D02*
X4500000Y400000D01*
X400000Y0D02*
G75*
G02*
X0Y400000I0J400000D01*
G01*
X4500000Y400000D02*
G75*
G02*
X4100000Y0I-400000J0D01*
G01*
X4100000Y5000000D02*
G75*
G02*
X4500000Y4600000I0J-400000D01*
G01*
D11*
D12*
X2225250Y1078000D02*
X2245250Y1058000D01*
X2245250Y1078000D02*
X2225250Y1058000D01*
X2285250Y958000D02*
X2305250Y938000D01*
X2305250Y958000D02*
X2285250Y938000D01*
X805000Y2670000D02*
G75*
G02*
X775000Y2670000I-15000J0D01*
G01*
X775000Y2670000D02*
G75*
G02*
X805000Y2670000I15000J0D01*
G01*
X990000Y2450000D02*
G75*
G02*
X960000Y2450000I-15000J0D01*
G01*
X960000Y2450000D02*
G75*
G02*
X990000Y2450000I15000J0D01*
G01*
X1115000Y2550000D02*
G75*
G02*
X1085000Y2550000I-15000J0D01*
G01*
X1085000Y2550000D02*
G75*
G02*
X1115000Y2550000I15000J0D01*
G01*
X1165000Y3600000D02*
G75*
G02*
X1135000Y3600000I-15000J0D01*
G01*
X1135000Y3600000D02*
G75*
G02*
X1165000Y3600000I15000J0D01*
G01*
X1190000Y2775000D02*
G75*
G02*
X1160000Y2775000I-15000J0D01*
G01*
X1160000Y2775000D02*
G75*
G02*
X1190000Y2775000I15000J0D01*
G01*
X1715000Y2425000D02*
G75*
G02*
X1685000Y2425000I-15000J0D01*
G01*
X1685000Y2425000D02*
G75*
G02*
X1715000Y2425000I15000J0D01*
G01*
X1745000Y1810000D02*
G75*
G02*
X1715000Y1810000I-15000J0D01*
G01*
X1715000Y1810000D02*
G75*
G02*
X1745000Y1810000I15000J0D01*
G01*
X1775000Y1070000D02*
G75*
G02*
X1745000Y1070000I-15000J0D01*
G01*
X1745000Y1070000D02*
G75*
G02*
X1775000Y1070000I15000J0D01*
G01*
X1925000Y3880000D02*
G75*
G02*
X1895000Y3880000I-15000J0D01*
G01*
X1895000Y3880000D02*
G75*
G02*
X1925000Y3880000I15000J0D01*
G01*
X1999000Y853000D02*
G75*
G02*
X1969000Y853000I-15000J0D01*
G01*
X1969000Y853000D02*
G75*
G02*
X1999000Y853000I15000J0D01*
G01*
X2040000Y2875000D02*
G75*
G02*
X2010000Y2875000I-15000J0D01*
G01*
X2010000Y2875000D02*
G75*
G02*
X2040000Y2875000I15000J0D01*
G01*
X2140000Y3380000D02*
G75*
G02*
X2110000Y3380000I-15000J0D01*
G01*
X2110000Y3380000D02*
G75*
G02*
X2140000Y3380000I15000J0D01*
G01*
X2315000Y3317500D02*
G75*
G02*
X2285000Y3317500I-15000J0D01*
G01*
X2285000Y3317500D02*
G75*
G02*
X2315000Y3317500I15000J0D01*
G01*
X2385000Y2660000D02*
G75*
G02*
X2355000Y2660000I-15000J0D01*
G01*
X2355000Y2660000D02*
G75*
G02*
X2385000Y2660000I15000J0D01*
G01*
X2515000Y3320000D02*
G75*
G02*
X2485000Y3320000I-15000J0D01*
G01*
X2485000Y3320000D02*
G75*
G02*
X2515000Y3320000I15000J0D01*
G01*
X2575000Y1185500D02*
G75*
G02*
X2545000Y1185500I-15000J0D01*
G01*
X2545000Y1185500D02*
G75*
G02*
X2575000Y1185500I15000J0D01*
G01*
X2575000Y1010000D02*
G75*
G02*
X2545000Y1010000I-15000J0D01*
G01*
X2545000Y1010000D02*
G75*
G02*
X2575000Y1010000I15000J0D01*
G01*
X2690000Y2025000D02*
G75*
G02*
X2660000Y2025000I-15000J0D01*
G01*
X2660000Y2025000D02*
G75*
G02*
X2690000Y2025000I15000J0D01*
G01*
X2840000Y2225000D02*
G75*
G02*
X2810000Y2225000I-15000J0D01*
G01*
X2810000Y2225000D02*
G75*
G02*
X2840000Y2225000I15000J0D01*
G01*
X2842500Y1410000D02*
G75*
G02*
X2812500Y1410000I-15000J0D01*
G01*
X2812500Y1410000D02*
G75*
G02*
X2842500Y1410000I15000J0D01*
G01*
X2855000Y760000D02*
G75*
G02*
X2825000Y760000I-15000J0D01*
G01*
X2825000Y760000D02*
G75*
G02*
X2855000Y760000I15000J0D01*
G01*
X3027500Y1410000D02*
G75*
G02*
X2997500Y1410000I-15000J0D01*
G01*
X2997500Y1410000D02*
G75*
G02*
X3027500Y1410000I15000J0D01*
G01*
X3072500Y2150000D02*
G75*
G02*
X3042500Y2150000I-15000J0D01*
G01*
X3042500Y2150000D02*
G75*
G02*
X3072500Y2150000I15000J0D01*
G01*
X3115000Y2780000D02*
G75*
G02*
X3085000Y2780000I-15000J0D01*
G01*
X3085000Y2780000D02*
G75*
G02*
X3115000Y2780000I15000J0D01*
G01*
X3197500Y2150000D02*
G75*
G02*
X3167500Y2150000I-15000J0D01*
G01*
X3167500Y2150000D02*
G75*
G02*
X3197500Y2150000I15000J0D01*
G01*
X3265000Y2780000D02*
G75*
G02*
X3235000Y2780000I-15000J0D01*
G01*
X3235000Y2780000D02*
G75*
G02*
X3265000Y2780000I15000J0D01*
G01*
X3615000Y3400000D02*
G75*
G02*
X3585000Y3400000I-15000J0D01*
G01*
X3585000Y3400000D02*
G75*
G02*
X3615000Y3400000I15000J0D01*
G01*
X3665000Y4200000D02*
G75*
G02*
X3635000Y4200000I-15000J0D01*
G01*
X3635000Y4200000D02*
G75*
G02*
X3665000Y4200000I15000J0D01*
G01*
X3665000Y3925000D02*
G75*
G02*
X3635000Y3925000I-15000J0D01*
G01*
X3635000Y3925000D02*
G75*
G02*
X3665000Y3925000I15000J0D01*
G01*
X160000Y4625000D02*
X160000Y4575000D01*
X135000Y4600000D02*
X185000Y4600000D01*
X160000Y425000D02*
X160000Y375000D01*
X135000Y400000D02*
X185000Y400000D01*
X230294Y4794706D02*
X230294Y4744706D01*
X205294Y4769706D02*
X255294Y4769706D01*
X230294Y4455294D02*
X230294Y4405294D01*
X205294Y4430294D02*
X255294Y4430294D01*
X230294Y594706D02*
X230294Y544706D01*
X205294Y569706D02*
X255294Y569706D01*
X230294Y255294D02*
X230294Y205294D01*
X205294Y230294D02*
X255294Y230294D01*
X400000Y4865000D02*
X400000Y4815000D01*
X375000Y4840000D02*
X425000Y4840000D01*
X400000Y4385000D02*
X400000Y4335000D01*
X375000Y4360000D02*
X425000Y4360000D01*
X400000Y665000D02*
X400000Y615000D01*
X375000Y640000D02*
X425000Y640000D01*
X400000Y185000D02*
X400000Y135000D01*
X375000Y160000D02*
X425000Y160000D01*
X569706Y4794706D02*
X569706Y4744706D01*
X544706Y4769706D02*
X594706Y4769706D01*
X569706Y4455294D02*
X569706Y4405294D01*
X544706Y4430294D02*
X594706Y4430294D01*
X569706Y594706D02*
X569706Y544706D01*
X544706Y569706D02*
X594706Y569706D01*
X569706Y255294D02*
X569706Y205294D01*
X544706Y230294D02*
X594706Y230294D01*
X640000Y4625000D02*
X640000Y4575000D01*
X615000Y4600000D02*
X665000Y4600000D01*
X640000Y425000D02*
X640000Y375000D01*
X615000Y400000D02*
X665000Y400000D01*
X3860000Y4625000D02*
X3860000Y4575000D01*
X3835000Y4600000D02*
X3885000Y4600000D01*
X3860000Y425000D02*
X3860000Y375000D01*
X3835000Y400000D02*
X3885000Y400000D01*
X3930294Y4794706D02*
X3930294Y4744706D01*
X3905294Y4769706D02*
X3955294Y4769706D01*
X3930294Y4455294D02*
X3930294Y4405294D01*
X3905294Y4430294D02*
X3955294Y4430294D01*
X3930294Y594706D02*
X3930294Y544706D01*
X3905294Y569706D02*
X3955294Y569706D01*
X3930294Y255294D02*
X3930294Y205294D01*
X3905294Y230294D02*
X3955294Y230294D01*
X4100000Y4865000D02*
X4100000Y4815000D01*
X4075000Y4840000D02*
X4125000Y4840000D01*
X4100000Y4385000D02*
X4100000Y4335000D01*
X4075000Y4360000D02*
X4125000Y4360000D01*
X4100000Y665000D02*
X4100000Y615000D01*
X4075000Y640000D02*
X4125000Y640000D01*
X4100000Y185000D02*
X4100000Y135000D01*
X4075000Y160000D02*
X4125000Y160000D01*
X4269706Y4794706D02*
X4269706Y4744706D01*
X4244706Y4769706D02*
X4294706Y4769706D01*
X4269706Y4455294D02*
X4269706Y4405294D01*
X4244706Y4430294D02*
X4294706Y4430294D01*
X4269706Y594706D02*
X4269706Y544706D01*
X4244706Y569706D02*
X4294706Y569706D01*
X4269706Y255294D02*
X4269706Y205294D01*
X4244706Y230294D02*
X4294706Y230294D01*
X4340000Y4625000D02*
X4340000Y4575000D01*
X4315000Y4600000D02*
X4365000Y4600000D01*
X4340000Y425000D02*
X4340000Y375000D01*
X4315000Y400000D02*
X4365000Y400000D01*
X355356Y1361644D02*
X355356Y1432356D01*
X284644Y1432356D01*
X284644Y1361644D01*
X355356Y1361644D01*
X355356Y1107644D02*
X355356Y1178356D01*
X284644Y1178356D01*
X284644Y1107644D01*
X355356Y1107644D01*
X2065356Y2023894D02*
X2065356Y2094606D01*
X1994644Y2094606D01*
X1994644Y2023894D01*
X2065356Y2023894D01*
X2065356Y1769894D02*
X2065356Y1840606D01*
X1994644Y1840606D01*
X1994644Y1769894D01*
X2065356Y1769894D01*
X2065356Y1515894D02*
X2065356Y1586606D01*
X1994644Y1586606D01*
X1994644Y1515894D01*
X2065356Y1515894D01*
X4227856Y1360644D02*
X4227856Y1431356D01*
X4157144Y1431356D01*
X4157144Y1360644D01*
X4227856Y1360644D01*
X4227856Y1106644D02*
X4227856Y1177356D01*
X4157144Y1177356D01*
X4157144Y1106644D01*
X4227856Y1106644D01*
D13*
X404000Y2178000D02*
X459000Y2233000D01*
X404000Y2288000D01*
X349000Y2233000D01*
X404000Y2178000D01*
X404000Y1924000D02*
X459000Y1979000D01*
X404000Y2034000D01*
X349000Y1979000D01*
X404000Y1924000D01*
X1015000Y4460000D02*
X1070000Y4515000D01*
X1015000Y4570000D01*
X960000Y4515000D01*
X1015000Y4460000D01*
X1015000Y3810000D02*
X1070000Y3865000D01*
X1015000Y3920000D01*
X960000Y3865000D01*
X1015000Y3810000D01*
X1465000Y4460000D02*
X1520000Y4515000D01*
X1465000Y4570000D01*
X1410000Y4515000D01*
X1465000Y4460000D01*
X1465000Y3810000D02*
X1520000Y3865000D01*
X1465000Y3920000D01*
X1410000Y3865000D01*
X1465000Y3810000D01*
X3010000Y4455000D02*
X3065000Y4510000D01*
X3010000Y4565000D01*
X2955000Y4510000D01*
X3010000Y4455000D01*
X3010000Y3805000D02*
X3065000Y3860000D01*
X3010000Y3915000D01*
X2955000Y3860000D01*
X3010000Y3805000D01*
X3460000Y4455000D02*
X3515000Y4510000D01*
X3460000Y4565000D01*
X3405000Y4510000D01*
X3460000Y4455000D01*
X3460000Y3805000D02*
X3515000Y3860000D01*
X3460000Y3915000D01*
X3405000Y3860000D01*
X3460000Y3805000D01*
X4096000Y2175000D02*
X4151000Y2230000D01*
X4096000Y2285000D01*
X4041000Y2230000D01*
X4096000Y2175000D01*
X4096000Y1921000D02*
X4151000Y1976000D01*
X4096000Y2031000D01*
X4041000Y1976000D01*
X4096000Y1921000D01*
D14*
X240000Y4760000D02*
X560000Y4440000D01*
X560000Y4760000D02*
X240000Y4440000D01*
X560000Y4600000D02*
G75*
G02*
X240000Y4600000I-160000J0D01*
G01*
X240000Y4600000D02*
G75*
G02*
X560000Y4600000I160000J0D01*
G01*
X240000Y560000D02*
X560000Y240000D01*
X560000Y560000D02*
X240000Y240000D01*
X560000Y400000D02*
G75*
G02*
X240000Y400000I-160000J0D01*
G01*
X240000Y400000D02*
G75*
G02*
X560000Y400000I160000J0D01*
G01*
X3940000Y4760000D02*
X4260000Y4440000D01*
X4260000Y4760000D02*
X3940000Y4440000D01*
X4260000Y4600000D02*
G75*
G02*
X3940000Y4600000I-160000J0D01*
G01*
X3940000Y4600000D02*
G75*
G02*
X4260000Y4600000I160000J0D01*
G01*
X3940000Y560000D02*
X4260000Y240000D01*
X4260000Y560000D02*
X3940000Y240000D01*
X4260000Y400000D02*
G75*
G02*
X3940000Y400000I-160000J0D01*
G01*
X3940000Y400000D02*
G75*
G02*
X4260000Y400000I160000J0D01*
G01*
D11*
X258277Y-313984D02*
X258277Y-113984D01*
X258277Y-113984D02*
X305896Y-113984D01*
X305896Y-113984D02*
X334467Y-123508D01*
X334467Y-123508D02*
X353515Y-142555D01*
X353515Y-142555D02*
X363039Y-161603D01*
X363039Y-161603D02*
X372562Y-199698D01*
X372562Y-199698D02*
X372562Y-228269D01*
X372562Y-228269D02*
X363039Y-266365D01*
X363039Y-266365D02*
X353515Y-285412D01*
X353515Y-285412D02*
X334467Y-304460D01*
X334467Y-304460D02*
X305896Y-313984D01*
X305896Y-313984D02*
X258277Y-313984D01*
X458277Y-313984D02*
X458277Y-180650D01*
X458277Y-218746D02*
X467801Y-199698D01*
X467801Y-199698D02*
X477324Y-190174D01*
X477324Y-190174D02*
X496372Y-180650D01*
X496372Y-180650D02*
X515420Y-180650D01*
X582086Y-313984D02*
X582086Y-180650D01*
X582086Y-113984D02*
X572563Y-123508D01*
X572563Y-123508D02*
X582086Y-133031D01*
X582086Y-133031D02*
X591610Y-123508D01*
X591610Y-123508D02*
X582086Y-113984D01*
X582086Y-113984D02*
X582086Y-133031D01*
X705896Y-313984D02*
X686848Y-304460D01*
X686848Y-304460D02*
X677324Y-285412D01*
X677324Y-285412D02*
X677324Y-113984D01*
X810658Y-313984D02*
X791610Y-304460D01*
X791610Y-304460D02*
X782086Y-285412D01*
X782086Y-285412D02*
X782086Y-113984D01*
X1039229Y-313984D02*
X1039229Y-113984D01*
X1039229Y-113984D02*
X1105896Y-256841D01*
X1105896Y-256841D02*
X1172563Y-113984D01*
X1172563Y-113984D02*
X1172563Y-313984D01*
X1353515Y-313984D02*
X1353515Y-209222D01*
X1353515Y-209222D02*
X1343991Y-190174D01*
X1343991Y-190174D02*
X1324944Y-180650D01*
X1324944Y-180650D02*
X1286848Y-180650D01*
X1286848Y-180650D02*
X1267801Y-190174D01*
X1353515Y-304460D02*
X1334467Y-313984D01*
X1334467Y-313984D02*
X1286848Y-313984D01*
X1286848Y-313984D02*
X1267801Y-304460D01*
X1267801Y-304460D02*
X1258277Y-285412D01*
X1258277Y-285412D02*
X1258277Y-266365D01*
X1258277Y-266365D02*
X1267801Y-247317D01*
X1267801Y-247317D02*
X1286848Y-237793D01*
X1286848Y-237793D02*
X1334467Y-237793D01*
X1334467Y-237793D02*
X1353515Y-228269D01*
X1448753Y-180650D02*
X1448753Y-380650D01*
X1448753Y-190174D02*
X1467801Y-180650D01*
X1467801Y-180650D02*
X1505896Y-180650D01*
X1505896Y-180650D02*
X1524943Y-190174D01*
X1524943Y-190174D02*
X1534467Y-199698D01*
X1534467Y-199698D02*
X1543991Y-218746D01*
X1543991Y-218746D02*
X1543991Y-275889D01*
X1543991Y-275889D02*
X1534467Y-294936D01*
X1534467Y-294936D02*
X1524943Y-304460D01*
X1524943Y-304460D02*
X1505896Y-313984D01*
X1505896Y-313984D02*
X1467801Y-313984D01*
X1467801Y-313984D02*
X1448753Y-304460D01*
X1629705Y-294936D02*
X1639229Y-304460D01*
X1639229Y-304460D02*
X1629705Y-313984D01*
X1629705Y-313984D02*
X1620182Y-304460D01*
X1620182Y-304460D02*
X1629705Y-294936D01*
X1629705Y-294936D02*
X1629705Y-313984D01*
X1629705Y-190174D02*
X1639229Y-199698D01*
X1639229Y-199698D02*
X1629705Y-209222D01*
X1629705Y-209222D02*
X1620182Y-199698D01*
X1620182Y-199698D02*
X1629705Y-190174D01*
X1629705Y-190174D02*
X1629705Y-209222D01*
D12*
X-22500Y-632500D02*
X-2500Y-652500D01*
X-2500Y-632500D02*
X-22500Y-652500D01*
D11*
X296372Y-533984D02*
X315420Y-533984D01*
X315420Y-533984D02*
X334467Y-543508D01*
X334467Y-543508D02*
X343991Y-553031D01*
X343991Y-553031D02*
X353515Y-572079D01*
X353515Y-572079D02*
X363039Y-610174D01*
X363039Y-610174D02*
X363039Y-657793D01*
X363039Y-657793D02*
X353515Y-695889D01*
X353515Y-695889D02*
X343991Y-714936D01*
X343991Y-714936D02*
X334467Y-724460D01*
X334467Y-724460D02*
X315420Y-733984D01*
X315420Y-733984D02*
X296372Y-733984D01*
X296372Y-733984D02*
X277324Y-724460D01*
X277324Y-724460D02*
X267801Y-714936D01*
X267801Y-714936D02*
X258277Y-695889D01*
X258277Y-695889D02*
X248753Y-657793D01*
X248753Y-657793D02*
X248753Y-610174D01*
X248753Y-610174D02*
X258277Y-572079D01*
X258277Y-572079D02*
X267801Y-553031D01*
X267801Y-553031D02*
X277324Y-543508D01*
X277324Y-543508D02*
X296372Y-533984D01*
X448753Y-714936D02*
X458277Y-724460D01*
X458277Y-724460D02*
X448753Y-733984D01*
X448753Y-733984D02*
X439229Y-724460D01*
X439229Y-724460D02*
X448753Y-714936D01*
X448753Y-714936D02*
X448753Y-733984D01*
X534467Y-553031D02*
X543991Y-543508D01*
X543991Y-543508D02*
X563039Y-533984D01*
X563039Y-533984D02*
X610658Y-533984D01*
X610658Y-533984D02*
X629705Y-543508D01*
X629705Y-543508D02*
X639229Y-553031D01*
X639229Y-553031D02*
X648753Y-572079D01*
X648753Y-572079D02*
X648753Y-591127D01*
X648753Y-591127D02*
X639229Y-619698D01*
X639229Y-619698D02*
X524944Y-733984D01*
X524944Y-733984D02*
X648753Y-733984D01*
X772562Y-533984D02*
X791610Y-533984D01*
X791610Y-533984D02*
X810658Y-543508D01*
X810658Y-543508D02*
X820182Y-553031D01*
X820182Y-553031D02*
X829705Y-572079D01*
X829705Y-572079D02*
X839229Y-610174D01*
X839229Y-610174D02*
X839229Y-657793D01*
X839229Y-657793D02*
X829705Y-695889D01*
X829705Y-695889D02*
X820182Y-714936D01*
X820182Y-714936D02*
X810658Y-724460D01*
X810658Y-724460D02*
X791610Y-733984D01*
X791610Y-733984D02*
X772562Y-733984D01*
X772562Y-733984D02*
X753515Y-724460D01*
X753515Y-724460D02*
X743991Y-714936D01*
X743991Y-714936D02*
X734467Y-695889D01*
X734467Y-695889D02*
X724943Y-657793D01*
X724943Y-657793D02*
X724943Y-610174D01*
X724943Y-610174D02*
X734467Y-572079D01*
X734467Y-572079D02*
X743991Y-553031D01*
X743991Y-553031D02*
X753515Y-543508D01*
X753515Y-543508D02*
X772562Y-533984D01*
X963039Y-533984D02*
X982086Y-533984D01*
X982086Y-533984D02*
X1001134Y-543508D01*
X1001134Y-543508D02*
X1010658Y-553031D01*
X1010658Y-553031D02*
X1020182Y-572079D01*
X1020182Y-572079D02*
X1029705Y-610174D01*
X1029705Y-610174D02*
X1029705Y-657793D01*
X1029705Y-657793D02*
X1020182Y-695889D01*
X1020182Y-695889D02*
X1010658Y-714936D01*
X1010658Y-714936D02*
X1001134Y-724460D01*
X1001134Y-724460D02*
X982086Y-733984D01*
X982086Y-733984D02*
X963039Y-733984D01*
X963039Y-733984D02*
X943991Y-724460D01*
X943991Y-724460D02*
X934467Y-714936D01*
X934467Y-714936D02*
X924943Y-695889D01*
X924943Y-695889D02*
X915420Y-657793D01*
X915420Y-657793D02*
X915420Y-610174D01*
X915420Y-610174D02*
X924943Y-572079D01*
X924943Y-572079D02*
X934467Y-553031D01*
X934467Y-553031D02*
X943991Y-543508D01*
X943991Y-543508D02*
X963039Y-533984D01*
X1115420Y-733984D02*
X1115420Y-600650D01*
X1115420Y-619698D02*
X1124944Y-610174D01*
X1124944Y-610174D02*
X1143991Y-600650D01*
X1143991Y-600650D02*
X1172563Y-600650D01*
X1172563Y-600650D02*
X1191610Y-610174D01*
X1191610Y-610174D02*
X1201134Y-629222D01*
X1201134Y-629222D02*
X1201134Y-733984D01*
X1201134Y-629222D02*
X1210658Y-610174D01*
X1210658Y-610174D02*
X1229705Y-600650D01*
X1229705Y-600650D02*
X1258277Y-600650D01*
X1258277Y-600650D02*
X1277325Y-610174D01*
X1277325Y-610174D02*
X1286848Y-629222D01*
X1286848Y-629222D02*
X1286848Y-733984D01*
X1382086Y-733984D02*
X1382086Y-600650D01*
X1382086Y-619698D02*
X1391610Y-610174D01*
X1391610Y-610174D02*
X1410658Y-600650D01*
X1410658Y-600650D02*
X1439229Y-600650D01*
X1439229Y-600650D02*
X1458277Y-610174D01*
X1458277Y-610174D02*
X1467801Y-629222D01*
X1467801Y-629222D02*
X1467801Y-733984D01*
X1467801Y-629222D02*
X1477324Y-610174D01*
X1477324Y-610174D02*
X1496372Y-600650D01*
X1496372Y-600650D02*
X1524943Y-600650D01*
X1524943Y-600650D02*
X1543991Y-610174D01*
X1543991Y-610174D02*
X1553515Y-629222D01*
X1553515Y-629222D02*
X1553515Y-733984D01*
X1943991Y-524460D02*
X1772563Y-781603D01*
X2201134Y-533984D02*
X2220182Y-533984D01*
X2220182Y-533984D02*
X2239229Y-543508D01*
X2239229Y-543508D02*
X2248753Y-553031D01*
X2248753Y-553031D02*
X2258277Y-572079D01*
X2258277Y-572079D02*
X2267801Y-610174D01*
X2267801Y-610174D02*
X2267801Y-657793D01*
X2267801Y-657793D02*
X2258277Y-695889D01*
X2258277Y-695889D02*
X2248753Y-714936D01*
X2248753Y-714936D02*
X2239229Y-724460D01*
X2239229Y-724460D02*
X2220182Y-733984D01*
X2220182Y-733984D02*
X2201134Y-733984D01*
X2201134Y-733984D02*
X2182087Y-724460D01*
X2182087Y-724460D02*
X2172563Y-714936D01*
X2172563Y-714936D02*
X2163039Y-695889D01*
X2163039Y-695889D02*
X2153515Y-657793D01*
X2153515Y-657793D02*
X2153515Y-610174D01*
X2153515Y-610174D02*
X2163039Y-572079D01*
X2163039Y-572079D02*
X2172563Y-553031D01*
X2172563Y-553031D02*
X2182087Y-543508D01*
X2182087Y-543508D02*
X2201134Y-533984D01*
X2353515Y-714936D02*
X2363039Y-724460D01*
X2363039Y-724460D02*
X2353515Y-733984D01*
X2353515Y-733984D02*
X2343991Y-724460D01*
X2343991Y-724460D02*
X2353515Y-714936D01*
X2353515Y-714936D02*
X2353515Y-733984D01*
X2486848Y-533984D02*
X2505896Y-533984D01*
X2505896Y-533984D02*
X2524944Y-543508D01*
X2524944Y-543508D02*
X2534468Y-553031D01*
X2534468Y-553031D02*
X2543991Y-572079D01*
X2543991Y-572079D02*
X2553515Y-610174D01*
X2553515Y-610174D02*
X2553515Y-657793D01*
X2553515Y-657793D02*
X2543991Y-695889D01*
X2543991Y-695889D02*
X2534468Y-714936D01*
X2534468Y-714936D02*
X2524944Y-724460D01*
X2524944Y-724460D02*
X2505896Y-733984D01*
X2505896Y-733984D02*
X2486848Y-733984D01*
X2486848Y-733984D02*
X2467801Y-724460D01*
X2467801Y-724460D02*
X2458277Y-714936D01*
X2458277Y-714936D02*
X2448753Y-695889D01*
X2448753Y-695889D02*
X2439229Y-657793D01*
X2439229Y-657793D02*
X2439229Y-610174D01*
X2439229Y-610174D02*
X2448753Y-572079D01*
X2448753Y-572079D02*
X2458277Y-553031D01*
X2458277Y-553031D02*
X2467801Y-543508D01*
X2467801Y-543508D02*
X2486848Y-533984D01*
X2677325Y-533984D02*
X2696372Y-533984D01*
X2696372Y-533984D02*
X2715420Y-543508D01*
X2715420Y-543508D02*
X2724944Y-553031D01*
X2724944Y-553031D02*
X2734468Y-572079D01*
X2734468Y-572079D02*
X2743991Y-610174D01*
X2743991Y-610174D02*
X2743991Y-657793D01*
X2743991Y-657793D02*
X2734468Y-695889D01*
X2734468Y-695889D02*
X2724944Y-714936D01*
X2724944Y-714936D02*
X2715420Y-724460D01*
X2715420Y-724460D02*
X2696372Y-733984D01*
X2696372Y-733984D02*
X2677325Y-733984D01*
X2677325Y-733984D02*
X2658277Y-724460D01*
X2658277Y-724460D02*
X2648753Y-714936D01*
X2648753Y-714936D02*
X2639229Y-695889D01*
X2639229Y-695889D02*
X2629706Y-657793D01*
X2629706Y-657793D02*
X2629706Y-610174D01*
X2629706Y-610174D02*
X2639229Y-572079D01*
X2639229Y-572079D02*
X2648753Y-553031D01*
X2648753Y-553031D02*
X2658277Y-543508D01*
X2658277Y-543508D02*
X2677325Y-533984D01*
X2810658Y-533984D02*
X2943991Y-533984D01*
X2943991Y-533984D02*
X2858277Y-733984D01*
X3029706Y-733984D02*
X3067801Y-733984D01*
X3067801Y-733984D02*
X3086848Y-724460D01*
X3086848Y-724460D02*
X3096372Y-714936D01*
X3096372Y-714936D02*
X3115420Y-686365D01*
X3115420Y-686365D02*
X3124944Y-648270D01*
X3124944Y-648270D02*
X3124944Y-572079D01*
X3124944Y-572079D02*
X3115420Y-553031D01*
X3115420Y-553031D02*
X3105896Y-543508D01*
X3105896Y-543508D02*
X3086848Y-533984D01*
X3086848Y-533984D02*
X3048753Y-533984D01*
X3048753Y-533984D02*
X3029706Y-543508D01*
X3029706Y-543508D02*
X3020182Y-553031D01*
X3020182Y-553031D02*
X3010658Y-572079D01*
X3010658Y-572079D02*
X3010658Y-619698D01*
X3010658Y-619698D02*
X3020182Y-638746D01*
X3020182Y-638746D02*
X3029706Y-648270D01*
X3029706Y-648270D02*
X3048753Y-657793D01*
X3048753Y-657793D02*
X3086848Y-657793D01*
X3086848Y-657793D02*
X3105896Y-648270D01*
X3105896Y-648270D02*
X3115420Y-638746D01*
X3115420Y-638746D02*
X3124944Y-619698D01*
X3201134Y-533984D02*
X3201134Y-572079D01*
X3277325Y-533984D02*
X3277325Y-572079D01*
X3572563Y-810174D02*
X3563039Y-800650D01*
X3563039Y-800650D02*
X3543991Y-772079D01*
X3543991Y-772079D02*
X3534468Y-753031D01*
X3534468Y-753031D02*
X3524944Y-724460D01*
X3524944Y-724460D02*
X3515420Y-676841D01*
X3515420Y-676841D02*
X3515420Y-638746D01*
X3515420Y-638746D02*
X3524944Y-591127D01*
X3524944Y-591127D02*
X3534468Y-562555D01*
X3534468Y-562555D02*
X3543991Y-543508D01*
X3543991Y-543508D02*
X3563039Y-514936D01*
X3563039Y-514936D02*
X3572563Y-505412D01*
X3639229Y-553031D02*
X3648753Y-543508D01*
X3648753Y-543508D02*
X3667801Y-533984D01*
X3667801Y-533984D02*
X3715420Y-533984D01*
X3715420Y-533984D02*
X3734468Y-543508D01*
X3734468Y-543508D02*
X3743991Y-553031D01*
X3743991Y-553031D02*
X3753515Y-572079D01*
X3753515Y-572079D02*
X3753515Y-591127D01*
X3753515Y-591127D02*
X3743991Y-619698D01*
X3743991Y-619698D02*
X3629706Y-733984D01*
X3629706Y-733984D02*
X3753515Y-733984D01*
X3991610Y-733984D02*
X3991610Y-533984D01*
X4077325Y-733984D02*
X4077325Y-629222D01*
X4077325Y-629222D02*
X4067801Y-610174D01*
X4067801Y-610174D02*
X4048753Y-600650D01*
X4048753Y-600650D02*
X4020182Y-600650D01*
X4020182Y-600650D02*
X4001134Y-610174D01*
X4001134Y-610174D02*
X3991610Y-619698D01*
X4201134Y-733984D02*
X4182087Y-724460D01*
X4182087Y-724460D02*
X4172563Y-714936D01*
X4172563Y-714936D02*
X4163039Y-695889D01*
X4163039Y-695889D02*
X4163039Y-638746D01*
X4163039Y-638746D02*
X4172563Y-619698D01*
X4172563Y-619698D02*
X4182087Y-610174D01*
X4182087Y-610174D02*
X4201134Y-600650D01*
X4201134Y-600650D02*
X4229706Y-600650D01*
X4229706Y-600650D02*
X4248753Y-610174D01*
X4248753Y-610174D02*
X4258277Y-619698D01*
X4258277Y-619698D02*
X4267801Y-638746D01*
X4267801Y-638746D02*
X4267801Y-695889D01*
X4267801Y-695889D02*
X4258277Y-714936D01*
X4258277Y-714936D02*
X4248753Y-724460D01*
X4248753Y-724460D02*
X4229706Y-733984D01*
X4229706Y-733984D02*
X4201134Y-733984D01*
X4382087Y-733984D02*
X4363039Y-724460D01*
X4363039Y-724460D02*
X4353515Y-705412D01*
X4353515Y-705412D02*
X4353515Y-533984D01*
X4534468Y-724460D02*
X4515420Y-733984D01*
X4515420Y-733984D02*
X4477325Y-733984D01*
X4477325Y-733984D02*
X4458277Y-724460D01*
X4458277Y-724460D02*
X4448753Y-705412D01*
X4448753Y-705412D02*
X4448753Y-629222D01*
X4448753Y-629222D02*
X4458277Y-610174D01*
X4458277Y-610174D02*
X4477325Y-600650D01*
X4477325Y-600650D02*
X4515420Y-600650D01*
X4515420Y-600650D02*
X4534468Y-610174D01*
X4534468Y-610174D02*
X4543992Y-629222D01*
X4543992Y-629222D02*
X4543992Y-648270D01*
X4543992Y-648270D02*
X4448753Y-667317D01*
X4620182Y-724460D02*
X4639230Y-733984D01*
X4639230Y-733984D02*
X4677325Y-733984D01*
X4677325Y-733984D02*
X4696373Y-724460D01*
X4696373Y-724460D02*
X4705896Y-705412D01*
X4705896Y-705412D02*
X4705896Y-695889D01*
X4705896Y-695889D02*
X4696373Y-676841D01*
X4696373Y-676841D02*
X4677325Y-667317D01*
X4677325Y-667317D02*
X4648753Y-667317D01*
X4648753Y-667317D02*
X4629706Y-657793D01*
X4629706Y-657793D02*
X4620182Y-638746D01*
X4620182Y-638746D02*
X4620182Y-629222D01*
X4620182Y-629222D02*
X4629706Y-610174D01*
X4629706Y-610174D02*
X4648753Y-600650D01*
X4648753Y-600650D02*
X4677325Y-600650D01*
X4677325Y-600650D02*
X4696373Y-610174D01*
X4772563Y-810174D02*
X4782087Y-800650D01*
X4782087Y-800650D02*
X4801134Y-772079D01*
X4801134Y-772079D02*
X4810658Y-753031D01*
X4810658Y-753031D02*
X4820182Y-724460D01*
X4820182Y-724460D02*
X4829706Y-676841D01*
X4829706Y-676841D02*
X4829706Y-638746D01*
X4829706Y-638746D02*
X4820182Y-591127D01*
X4820182Y-591127D02*
X4810658Y-562555D01*
X4810658Y-562555D02*
X4801134Y-543508D01*
X4801134Y-543508D02*
X4782087Y-514936D01*
X4782087Y-514936D02*
X4772563Y-505412D01*
D12*
X-2500Y-906500D02*
G75*
G02*
X-32500Y-906500I-15000J0D01*
G01*
X-32500Y-906500D02*
G75*
G02*
X-2500Y-906500I15000J0D01*
G01*
D11*
X296372Y-797984D02*
X315420Y-797984D01*
X315420Y-797984D02*
X334467Y-807508D01*
X334467Y-807508D02*
X343991Y-817031D01*
X343991Y-817031D02*
X353515Y-836079D01*
X353515Y-836079D02*
X363039Y-874174D01*
X363039Y-874174D02*
X363039Y-921793D01*
X363039Y-921793D02*
X353515Y-959888D01*
X353515Y-959888D02*
X343991Y-978936D01*
X343991Y-978936D02*
X334467Y-988460D01*
X334467Y-988460D02*
X315420Y-997984D01*
X315420Y-997984D02*
X296372Y-997984D01*
X296372Y-997984D02*
X277324Y-988460D01*
X277324Y-988460D02*
X267801Y-978936D01*
X267801Y-978936D02*
X258277Y-959888D01*
X258277Y-959888D02*
X248753Y-921793D01*
X248753Y-921793D02*
X248753Y-874174D01*
X248753Y-874174D02*
X258277Y-836079D01*
X258277Y-836079D02*
X267801Y-817031D01*
X267801Y-817031D02*
X277324Y-807508D01*
X277324Y-807508D02*
X296372Y-797984D01*
X448753Y-978936D02*
X458277Y-988460D01*
X458277Y-988460D02*
X448753Y-997984D01*
X448753Y-997984D02*
X439229Y-988460D01*
X439229Y-988460D02*
X448753Y-978936D01*
X448753Y-978936D02*
X448753Y-997984D01*
X524944Y-797984D02*
X648753Y-797984D01*
X648753Y-797984D02*
X582086Y-874174D01*
X582086Y-874174D02*
X610658Y-874174D01*
X610658Y-874174D02*
X629705Y-883698D01*
X629705Y-883698D02*
X639229Y-893222D01*
X639229Y-893222D02*
X648753Y-912269D01*
X648753Y-912269D02*
X648753Y-959888D01*
X648753Y-959888D02*
X639229Y-978936D01*
X639229Y-978936D02*
X629705Y-988460D01*
X629705Y-988460D02*
X610658Y-997984D01*
X610658Y-997984D02*
X553515Y-997984D01*
X553515Y-997984D02*
X534467Y-988460D01*
X534467Y-988460D02*
X524944Y-978936D01*
X772562Y-797984D02*
X791610Y-797984D01*
X791610Y-797984D02*
X810658Y-807508D01*
X810658Y-807508D02*
X820182Y-817031D01*
X820182Y-817031D02*
X829705Y-836079D01*
X829705Y-836079D02*
X839229Y-874174D01*
X839229Y-874174D02*
X839229Y-921793D01*
X839229Y-921793D02*
X829705Y-959888D01*
X829705Y-959888D02*
X820182Y-978936D01*
X820182Y-978936D02*
X810658Y-988460D01*
X810658Y-988460D02*
X791610Y-997984D01*
X791610Y-997984D02*
X772562Y-997984D01*
X772562Y-997984D02*
X753515Y-988460D01*
X753515Y-988460D02*
X743991Y-978936D01*
X743991Y-978936D02*
X734467Y-959888D01*
X734467Y-959888D02*
X724943Y-921793D01*
X724943Y-921793D02*
X724943Y-874174D01*
X724943Y-874174D02*
X734467Y-836079D01*
X734467Y-836079D02*
X743991Y-817031D01*
X743991Y-817031D02*
X753515Y-807508D01*
X753515Y-807508D02*
X772562Y-797984D01*
X963039Y-797984D02*
X982086Y-797984D01*
X982086Y-797984D02*
X1001134Y-807508D01*
X1001134Y-807508D02*
X1010658Y-817031D01*
X1010658Y-817031D02*
X1020182Y-836079D01*
X1020182Y-836079D02*
X1029705Y-874174D01*
X1029705Y-874174D02*
X1029705Y-921793D01*
X1029705Y-921793D02*
X1020182Y-959888D01*
X1020182Y-959888D02*
X1010658Y-978936D01*
X1010658Y-978936D02*
X1001134Y-988460D01*
X1001134Y-988460D02*
X982086Y-997984D01*
X982086Y-997984D02*
X963039Y-997984D01*
X963039Y-997984D02*
X943991Y-988460D01*
X943991Y-988460D02*
X934467Y-978936D01*
X934467Y-978936D02*
X924943Y-959888D01*
X924943Y-959888D02*
X915420Y-921793D01*
X915420Y-921793D02*
X915420Y-874174D01*
X915420Y-874174D02*
X924943Y-836079D01*
X924943Y-836079D02*
X934467Y-817031D01*
X934467Y-817031D02*
X943991Y-807508D01*
X943991Y-807508D02*
X963039Y-797984D01*
X1115420Y-997984D02*
X1115420Y-864650D01*
X1115420Y-883698D02*
X1124944Y-874174D01*
X1124944Y-874174D02*
X1143991Y-864650D01*
X1143991Y-864650D02*
X1172563Y-864650D01*
X1172563Y-864650D02*
X1191610Y-874174D01*
X1191610Y-874174D02*
X1201134Y-893222D01*
X1201134Y-893222D02*
X1201134Y-997984D01*
X1201134Y-893222D02*
X1210658Y-874174D01*
X1210658Y-874174D02*
X1229705Y-864650D01*
X1229705Y-864650D02*
X1258277Y-864650D01*
X1258277Y-864650D02*
X1277325Y-874174D01*
X1277325Y-874174D02*
X1286848Y-893222D01*
X1286848Y-893222D02*
X1286848Y-997984D01*
X1382086Y-997984D02*
X1382086Y-864650D01*
X1382086Y-883698D02*
X1391610Y-874174D01*
X1391610Y-874174D02*
X1410658Y-864650D01*
X1410658Y-864650D02*
X1439229Y-864650D01*
X1439229Y-864650D02*
X1458277Y-874174D01*
X1458277Y-874174D02*
X1467801Y-893222D01*
X1467801Y-893222D02*
X1467801Y-997984D01*
X1467801Y-893222D02*
X1477324Y-874174D01*
X1477324Y-874174D02*
X1496372Y-864650D01*
X1496372Y-864650D02*
X1524943Y-864650D01*
X1524943Y-864650D02*
X1543991Y-874174D01*
X1543991Y-874174D02*
X1553515Y-893222D01*
X1553515Y-893222D02*
X1553515Y-997984D01*
X1943991Y-788460D02*
X1772563Y-1045603D01*
X2201134Y-797984D02*
X2220182Y-797984D01*
X2220182Y-797984D02*
X2239229Y-807508D01*
X2239229Y-807508D02*
X2248753Y-817031D01*
X2248753Y-817031D02*
X2258277Y-836079D01*
X2258277Y-836079D02*
X2267801Y-874174D01*
X2267801Y-874174D02*
X2267801Y-921793D01*
X2267801Y-921793D02*
X2258277Y-959888D01*
X2258277Y-959888D02*
X2248753Y-978936D01*
X2248753Y-978936D02*
X2239229Y-988460D01*
X2239229Y-988460D02*
X2220182Y-997984D01*
X2220182Y-997984D02*
X2201134Y-997984D01*
X2201134Y-997984D02*
X2182087Y-988460D01*
X2182087Y-988460D02*
X2172563Y-978936D01*
X2172563Y-978936D02*
X2163039Y-959888D01*
X2163039Y-959888D02*
X2153515Y-921793D01*
X2153515Y-921793D02*
X2153515Y-874174D01*
X2153515Y-874174D02*
X2163039Y-836079D01*
X2163039Y-836079D02*
X2172563Y-817031D01*
X2172563Y-817031D02*
X2182087Y-807508D01*
X2182087Y-807508D02*
X2201134Y-797984D01*
X2353515Y-978936D02*
X2363039Y-988460D01*
X2363039Y-988460D02*
X2353515Y-997984D01*
X2353515Y-997984D02*
X2343991Y-988460D01*
X2343991Y-988460D02*
X2353515Y-978936D01*
X2353515Y-978936D02*
X2353515Y-997984D01*
X2486848Y-797984D02*
X2505896Y-797984D01*
X2505896Y-797984D02*
X2524944Y-807508D01*
X2524944Y-807508D02*
X2534468Y-817031D01*
X2534468Y-817031D02*
X2543991Y-836079D01*
X2543991Y-836079D02*
X2553515Y-874174D01*
X2553515Y-874174D02*
X2553515Y-921793D01*
X2553515Y-921793D02*
X2543991Y-959888D01*
X2543991Y-959888D02*
X2534468Y-978936D01*
X2534468Y-978936D02*
X2524944Y-988460D01*
X2524944Y-988460D02*
X2505896Y-997984D01*
X2505896Y-997984D02*
X2486848Y-997984D01*
X2486848Y-997984D02*
X2467801Y-988460D01*
X2467801Y-988460D02*
X2458277Y-978936D01*
X2458277Y-978936D02*
X2448753Y-959888D01*
X2448753Y-959888D02*
X2439229Y-921793D01*
X2439229Y-921793D02*
X2439229Y-874174D01*
X2439229Y-874174D02*
X2448753Y-836079D01*
X2448753Y-836079D02*
X2458277Y-817031D01*
X2458277Y-817031D02*
X2467801Y-807508D01*
X2467801Y-807508D02*
X2486848Y-797984D01*
X2743991Y-997984D02*
X2629706Y-997984D01*
X2686848Y-997984D02*
X2686848Y-797984D01*
X2686848Y-797984D02*
X2667801Y-826555D01*
X2667801Y-826555D02*
X2648753Y-845603D01*
X2648753Y-845603D02*
X2629706Y-855127D01*
X2934467Y-997984D02*
X2820182Y-997984D01*
X2877325Y-997984D02*
X2877325Y-797984D01*
X2877325Y-797984D02*
X2858277Y-826555D01*
X2858277Y-826555D02*
X2839229Y-845603D01*
X2839229Y-845603D02*
X2820182Y-855127D01*
X3048753Y-883698D02*
X3029706Y-874174D01*
X3029706Y-874174D02*
X3020182Y-864650D01*
X3020182Y-864650D02*
X3010658Y-845603D01*
X3010658Y-845603D02*
X3010658Y-836079D01*
X3010658Y-836079D02*
X3020182Y-817031D01*
X3020182Y-817031D02*
X3029706Y-807508D01*
X3029706Y-807508D02*
X3048753Y-797984D01*
X3048753Y-797984D02*
X3086848Y-797984D01*
X3086848Y-797984D02*
X3105896Y-807508D01*
X3105896Y-807508D02*
X3115420Y-817031D01*
X3115420Y-817031D02*
X3124944Y-836079D01*
X3124944Y-836079D02*
X3124944Y-845603D01*
X3124944Y-845603D02*
X3115420Y-864650D01*
X3115420Y-864650D02*
X3105896Y-874174D01*
X3105896Y-874174D02*
X3086848Y-883698D01*
X3086848Y-883698D02*
X3048753Y-883698D01*
X3048753Y-883698D02*
X3029706Y-893222D01*
X3029706Y-893222D02*
X3020182Y-902746D01*
X3020182Y-902746D02*
X3010658Y-921793D01*
X3010658Y-921793D02*
X3010658Y-959888D01*
X3010658Y-959888D02*
X3020182Y-978936D01*
X3020182Y-978936D02*
X3029706Y-988460D01*
X3029706Y-988460D02*
X3048753Y-997984D01*
X3048753Y-997984D02*
X3086848Y-997984D01*
X3086848Y-997984D02*
X3105896Y-988460D01*
X3105896Y-988460D02*
X3115420Y-978936D01*
X3115420Y-978936D02*
X3124944Y-959888D01*
X3124944Y-959888D02*
X3124944Y-921793D01*
X3124944Y-921793D02*
X3115420Y-902746D01*
X3115420Y-902746D02*
X3105896Y-893222D01*
X3105896Y-893222D02*
X3086848Y-883698D01*
X3201134Y-797984D02*
X3201134Y-836079D01*
X3277325Y-797984D02*
X3277325Y-836079D01*
X3572563Y-1074174D02*
X3563039Y-1064650D01*
X3563039Y-1064650D02*
X3543991Y-1036079D01*
X3543991Y-1036079D02*
X3534468Y-1017031D01*
X3534468Y-1017031D02*
X3524944Y-988460D01*
X3524944Y-988460D02*
X3515420Y-940841D01*
X3515420Y-940841D02*
X3515420Y-902746D01*
X3515420Y-902746D02*
X3524944Y-855127D01*
X3524944Y-855127D02*
X3534468Y-826555D01*
X3534468Y-826555D02*
X3543991Y-807508D01*
X3543991Y-807508D02*
X3563039Y-778936D01*
X3563039Y-778936D02*
X3572563Y-769412D01*
X3639229Y-817031D02*
X3648753Y-807508D01*
X3648753Y-807508D02*
X3667801Y-797984D01*
X3667801Y-797984D02*
X3715420Y-797984D01*
X3715420Y-797984D02*
X3734468Y-807508D01*
X3734468Y-807508D02*
X3743991Y-817031D01*
X3743991Y-817031D02*
X3753515Y-836079D01*
X3753515Y-836079D02*
X3753515Y-855127D01*
X3753515Y-855127D02*
X3743991Y-883698D01*
X3743991Y-883698D02*
X3629706Y-997984D01*
X3629706Y-997984D02*
X3753515Y-997984D01*
X3848753Y-997984D02*
X3886848Y-997984D01*
X3886848Y-997984D02*
X3905896Y-988460D01*
X3905896Y-988460D02*
X3915420Y-978936D01*
X3915420Y-978936D02*
X3934468Y-950365D01*
X3934468Y-950365D02*
X3943991Y-912269D01*
X3943991Y-912269D02*
X3943991Y-836079D01*
X3943991Y-836079D02*
X3934468Y-817031D01*
X3934468Y-817031D02*
X3924944Y-807508D01*
X3924944Y-807508D02*
X3905896Y-797984D01*
X3905896Y-797984D02*
X3867801Y-797984D01*
X3867801Y-797984D02*
X3848753Y-807508D01*
X3848753Y-807508D02*
X3839229Y-817031D01*
X3839229Y-817031D02*
X3829706Y-836079D01*
X3829706Y-836079D02*
X3829706Y-883698D01*
X3829706Y-883698D02*
X3839229Y-902746D01*
X3839229Y-902746D02*
X3848753Y-912269D01*
X3848753Y-912269D02*
X3867801Y-921793D01*
X3867801Y-921793D02*
X3905896Y-921793D01*
X3905896Y-921793D02*
X3924944Y-912269D01*
X3924944Y-912269D02*
X3934468Y-902746D01*
X3934468Y-902746D02*
X3943991Y-883698D01*
X4182087Y-997984D02*
X4182087Y-797984D01*
X4267801Y-997984D02*
X4267801Y-893222D01*
X4267801Y-893222D02*
X4258277Y-874174D01*
X4258277Y-874174D02*
X4239230Y-864650D01*
X4239230Y-864650D02*
X4210658Y-864650D01*
X4210658Y-864650D02*
X4191610Y-874174D01*
X4191610Y-874174D02*
X4182087Y-883698D01*
X4391611Y-997984D02*
X4372563Y-988460D01*
X4372563Y-988460D02*
X4363039Y-978936D01*
X4363039Y-978936D02*
X4353515Y-959888D01*
X4353515Y-959888D02*
X4353515Y-902746D01*
X4353515Y-902746D02*
X4363039Y-883698D01*
X4363039Y-883698D02*
X4372563Y-874174D01*
X4372563Y-874174D02*
X4391611Y-864650D01*
X4391611Y-864650D02*
X4420182Y-864650D01*
X4420182Y-864650D02*
X4439230Y-874174D01*
X4439230Y-874174D02*
X4448753Y-883698D01*
X4448753Y-883698D02*
X4458277Y-902746D01*
X4458277Y-902746D02*
X4458277Y-959888D01*
X4458277Y-959888D02*
X4448753Y-978936D01*
X4448753Y-978936D02*
X4439230Y-988460D01*
X4439230Y-988460D02*
X4420182Y-997984D01*
X4420182Y-997984D02*
X4391611Y-997984D01*
X4572563Y-997984D02*
X4553515Y-988460D01*
X4553515Y-988460D02*
X4543992Y-969412D01*
X4543992Y-969412D02*
X4543992Y-797984D01*
X4724944Y-988460D02*
X4705896Y-997984D01*
X4705896Y-997984D02*
X4667801Y-997984D01*
X4667801Y-997984D02*
X4648753Y-988460D01*
X4648753Y-988460D02*
X4639230Y-969412D01*
X4639230Y-969412D02*
X4639230Y-893222D01*
X4639230Y-893222D02*
X4648753Y-874174D01*
X4648753Y-874174D02*
X4667801Y-864650D01*
X4667801Y-864650D02*
X4705896Y-864650D01*
X4705896Y-864650D02*
X4724944Y-874174D01*
X4724944Y-874174D02*
X4734468Y-893222D01*
X4734468Y-893222D02*
X4734468Y-912269D01*
X4734468Y-912269D02*
X4639230Y-931317D01*
X4810658Y-988460D02*
X4829706Y-997984D01*
X4829706Y-997984D02*
X4867801Y-997984D01*
X4867801Y-997984D02*
X4886849Y-988460D01*
X4886849Y-988460D02*
X4896373Y-969412D01*
X4896373Y-969412D02*
X4896373Y-959888D01*
X4896373Y-959888D02*
X4886849Y-940841D01*
X4886849Y-940841D02*
X4867801Y-931317D01*
X4867801Y-931317D02*
X4839230Y-931317D01*
X4839230Y-931317D02*
X4820182Y-921793D01*
X4820182Y-921793D02*
X4810658Y-902746D01*
X4810658Y-902746D02*
X4810658Y-893222D01*
X4810658Y-893222D02*
X4820182Y-874174D01*
X4820182Y-874174D02*
X4839230Y-864650D01*
X4839230Y-864650D02*
X4867801Y-864650D01*
X4867801Y-864650D02*
X4886849Y-874174D01*
X4963039Y-1074174D02*
X4972563Y-1064650D01*
X4972563Y-1064650D02*
X4991611Y-1036079D01*
X4991611Y-1036079D02*
X5001134Y-1017031D01*
X5001134Y-1017031D02*
X5010658Y-988460D01*
X5010658Y-988460D02*
X5020182Y-940841D01*
X5020182Y-940841D02*
X5020182Y-902746D01*
X5020182Y-902746D02*
X5010658Y-855127D01*
X5010658Y-855127D02*
X5001134Y-826555D01*
X5001134Y-826555D02*
X4991611Y-807508D01*
X4991611Y-807508D02*
X4972563Y-778936D01*
X4972563Y-778936D02*
X4963039Y-769412D01*
D12*
X-27500Y-1145500D02*
X-27500Y-1195500D01*
X-52500Y-1170500D02*
X-2500Y-1170500D01*
D11*
X296372Y-1061984D02*
X315420Y-1061984D01*
X315420Y-1061984D02*
X334467Y-1071508D01*
X334467Y-1071508D02*
X343991Y-1081031D01*
X343991Y-1081031D02*
X353515Y-1100079D01*
X353515Y-1100079D02*
X363039Y-1138174D01*
X363039Y-1138174D02*
X363039Y-1185793D01*
X363039Y-1185793D02*
X353515Y-1223889D01*
X353515Y-1223889D02*
X343991Y-1242936D01*
X343991Y-1242936D02*
X334467Y-1252460D01*
X334467Y-1252460D02*
X315420Y-1261984D01*
X315420Y-1261984D02*
X296372Y-1261984D01*
X296372Y-1261984D02*
X277324Y-1252460D01*
X277324Y-1252460D02*
X267801Y-1242936D01*
X267801Y-1242936D02*
X258277Y-1223889D01*
X258277Y-1223889D02*
X248753Y-1185793D01*
X248753Y-1185793D02*
X248753Y-1138174D01*
X248753Y-1138174D02*
X258277Y-1100079D01*
X258277Y-1100079D02*
X267801Y-1081031D01*
X267801Y-1081031D02*
X277324Y-1071508D01*
X277324Y-1071508D02*
X296372Y-1061984D01*
X448753Y-1242936D02*
X458277Y-1252460D01*
X458277Y-1252460D02*
X448753Y-1261984D01*
X448753Y-1261984D02*
X439229Y-1252460D01*
X439229Y-1252460D02*
X448753Y-1242936D01*
X448753Y-1242936D02*
X448753Y-1261984D01*
X639229Y-1061984D02*
X543991Y-1061984D01*
X543991Y-1061984D02*
X534467Y-1157222D01*
X534467Y-1157222D02*
X543991Y-1147698D01*
X543991Y-1147698D02*
X563039Y-1138174D01*
X563039Y-1138174D02*
X610658Y-1138174D01*
X610658Y-1138174D02*
X629705Y-1147698D01*
X629705Y-1147698D02*
X639229Y-1157222D01*
X639229Y-1157222D02*
X648753Y-1176270D01*
X648753Y-1176270D02*
X648753Y-1223889D01*
X648753Y-1223889D02*
X639229Y-1242936D01*
X639229Y-1242936D02*
X629705Y-1252460D01*
X629705Y-1252460D02*
X610658Y-1261984D01*
X610658Y-1261984D02*
X563039Y-1261984D01*
X563039Y-1261984D02*
X543991Y-1252460D01*
X543991Y-1252460D02*
X534467Y-1242936D01*
X772562Y-1061984D02*
X791610Y-1061984D01*
X791610Y-1061984D02*
X810658Y-1071508D01*
X810658Y-1071508D02*
X820182Y-1081031D01*
X820182Y-1081031D02*
X829705Y-1100079D01*
X829705Y-1100079D02*
X839229Y-1138174D01*
X839229Y-1138174D02*
X839229Y-1185793D01*
X839229Y-1185793D02*
X829705Y-1223889D01*
X829705Y-1223889D02*
X820182Y-1242936D01*
X820182Y-1242936D02*
X810658Y-1252460D01*
X810658Y-1252460D02*
X791610Y-1261984D01*
X791610Y-1261984D02*
X772562Y-1261984D01*
X772562Y-1261984D02*
X753515Y-1252460D01*
X753515Y-1252460D02*
X743991Y-1242936D01*
X743991Y-1242936D02*
X734467Y-1223889D01*
X734467Y-1223889D02*
X724943Y-1185793D01*
X724943Y-1185793D02*
X724943Y-1138174D01*
X724943Y-1138174D02*
X734467Y-1100079D01*
X734467Y-1100079D02*
X743991Y-1081031D01*
X743991Y-1081031D02*
X753515Y-1071508D01*
X753515Y-1071508D02*
X772562Y-1061984D01*
X963039Y-1061984D02*
X982086Y-1061984D01*
X982086Y-1061984D02*
X1001134Y-1071508D01*
X1001134Y-1071508D02*
X1010658Y-1081031D01*
X1010658Y-1081031D02*
X1020182Y-1100079D01*
X1020182Y-1100079D02*
X1029705Y-1138174D01*
X1029705Y-1138174D02*
X1029705Y-1185793D01*
X1029705Y-1185793D02*
X1020182Y-1223889D01*
X1020182Y-1223889D02*
X1010658Y-1242936D01*
X1010658Y-1242936D02*
X1001134Y-1252460D01*
X1001134Y-1252460D02*
X982086Y-1261984D01*
X982086Y-1261984D02*
X963039Y-1261984D01*
X963039Y-1261984D02*
X943991Y-1252460D01*
X943991Y-1252460D02*
X934467Y-1242936D01*
X934467Y-1242936D02*
X924943Y-1223889D01*
X924943Y-1223889D02*
X915420Y-1185793D01*
X915420Y-1185793D02*
X915420Y-1138174D01*
X915420Y-1138174D02*
X924943Y-1100079D01*
X924943Y-1100079D02*
X934467Y-1081031D01*
X934467Y-1081031D02*
X943991Y-1071508D01*
X943991Y-1071508D02*
X963039Y-1061984D01*
X1115420Y-1261984D02*
X1115420Y-1128650D01*
X1115420Y-1147698D02*
X1124944Y-1138174D01*
X1124944Y-1138174D02*
X1143991Y-1128650D01*
X1143991Y-1128650D02*
X1172563Y-1128650D01*
X1172563Y-1128650D02*
X1191610Y-1138174D01*
X1191610Y-1138174D02*
X1201134Y-1157222D01*
X1201134Y-1157222D02*
X1201134Y-1261984D01*
X1201134Y-1157222D02*
X1210658Y-1138174D01*
X1210658Y-1138174D02*
X1229705Y-1128650D01*
X1229705Y-1128650D02*
X1258277Y-1128650D01*
X1258277Y-1128650D02*
X1277325Y-1138174D01*
X1277325Y-1138174D02*
X1286848Y-1157222D01*
X1286848Y-1157222D02*
X1286848Y-1261984D01*
X1382086Y-1261984D02*
X1382086Y-1128650D01*
X1382086Y-1147698D02*
X1391610Y-1138174D01*
X1391610Y-1138174D02*
X1410658Y-1128650D01*
X1410658Y-1128650D02*
X1439229Y-1128650D01*
X1439229Y-1128650D02*
X1458277Y-1138174D01*
X1458277Y-1138174D02*
X1467801Y-1157222D01*
X1467801Y-1157222D02*
X1467801Y-1261984D01*
X1467801Y-1157222D02*
X1477324Y-1138174D01*
X1477324Y-1138174D02*
X1496372Y-1128650D01*
X1496372Y-1128650D02*
X1524943Y-1128650D01*
X1524943Y-1128650D02*
X1543991Y-1138174D01*
X1543991Y-1138174D02*
X1553515Y-1157222D01*
X1553515Y-1157222D02*
X1553515Y-1261984D01*
X1943991Y-1052460D02*
X1772563Y-1309603D01*
X2201134Y-1061984D02*
X2220182Y-1061984D01*
X2220182Y-1061984D02*
X2239229Y-1071508D01*
X2239229Y-1071508D02*
X2248753Y-1081031D01*
X2248753Y-1081031D02*
X2258277Y-1100079D01*
X2258277Y-1100079D02*
X2267801Y-1138174D01*
X2267801Y-1138174D02*
X2267801Y-1185793D01*
X2267801Y-1185793D02*
X2258277Y-1223889D01*
X2258277Y-1223889D02*
X2248753Y-1242936D01*
X2248753Y-1242936D02*
X2239229Y-1252460D01*
X2239229Y-1252460D02*
X2220182Y-1261984D01*
X2220182Y-1261984D02*
X2201134Y-1261984D01*
X2201134Y-1261984D02*
X2182087Y-1252460D01*
X2182087Y-1252460D02*
X2172563Y-1242936D01*
X2172563Y-1242936D02*
X2163039Y-1223889D01*
X2163039Y-1223889D02*
X2153515Y-1185793D01*
X2153515Y-1185793D02*
X2153515Y-1138174D01*
X2153515Y-1138174D02*
X2163039Y-1100079D01*
X2163039Y-1100079D02*
X2172563Y-1081031D01*
X2172563Y-1081031D02*
X2182087Y-1071508D01*
X2182087Y-1071508D02*
X2201134Y-1061984D01*
X2353515Y-1242936D02*
X2363039Y-1252460D01*
X2363039Y-1252460D02*
X2353515Y-1261984D01*
X2353515Y-1261984D02*
X2343991Y-1252460D01*
X2343991Y-1252460D02*
X2353515Y-1242936D01*
X2353515Y-1242936D02*
X2353515Y-1261984D01*
X2486848Y-1061984D02*
X2505896Y-1061984D01*
X2505896Y-1061984D02*
X2524944Y-1071508D01*
X2524944Y-1071508D02*
X2534468Y-1081031D01*
X2534468Y-1081031D02*
X2543991Y-1100079D01*
X2543991Y-1100079D02*
X2553515Y-1138174D01*
X2553515Y-1138174D02*
X2553515Y-1185793D01*
X2553515Y-1185793D02*
X2543991Y-1223889D01*
X2543991Y-1223889D02*
X2534468Y-1242936D01*
X2534468Y-1242936D02*
X2524944Y-1252460D01*
X2524944Y-1252460D02*
X2505896Y-1261984D01*
X2505896Y-1261984D02*
X2486848Y-1261984D01*
X2486848Y-1261984D02*
X2467801Y-1252460D01*
X2467801Y-1252460D02*
X2458277Y-1242936D01*
X2458277Y-1242936D02*
X2448753Y-1223889D01*
X2448753Y-1223889D02*
X2439229Y-1185793D01*
X2439229Y-1185793D02*
X2439229Y-1138174D01*
X2439229Y-1138174D02*
X2448753Y-1100079D01*
X2448753Y-1100079D02*
X2458277Y-1081031D01*
X2458277Y-1081031D02*
X2467801Y-1071508D01*
X2467801Y-1071508D02*
X2486848Y-1061984D01*
X2743991Y-1261984D02*
X2629706Y-1261984D01*
X2686848Y-1261984D02*
X2686848Y-1061984D01*
X2686848Y-1061984D02*
X2667801Y-1090555D01*
X2667801Y-1090555D02*
X2648753Y-1109603D01*
X2648753Y-1109603D02*
X2629706Y-1119127D01*
X2839229Y-1261984D02*
X2877325Y-1261984D01*
X2877325Y-1261984D02*
X2896372Y-1252460D01*
X2896372Y-1252460D02*
X2905896Y-1242936D01*
X2905896Y-1242936D02*
X2924944Y-1214365D01*
X2924944Y-1214365D02*
X2934467Y-1176270D01*
X2934467Y-1176270D02*
X2934467Y-1100079D01*
X2934467Y-1100079D02*
X2924944Y-1081031D01*
X2924944Y-1081031D02*
X2915420Y-1071508D01*
X2915420Y-1071508D02*
X2896372Y-1061984D01*
X2896372Y-1061984D02*
X2858277Y-1061984D01*
X2858277Y-1061984D02*
X2839229Y-1071508D01*
X2839229Y-1071508D02*
X2829706Y-1081031D01*
X2829706Y-1081031D02*
X2820182Y-1100079D01*
X2820182Y-1100079D02*
X2820182Y-1147698D01*
X2820182Y-1147698D02*
X2829706Y-1166746D01*
X2829706Y-1166746D02*
X2839229Y-1176270D01*
X2839229Y-1176270D02*
X2858277Y-1185793D01*
X2858277Y-1185793D02*
X2896372Y-1185793D01*
X2896372Y-1185793D02*
X2915420Y-1176270D01*
X2915420Y-1176270D02*
X2924944Y-1166746D01*
X2924944Y-1166746D02*
X2934467Y-1147698D01*
X3001134Y-1061984D02*
X3134467Y-1061984D01*
X3134467Y-1061984D02*
X3048753Y-1261984D01*
X3201134Y-1061984D02*
X3201134Y-1100079D01*
X3277325Y-1061984D02*
X3277325Y-1100079D01*
X3572563Y-1338174D02*
X3563039Y-1328650D01*
X3563039Y-1328650D02*
X3543991Y-1300079D01*
X3543991Y-1300079D02*
X3534468Y-1281031D01*
X3534468Y-1281031D02*
X3524944Y-1252460D01*
X3524944Y-1252460D02*
X3515420Y-1204841D01*
X3515420Y-1204841D02*
X3515420Y-1166746D01*
X3515420Y-1166746D02*
X3524944Y-1119127D01*
X3524944Y-1119127D02*
X3534468Y-1090555D01*
X3534468Y-1090555D02*
X3543991Y-1071508D01*
X3543991Y-1071508D02*
X3563039Y-1042936D01*
X3563039Y-1042936D02*
X3572563Y-1033412D01*
X3629706Y-1061984D02*
X3753515Y-1061984D01*
X3753515Y-1061984D02*
X3686848Y-1138174D01*
X3686848Y-1138174D02*
X3715420Y-1138174D01*
X3715420Y-1138174D02*
X3734468Y-1147698D01*
X3734468Y-1147698D02*
X3743991Y-1157222D01*
X3743991Y-1157222D02*
X3753515Y-1176270D01*
X3753515Y-1176270D02*
X3753515Y-1223889D01*
X3753515Y-1223889D02*
X3743991Y-1242936D01*
X3743991Y-1242936D02*
X3734468Y-1252460D01*
X3734468Y-1252460D02*
X3715420Y-1261984D01*
X3715420Y-1261984D02*
X3658277Y-1261984D01*
X3658277Y-1261984D02*
X3639229Y-1252460D01*
X3639229Y-1252460D02*
X3629706Y-1242936D01*
X3829706Y-1081031D02*
X3839229Y-1071508D01*
X3839229Y-1071508D02*
X3858277Y-1061984D01*
X3858277Y-1061984D02*
X3905896Y-1061984D01*
X3905896Y-1061984D02*
X3924944Y-1071508D01*
X3924944Y-1071508D02*
X3934468Y-1081031D01*
X3934468Y-1081031D02*
X3943991Y-1100079D01*
X3943991Y-1100079D02*
X3943991Y-1119127D01*
X3943991Y-1119127D02*
X3934468Y-1147698D01*
X3934468Y-1147698D02*
X3820182Y-1261984D01*
X3820182Y-1261984D02*
X3943991Y-1261984D01*
X4182087Y-1261984D02*
X4182087Y-1061984D01*
X4267801Y-1261984D02*
X4267801Y-1157222D01*
X4267801Y-1157222D02*
X4258277Y-1138174D01*
X4258277Y-1138174D02*
X4239230Y-1128650D01*
X4239230Y-1128650D02*
X4210658Y-1128650D01*
X4210658Y-1128650D02*
X4191610Y-1138174D01*
X4191610Y-1138174D02*
X4182087Y-1147698D01*
X4391611Y-1261984D02*
X4372563Y-1252460D01*
X4372563Y-1252460D02*
X4363039Y-1242936D01*
X4363039Y-1242936D02*
X4353515Y-1223889D01*
X4353515Y-1223889D02*
X4353515Y-1166746D01*
X4353515Y-1166746D02*
X4363039Y-1147698D01*
X4363039Y-1147698D02*
X4372563Y-1138174D01*
X4372563Y-1138174D02*
X4391611Y-1128650D01*
X4391611Y-1128650D02*
X4420182Y-1128650D01*
X4420182Y-1128650D02*
X4439230Y-1138174D01*
X4439230Y-1138174D02*
X4448753Y-1147698D01*
X4448753Y-1147698D02*
X4458277Y-1166746D01*
X4458277Y-1166746D02*
X4458277Y-1223889D01*
X4458277Y-1223889D02*
X4448753Y-1242936D01*
X4448753Y-1242936D02*
X4439230Y-1252460D01*
X4439230Y-1252460D02*
X4420182Y-1261984D01*
X4420182Y-1261984D02*
X4391611Y-1261984D01*
X4572563Y-1261984D02*
X4553515Y-1252460D01*
X4553515Y-1252460D02*
X4543992Y-1233412D01*
X4543992Y-1233412D02*
X4543992Y-1061984D01*
X4724944Y-1252460D02*
X4705896Y-1261984D01*
X4705896Y-1261984D02*
X4667801Y-1261984D01*
X4667801Y-1261984D02*
X4648753Y-1252460D01*
X4648753Y-1252460D02*
X4639230Y-1233412D01*
X4639230Y-1233412D02*
X4639230Y-1157222D01*
X4639230Y-1157222D02*
X4648753Y-1138174D01*
X4648753Y-1138174D02*
X4667801Y-1128650D01*
X4667801Y-1128650D02*
X4705896Y-1128650D01*
X4705896Y-1128650D02*
X4724944Y-1138174D01*
X4724944Y-1138174D02*
X4734468Y-1157222D01*
X4734468Y-1157222D02*
X4734468Y-1176270D01*
X4734468Y-1176270D02*
X4639230Y-1195317D01*
X4810658Y-1252460D02*
X4829706Y-1261984D01*
X4829706Y-1261984D02*
X4867801Y-1261984D01*
X4867801Y-1261984D02*
X4886849Y-1252460D01*
X4886849Y-1252460D02*
X4896373Y-1233412D01*
X4896373Y-1233412D02*
X4896373Y-1223889D01*
X4896373Y-1223889D02*
X4886849Y-1204841D01*
X4886849Y-1204841D02*
X4867801Y-1195317D01*
X4867801Y-1195317D02*
X4839230Y-1195317D01*
X4839230Y-1195317D02*
X4820182Y-1185793D01*
X4820182Y-1185793D02*
X4810658Y-1166746D01*
X4810658Y-1166746D02*
X4810658Y-1157222D01*
X4810658Y-1157222D02*
X4820182Y-1138174D01*
X4820182Y-1138174D02*
X4839230Y-1128650D01*
X4839230Y-1128650D02*
X4867801Y-1128650D01*
X4867801Y-1128650D02*
X4886849Y-1138174D01*
X4963039Y-1338174D02*
X4972563Y-1328650D01*
X4972563Y-1328650D02*
X4991611Y-1300079D01*
X4991611Y-1300079D02*
X5001134Y-1281031D01*
X5001134Y-1281031D02*
X5010658Y-1252460D01*
X5010658Y-1252460D02*
X5020182Y-1204841D01*
X5020182Y-1204841D02*
X5020182Y-1166746D01*
X5020182Y-1166746D02*
X5010658Y-1119127D01*
X5010658Y-1119127D02*
X5001134Y-1090555D01*
X5001134Y-1090555D02*
X4991611Y-1071508D01*
X4991611Y-1071508D02*
X4972563Y-1042936D01*
X4972563Y-1042936D02*
X4963039Y-1033412D01*
D12*
X-17144Y-1469856D02*
X-17144Y-1399144D01*
X-87856Y-1399144D01*
X-87856Y-1469856D01*
X-17144Y-1469856D01*
D11*
X363039Y-1525984D02*
X248753Y-1525984D01*
X305896Y-1525984D02*
X305896Y-1325984D01*
X305896Y-1325984D02*
X286848Y-1354555D01*
X286848Y-1354555D02*
X267801Y-1373603D01*
X267801Y-1373603D02*
X248753Y-1383127D01*
X448753Y-1506936D02*
X458277Y-1516460D01*
X458277Y-1516460D02*
X448753Y-1525984D01*
X448753Y-1525984D02*
X439229Y-1516460D01*
X439229Y-1516460D02*
X448753Y-1506936D01*
X448753Y-1506936D02*
X448753Y-1525984D01*
X582086Y-1325984D02*
X601134Y-1325984D01*
X601134Y-1325984D02*
X620182Y-1335508D01*
X620182Y-1335508D02*
X629705Y-1345031D01*
X629705Y-1345031D02*
X639229Y-1364079D01*
X639229Y-1364079D02*
X648753Y-1402174D01*
X648753Y-1402174D02*
X648753Y-1449793D01*
X648753Y-1449793D02*
X639229Y-1487888D01*
X639229Y-1487888D02*
X629705Y-1506936D01*
X629705Y-1506936D02*
X620182Y-1516460D01*
X620182Y-1516460D02*
X601134Y-1525984D01*
X601134Y-1525984D02*
X582086Y-1525984D01*
X582086Y-1525984D02*
X563039Y-1516460D01*
X563039Y-1516460D02*
X553515Y-1506936D01*
X553515Y-1506936D02*
X543991Y-1487888D01*
X543991Y-1487888D02*
X534467Y-1449793D01*
X534467Y-1449793D02*
X534467Y-1402174D01*
X534467Y-1402174D02*
X543991Y-1364079D01*
X543991Y-1364079D02*
X553515Y-1345031D01*
X553515Y-1345031D02*
X563039Y-1335508D01*
X563039Y-1335508D02*
X582086Y-1325984D01*
X772562Y-1325984D02*
X791610Y-1325984D01*
X791610Y-1325984D02*
X810658Y-1335508D01*
X810658Y-1335508D02*
X820182Y-1345031D01*
X820182Y-1345031D02*
X829705Y-1364079D01*
X829705Y-1364079D02*
X839229Y-1402174D01*
X839229Y-1402174D02*
X839229Y-1449793D01*
X839229Y-1449793D02*
X829705Y-1487888D01*
X829705Y-1487888D02*
X820182Y-1506936D01*
X820182Y-1506936D02*
X810658Y-1516460D01*
X810658Y-1516460D02*
X791610Y-1525984D01*
X791610Y-1525984D02*
X772562Y-1525984D01*
X772562Y-1525984D02*
X753515Y-1516460D01*
X753515Y-1516460D02*
X743991Y-1506936D01*
X743991Y-1506936D02*
X734467Y-1487888D01*
X734467Y-1487888D02*
X724943Y-1449793D01*
X724943Y-1449793D02*
X724943Y-1402174D01*
X724943Y-1402174D02*
X734467Y-1364079D01*
X734467Y-1364079D02*
X743991Y-1345031D01*
X743991Y-1345031D02*
X753515Y-1335508D01*
X753515Y-1335508D02*
X772562Y-1325984D01*
X963039Y-1325984D02*
X982086Y-1325984D01*
X982086Y-1325984D02*
X1001134Y-1335508D01*
X1001134Y-1335508D02*
X1010658Y-1345031D01*
X1010658Y-1345031D02*
X1020182Y-1364079D01*
X1020182Y-1364079D02*
X1029705Y-1402174D01*
X1029705Y-1402174D02*
X1029705Y-1449793D01*
X1029705Y-1449793D02*
X1020182Y-1487888D01*
X1020182Y-1487888D02*
X1010658Y-1506936D01*
X1010658Y-1506936D02*
X1001134Y-1516460D01*
X1001134Y-1516460D02*
X982086Y-1525984D01*
X982086Y-1525984D02*
X963039Y-1525984D01*
X963039Y-1525984D02*
X943991Y-1516460D01*
X943991Y-1516460D02*
X934467Y-1506936D01*
X934467Y-1506936D02*
X924943Y-1487888D01*
X924943Y-1487888D02*
X915420Y-1449793D01*
X915420Y-1449793D02*
X915420Y-1402174D01*
X915420Y-1402174D02*
X924943Y-1364079D01*
X924943Y-1364079D02*
X934467Y-1345031D01*
X934467Y-1345031D02*
X943991Y-1335508D01*
X943991Y-1335508D02*
X963039Y-1325984D01*
X1115420Y-1525984D02*
X1115420Y-1392650D01*
X1115420Y-1411698D02*
X1124944Y-1402174D01*
X1124944Y-1402174D02*
X1143991Y-1392650D01*
X1143991Y-1392650D02*
X1172563Y-1392650D01*
X1172563Y-1392650D02*
X1191610Y-1402174D01*
X1191610Y-1402174D02*
X1201134Y-1421222D01*
X1201134Y-1421222D02*
X1201134Y-1525984D01*
X1201134Y-1421222D02*
X1210658Y-1402174D01*
X1210658Y-1402174D02*
X1229705Y-1392650D01*
X1229705Y-1392650D02*
X1258277Y-1392650D01*
X1258277Y-1392650D02*
X1277325Y-1402174D01*
X1277325Y-1402174D02*
X1286848Y-1421222D01*
X1286848Y-1421222D02*
X1286848Y-1525984D01*
X1382086Y-1525984D02*
X1382086Y-1392650D01*
X1382086Y-1411698D02*
X1391610Y-1402174D01*
X1391610Y-1402174D02*
X1410658Y-1392650D01*
X1410658Y-1392650D02*
X1439229Y-1392650D01*
X1439229Y-1392650D02*
X1458277Y-1402174D01*
X1458277Y-1402174D02*
X1467801Y-1421222D01*
X1467801Y-1421222D02*
X1467801Y-1525984D01*
X1467801Y-1421222D02*
X1477324Y-1402174D01*
X1477324Y-1402174D02*
X1496372Y-1392650D01*
X1496372Y-1392650D02*
X1524943Y-1392650D01*
X1524943Y-1392650D02*
X1543991Y-1402174D01*
X1543991Y-1402174D02*
X1553515Y-1421222D01*
X1553515Y-1421222D02*
X1553515Y-1525984D01*
X1943991Y-1316460D02*
X1772563Y-1573603D01*
X2201134Y-1325984D02*
X2220182Y-1325984D01*
X2220182Y-1325984D02*
X2239229Y-1335508D01*
X2239229Y-1335508D02*
X2248753Y-1345031D01*
X2248753Y-1345031D02*
X2258277Y-1364079D01*
X2258277Y-1364079D02*
X2267801Y-1402174D01*
X2267801Y-1402174D02*
X2267801Y-1449793D01*
X2267801Y-1449793D02*
X2258277Y-1487888D01*
X2258277Y-1487888D02*
X2248753Y-1506936D01*
X2248753Y-1506936D02*
X2239229Y-1516460D01*
X2239229Y-1516460D02*
X2220182Y-1525984D01*
X2220182Y-1525984D02*
X2201134Y-1525984D01*
X2201134Y-1525984D02*
X2182087Y-1516460D01*
X2182087Y-1516460D02*
X2172563Y-1506936D01*
X2172563Y-1506936D02*
X2163039Y-1487888D01*
X2163039Y-1487888D02*
X2153515Y-1449793D01*
X2153515Y-1449793D02*
X2153515Y-1402174D01*
X2153515Y-1402174D02*
X2163039Y-1364079D01*
X2163039Y-1364079D02*
X2172563Y-1345031D01*
X2172563Y-1345031D02*
X2182087Y-1335508D01*
X2182087Y-1335508D02*
X2201134Y-1325984D01*
X2353515Y-1506936D02*
X2363039Y-1516460D01*
X2363039Y-1516460D02*
X2353515Y-1525984D01*
X2353515Y-1525984D02*
X2343991Y-1516460D01*
X2343991Y-1516460D02*
X2353515Y-1506936D01*
X2353515Y-1506936D02*
X2353515Y-1525984D01*
X2486848Y-1325984D02*
X2505896Y-1325984D01*
X2505896Y-1325984D02*
X2524944Y-1335508D01*
X2524944Y-1335508D02*
X2534468Y-1345031D01*
X2534468Y-1345031D02*
X2543991Y-1364079D01*
X2543991Y-1364079D02*
X2553515Y-1402174D01*
X2553515Y-1402174D02*
X2553515Y-1449793D01*
X2553515Y-1449793D02*
X2543991Y-1487888D01*
X2543991Y-1487888D02*
X2534468Y-1506936D01*
X2534468Y-1506936D02*
X2524944Y-1516460D01*
X2524944Y-1516460D02*
X2505896Y-1525984D01*
X2505896Y-1525984D02*
X2486848Y-1525984D01*
X2486848Y-1525984D02*
X2467801Y-1516460D01*
X2467801Y-1516460D02*
X2458277Y-1506936D01*
X2458277Y-1506936D02*
X2448753Y-1487888D01*
X2448753Y-1487888D02*
X2439229Y-1449793D01*
X2439229Y-1449793D02*
X2439229Y-1402174D01*
X2439229Y-1402174D02*
X2448753Y-1364079D01*
X2448753Y-1364079D02*
X2458277Y-1345031D01*
X2458277Y-1345031D02*
X2467801Y-1335508D01*
X2467801Y-1335508D02*
X2486848Y-1325984D01*
X2620182Y-1325984D02*
X2743991Y-1325984D01*
X2743991Y-1325984D02*
X2677325Y-1402174D01*
X2677325Y-1402174D02*
X2705896Y-1402174D01*
X2705896Y-1402174D02*
X2724944Y-1411698D01*
X2724944Y-1411698D02*
X2734468Y-1421222D01*
X2734468Y-1421222D02*
X2743991Y-1440269D01*
X2743991Y-1440269D02*
X2743991Y-1487888D01*
X2743991Y-1487888D02*
X2734468Y-1506936D01*
X2734468Y-1506936D02*
X2724944Y-1516460D01*
X2724944Y-1516460D02*
X2705896Y-1525984D01*
X2705896Y-1525984D02*
X2648753Y-1525984D01*
X2648753Y-1525984D02*
X2629706Y-1516460D01*
X2629706Y-1516460D02*
X2620182Y-1506936D01*
X2839229Y-1525984D02*
X2877325Y-1525984D01*
X2877325Y-1525984D02*
X2896372Y-1516460D01*
X2896372Y-1516460D02*
X2905896Y-1506936D01*
X2905896Y-1506936D02*
X2924944Y-1478365D01*
X2924944Y-1478365D02*
X2934467Y-1440269D01*
X2934467Y-1440269D02*
X2934467Y-1364079D01*
X2934467Y-1364079D02*
X2924944Y-1345031D01*
X2924944Y-1345031D02*
X2915420Y-1335508D01*
X2915420Y-1335508D02*
X2896372Y-1325984D01*
X2896372Y-1325984D02*
X2858277Y-1325984D01*
X2858277Y-1325984D02*
X2839229Y-1335508D01*
X2839229Y-1335508D02*
X2829706Y-1345031D01*
X2829706Y-1345031D02*
X2820182Y-1364079D01*
X2820182Y-1364079D02*
X2820182Y-1411698D01*
X2820182Y-1411698D02*
X2829706Y-1430746D01*
X2829706Y-1430746D02*
X2839229Y-1440269D01*
X2839229Y-1440269D02*
X2858277Y-1449793D01*
X2858277Y-1449793D02*
X2896372Y-1449793D01*
X2896372Y-1449793D02*
X2915420Y-1440269D01*
X2915420Y-1440269D02*
X2924944Y-1430746D01*
X2924944Y-1430746D02*
X2934467Y-1411698D01*
X3105896Y-1392650D02*
X3105896Y-1525984D01*
X3058277Y-1316460D02*
X3010658Y-1459317D01*
X3010658Y-1459317D02*
X3134467Y-1459317D01*
X3201134Y-1325984D02*
X3201134Y-1364079D01*
X3277325Y-1325984D02*
X3277325Y-1364079D01*
X3572563Y-1602174D02*
X3563039Y-1592650D01*
X3563039Y-1592650D02*
X3543991Y-1564079D01*
X3543991Y-1564079D02*
X3534468Y-1545031D01*
X3534468Y-1545031D02*
X3524944Y-1516460D01*
X3524944Y-1516460D02*
X3515420Y-1468841D01*
X3515420Y-1468841D02*
X3515420Y-1430746D01*
X3515420Y-1430746D02*
X3524944Y-1383127D01*
X3524944Y-1383127D02*
X3534468Y-1354555D01*
X3534468Y-1354555D02*
X3543991Y-1335508D01*
X3543991Y-1335508D02*
X3563039Y-1306936D01*
X3563039Y-1306936D02*
X3572563Y-1297412D01*
X3629706Y-1325984D02*
X3763039Y-1325984D01*
X3763039Y-1325984D02*
X3677325Y-1525984D01*
X3991610Y-1525984D02*
X3991610Y-1325984D01*
X4077325Y-1525984D02*
X4077325Y-1421222D01*
X4077325Y-1421222D02*
X4067801Y-1402174D01*
X4067801Y-1402174D02*
X4048753Y-1392650D01*
X4048753Y-1392650D02*
X4020182Y-1392650D01*
X4020182Y-1392650D02*
X4001134Y-1402174D01*
X4001134Y-1402174D02*
X3991610Y-1411698D01*
X4201134Y-1525984D02*
X4182087Y-1516460D01*
X4182087Y-1516460D02*
X4172563Y-1506936D01*
X4172563Y-1506936D02*
X4163039Y-1487888D01*
X4163039Y-1487888D02*
X4163039Y-1430746D01*
X4163039Y-1430746D02*
X4172563Y-1411698D01*
X4172563Y-1411698D02*
X4182087Y-1402174D01*
X4182087Y-1402174D02*
X4201134Y-1392650D01*
X4201134Y-1392650D02*
X4229706Y-1392650D01*
X4229706Y-1392650D02*
X4248753Y-1402174D01*
X4248753Y-1402174D02*
X4258277Y-1411698D01*
X4258277Y-1411698D02*
X4267801Y-1430746D01*
X4267801Y-1430746D02*
X4267801Y-1487888D01*
X4267801Y-1487888D02*
X4258277Y-1506936D01*
X4258277Y-1506936D02*
X4248753Y-1516460D01*
X4248753Y-1516460D02*
X4229706Y-1525984D01*
X4229706Y-1525984D02*
X4201134Y-1525984D01*
X4382087Y-1525984D02*
X4363039Y-1516460D01*
X4363039Y-1516460D02*
X4353515Y-1497412D01*
X4353515Y-1497412D02*
X4353515Y-1325984D01*
X4534468Y-1516460D02*
X4515420Y-1525984D01*
X4515420Y-1525984D02*
X4477325Y-1525984D01*
X4477325Y-1525984D02*
X4458277Y-1516460D01*
X4458277Y-1516460D02*
X4448753Y-1497412D01*
X4448753Y-1497412D02*
X4448753Y-1421222D01*
X4448753Y-1421222D02*
X4458277Y-1402174D01*
X4458277Y-1402174D02*
X4477325Y-1392650D01*
X4477325Y-1392650D02*
X4515420Y-1392650D01*
X4515420Y-1392650D02*
X4534468Y-1402174D01*
X4534468Y-1402174D02*
X4543992Y-1421222D01*
X4543992Y-1421222D02*
X4543992Y-1440269D01*
X4543992Y-1440269D02*
X4448753Y-1459317D01*
X4620182Y-1516460D02*
X4639230Y-1525984D01*
X4639230Y-1525984D02*
X4677325Y-1525984D01*
X4677325Y-1525984D02*
X4696373Y-1516460D01*
X4696373Y-1516460D02*
X4705896Y-1497412D01*
X4705896Y-1497412D02*
X4705896Y-1487888D01*
X4705896Y-1487888D02*
X4696373Y-1468841D01*
X4696373Y-1468841D02*
X4677325Y-1459317D01*
X4677325Y-1459317D02*
X4648753Y-1459317D01*
X4648753Y-1459317D02*
X4629706Y-1449793D01*
X4629706Y-1449793D02*
X4620182Y-1430746D01*
X4620182Y-1430746D02*
X4620182Y-1421222D01*
X4620182Y-1421222D02*
X4629706Y-1402174D01*
X4629706Y-1402174D02*
X4648753Y-1392650D01*
X4648753Y-1392650D02*
X4677325Y-1392650D01*
X4677325Y-1392650D02*
X4696373Y-1402174D01*
X4772563Y-1602174D02*
X4782087Y-1592650D01*
X4782087Y-1592650D02*
X4801134Y-1564079D01*
X4801134Y-1564079D02*
X4810658Y-1545031D01*
X4810658Y-1545031D02*
X4820182Y-1516460D01*
X4820182Y-1516460D02*
X4829706Y-1468841D01*
X4829706Y-1468841D02*
X4829706Y-1430746D01*
X4829706Y-1430746D02*
X4820182Y-1383127D01*
X4820182Y-1383127D02*
X4810658Y-1354555D01*
X4810658Y-1354555D02*
X4801134Y-1335508D01*
X4801134Y-1335508D02*
X4782087Y-1306936D01*
X4782087Y-1306936D02*
X4772563Y-1297412D01*
D13*
X-57500Y-1753500D02*
X-2500Y-1698500D01*
X-57500Y-1643500D01*
X-112500Y-1698500D01*
X-57500Y-1753500D01*
D11*
X363039Y-1789984D02*
X248753Y-1789984D01*
X305896Y-1789984D02*
X305896Y-1589984D01*
X305896Y-1589984D02*
X286848Y-1618555D01*
X286848Y-1618555D02*
X267801Y-1637603D01*
X267801Y-1637603D02*
X248753Y-1647127D01*
X448753Y-1770936D02*
X458277Y-1780460D01*
X458277Y-1780460D02*
X448753Y-1789984D01*
X448753Y-1789984D02*
X439229Y-1780460D01*
X439229Y-1780460D02*
X448753Y-1770936D01*
X448753Y-1770936D02*
X448753Y-1789984D01*
X648753Y-1789984D02*
X534467Y-1789984D01*
X591610Y-1789984D02*
X591610Y-1589984D01*
X591610Y-1589984D02*
X572563Y-1618555D01*
X572563Y-1618555D02*
X553515Y-1637603D01*
X553515Y-1637603D02*
X534467Y-1647127D01*
X772562Y-1589984D02*
X791610Y-1589984D01*
X791610Y-1589984D02*
X810658Y-1599508D01*
X810658Y-1599508D02*
X820182Y-1609031D01*
X820182Y-1609031D02*
X829705Y-1628079D01*
X829705Y-1628079D02*
X839229Y-1666174D01*
X839229Y-1666174D02*
X839229Y-1713793D01*
X839229Y-1713793D02*
X829705Y-1751888D01*
X829705Y-1751888D02*
X820182Y-1770936D01*
X820182Y-1770936D02*
X810658Y-1780460D01*
X810658Y-1780460D02*
X791610Y-1789984D01*
X791610Y-1789984D02*
X772562Y-1789984D01*
X772562Y-1789984D02*
X753515Y-1780460D01*
X753515Y-1780460D02*
X743991Y-1770936D01*
X743991Y-1770936D02*
X734467Y-1751888D01*
X734467Y-1751888D02*
X724943Y-1713793D01*
X724943Y-1713793D02*
X724943Y-1666174D01*
X724943Y-1666174D02*
X734467Y-1628079D01*
X734467Y-1628079D02*
X743991Y-1609031D01*
X743991Y-1609031D02*
X753515Y-1599508D01*
X753515Y-1599508D02*
X772562Y-1589984D01*
X963039Y-1589984D02*
X982086Y-1589984D01*
X982086Y-1589984D02*
X1001134Y-1599508D01*
X1001134Y-1599508D02*
X1010658Y-1609031D01*
X1010658Y-1609031D02*
X1020182Y-1628079D01*
X1020182Y-1628079D02*
X1029705Y-1666174D01*
X1029705Y-1666174D02*
X1029705Y-1713793D01*
X1029705Y-1713793D02*
X1020182Y-1751888D01*
X1020182Y-1751888D02*
X1010658Y-1770936D01*
X1010658Y-1770936D02*
X1001134Y-1780460D01*
X1001134Y-1780460D02*
X982086Y-1789984D01*
X982086Y-1789984D02*
X963039Y-1789984D01*
X963039Y-1789984D02*
X943991Y-1780460D01*
X943991Y-1780460D02*
X934467Y-1770936D01*
X934467Y-1770936D02*
X924943Y-1751888D01*
X924943Y-1751888D02*
X915420Y-1713793D01*
X915420Y-1713793D02*
X915420Y-1666174D01*
X915420Y-1666174D02*
X924943Y-1628079D01*
X924943Y-1628079D02*
X934467Y-1609031D01*
X934467Y-1609031D02*
X943991Y-1599508D01*
X943991Y-1599508D02*
X963039Y-1589984D01*
X1115420Y-1789984D02*
X1115420Y-1656650D01*
X1115420Y-1675698D02*
X1124944Y-1666174D01*
X1124944Y-1666174D02*
X1143991Y-1656650D01*
X1143991Y-1656650D02*
X1172563Y-1656650D01*
X1172563Y-1656650D02*
X1191610Y-1666174D01*
X1191610Y-1666174D02*
X1201134Y-1685222D01*
X1201134Y-1685222D02*
X1201134Y-1789984D01*
X1201134Y-1685222D02*
X1210658Y-1666174D01*
X1210658Y-1666174D02*
X1229705Y-1656650D01*
X1229705Y-1656650D02*
X1258277Y-1656650D01*
X1258277Y-1656650D02*
X1277325Y-1666174D01*
X1277325Y-1666174D02*
X1286848Y-1685222D01*
X1286848Y-1685222D02*
X1286848Y-1789984D01*
X1382086Y-1789984D02*
X1382086Y-1656650D01*
X1382086Y-1675698D02*
X1391610Y-1666174D01*
X1391610Y-1666174D02*
X1410658Y-1656650D01*
X1410658Y-1656650D02*
X1439229Y-1656650D01*
X1439229Y-1656650D02*
X1458277Y-1666174D01*
X1458277Y-1666174D02*
X1467801Y-1685222D01*
X1467801Y-1685222D02*
X1467801Y-1789984D01*
X1467801Y-1685222D02*
X1477324Y-1666174D01*
X1477324Y-1666174D02*
X1496372Y-1656650D01*
X1496372Y-1656650D02*
X1524943Y-1656650D01*
X1524943Y-1656650D02*
X1543991Y-1666174D01*
X1543991Y-1666174D02*
X1553515Y-1685222D01*
X1553515Y-1685222D02*
X1553515Y-1789984D01*
X1943991Y-1580460D02*
X1772563Y-1837603D01*
X2201134Y-1589984D02*
X2220182Y-1589984D01*
X2220182Y-1589984D02*
X2239229Y-1599508D01*
X2239229Y-1599508D02*
X2248753Y-1609031D01*
X2248753Y-1609031D02*
X2258277Y-1628079D01*
X2258277Y-1628079D02*
X2267801Y-1666174D01*
X2267801Y-1666174D02*
X2267801Y-1713793D01*
X2267801Y-1713793D02*
X2258277Y-1751888D01*
X2258277Y-1751888D02*
X2248753Y-1770936D01*
X2248753Y-1770936D02*
X2239229Y-1780460D01*
X2239229Y-1780460D02*
X2220182Y-1789984D01*
X2220182Y-1789984D02*
X2201134Y-1789984D01*
X2201134Y-1789984D02*
X2182087Y-1780460D01*
X2182087Y-1780460D02*
X2172563Y-1770936D01*
X2172563Y-1770936D02*
X2163039Y-1751888D01*
X2163039Y-1751888D02*
X2153515Y-1713793D01*
X2153515Y-1713793D02*
X2153515Y-1666174D01*
X2153515Y-1666174D02*
X2163039Y-1628079D01*
X2163039Y-1628079D02*
X2172563Y-1609031D01*
X2172563Y-1609031D02*
X2182087Y-1599508D01*
X2182087Y-1599508D02*
X2201134Y-1589984D01*
X2353515Y-1770936D02*
X2363039Y-1780460D01*
X2363039Y-1780460D02*
X2353515Y-1789984D01*
X2353515Y-1789984D02*
X2343991Y-1780460D01*
X2343991Y-1780460D02*
X2353515Y-1770936D01*
X2353515Y-1770936D02*
X2353515Y-1789984D01*
X2486848Y-1589984D02*
X2505896Y-1589984D01*
X2505896Y-1589984D02*
X2524944Y-1599508D01*
X2524944Y-1599508D02*
X2534468Y-1609031D01*
X2534468Y-1609031D02*
X2543991Y-1628079D01*
X2543991Y-1628079D02*
X2553515Y-1666174D01*
X2553515Y-1666174D02*
X2553515Y-1713793D01*
X2553515Y-1713793D02*
X2543991Y-1751888D01*
X2543991Y-1751888D02*
X2534468Y-1770936D01*
X2534468Y-1770936D02*
X2524944Y-1780460D01*
X2524944Y-1780460D02*
X2505896Y-1789984D01*
X2505896Y-1789984D02*
X2486848Y-1789984D01*
X2486848Y-1789984D02*
X2467801Y-1780460D01*
X2467801Y-1780460D02*
X2458277Y-1770936D01*
X2458277Y-1770936D02*
X2448753Y-1751888D01*
X2448753Y-1751888D02*
X2439229Y-1713793D01*
X2439229Y-1713793D02*
X2439229Y-1666174D01*
X2439229Y-1666174D02*
X2448753Y-1628079D01*
X2448753Y-1628079D02*
X2458277Y-1609031D01*
X2458277Y-1609031D02*
X2467801Y-1599508D01*
X2467801Y-1599508D02*
X2486848Y-1589984D01*
X2724944Y-1656650D02*
X2724944Y-1789984D01*
X2677325Y-1580460D02*
X2629706Y-1723317D01*
X2629706Y-1723317D02*
X2753515Y-1723317D01*
X2810658Y-1589984D02*
X2934467Y-1589984D01*
X2934467Y-1589984D02*
X2867801Y-1666174D01*
X2867801Y-1666174D02*
X2896372Y-1666174D01*
X2896372Y-1666174D02*
X2915420Y-1675698D01*
X2915420Y-1675698D02*
X2924944Y-1685222D01*
X2924944Y-1685222D02*
X2934467Y-1704269D01*
X2934467Y-1704269D02*
X2934467Y-1751888D01*
X2934467Y-1751888D02*
X2924944Y-1770936D01*
X2924944Y-1770936D02*
X2915420Y-1780460D01*
X2915420Y-1780460D02*
X2896372Y-1789984D01*
X2896372Y-1789984D02*
X2839229Y-1789984D01*
X2839229Y-1789984D02*
X2820182Y-1780460D01*
X2820182Y-1780460D02*
X2810658Y-1770936D01*
X3001134Y-1589984D02*
X3124944Y-1589984D01*
X3124944Y-1589984D02*
X3058277Y-1666174D01*
X3058277Y-1666174D02*
X3086848Y-1666174D01*
X3086848Y-1666174D02*
X3105896Y-1675698D01*
X3105896Y-1675698D02*
X3115420Y-1685222D01*
X3115420Y-1685222D02*
X3124944Y-1704269D01*
X3124944Y-1704269D02*
X3124944Y-1751888D01*
X3124944Y-1751888D02*
X3115420Y-1770936D01*
X3115420Y-1770936D02*
X3105896Y-1780460D01*
X3105896Y-1780460D02*
X3086848Y-1789984D01*
X3086848Y-1789984D02*
X3029706Y-1789984D01*
X3029706Y-1789984D02*
X3010658Y-1780460D01*
X3010658Y-1780460D02*
X3001134Y-1770936D01*
X3201134Y-1589984D02*
X3201134Y-1628079D01*
X3277325Y-1589984D02*
X3277325Y-1628079D01*
X3572563Y-1866174D02*
X3563039Y-1856650D01*
X3563039Y-1856650D02*
X3543991Y-1828079D01*
X3543991Y-1828079D02*
X3534468Y-1809031D01*
X3534468Y-1809031D02*
X3524944Y-1780460D01*
X3524944Y-1780460D02*
X3515420Y-1732841D01*
X3515420Y-1732841D02*
X3515420Y-1694746D01*
X3515420Y-1694746D02*
X3524944Y-1647127D01*
X3524944Y-1647127D02*
X3534468Y-1618555D01*
X3534468Y-1618555D02*
X3543991Y-1599508D01*
X3543991Y-1599508D02*
X3563039Y-1570936D01*
X3563039Y-1570936D02*
X3572563Y-1561412D01*
X3753515Y-1789984D02*
X3639229Y-1789984D01*
X3696372Y-1789984D02*
X3696372Y-1589984D01*
X3696372Y-1589984D02*
X3677325Y-1618555D01*
X3677325Y-1618555D02*
X3658277Y-1637603D01*
X3658277Y-1637603D02*
X3639229Y-1647127D01*
X3829706Y-1609031D02*
X3839229Y-1599508D01*
X3839229Y-1599508D02*
X3858277Y-1589984D01*
X3858277Y-1589984D02*
X3905896Y-1589984D01*
X3905896Y-1589984D02*
X3924944Y-1599508D01*
X3924944Y-1599508D02*
X3934468Y-1609031D01*
X3934468Y-1609031D02*
X3943991Y-1628079D01*
X3943991Y-1628079D02*
X3943991Y-1647127D01*
X3943991Y-1647127D02*
X3934468Y-1675698D01*
X3934468Y-1675698D02*
X3820182Y-1789984D01*
X3820182Y-1789984D02*
X3943991Y-1789984D01*
X4182087Y-1789984D02*
X4182087Y-1589984D01*
X4267801Y-1789984D02*
X4267801Y-1685222D01*
X4267801Y-1685222D02*
X4258277Y-1666174D01*
X4258277Y-1666174D02*
X4239230Y-1656650D01*
X4239230Y-1656650D02*
X4210658Y-1656650D01*
X4210658Y-1656650D02*
X4191610Y-1666174D01*
X4191610Y-1666174D02*
X4182087Y-1675698D01*
X4391611Y-1789984D02*
X4372563Y-1780460D01*
X4372563Y-1780460D02*
X4363039Y-1770936D01*
X4363039Y-1770936D02*
X4353515Y-1751888D01*
X4353515Y-1751888D02*
X4353515Y-1694746D01*
X4353515Y-1694746D02*
X4363039Y-1675698D01*
X4363039Y-1675698D02*
X4372563Y-1666174D01*
X4372563Y-1666174D02*
X4391611Y-1656650D01*
X4391611Y-1656650D02*
X4420182Y-1656650D01*
X4420182Y-1656650D02*
X4439230Y-1666174D01*
X4439230Y-1666174D02*
X4448753Y-1675698D01*
X4448753Y-1675698D02*
X4458277Y-1694746D01*
X4458277Y-1694746D02*
X4458277Y-1751888D01*
X4458277Y-1751888D02*
X4448753Y-1770936D01*
X4448753Y-1770936D02*
X4439230Y-1780460D01*
X4439230Y-1780460D02*
X4420182Y-1789984D01*
X4420182Y-1789984D02*
X4391611Y-1789984D01*
X4572563Y-1789984D02*
X4553515Y-1780460D01*
X4553515Y-1780460D02*
X4543992Y-1761412D01*
X4543992Y-1761412D02*
X4543992Y-1589984D01*
X4724944Y-1780460D02*
X4705896Y-1789984D01*
X4705896Y-1789984D02*
X4667801Y-1789984D01*
X4667801Y-1789984D02*
X4648753Y-1780460D01*
X4648753Y-1780460D02*
X4639230Y-1761412D01*
X4639230Y-1761412D02*
X4639230Y-1685222D01*
X4639230Y-1685222D02*
X4648753Y-1666174D01*
X4648753Y-1666174D02*
X4667801Y-1656650D01*
X4667801Y-1656650D02*
X4705896Y-1656650D01*
X4705896Y-1656650D02*
X4724944Y-1666174D01*
X4724944Y-1666174D02*
X4734468Y-1685222D01*
X4734468Y-1685222D02*
X4734468Y-1704269D01*
X4734468Y-1704269D02*
X4639230Y-1723317D01*
X4810658Y-1780460D02*
X4829706Y-1789984D01*
X4829706Y-1789984D02*
X4867801Y-1789984D01*
X4867801Y-1789984D02*
X4886849Y-1780460D01*
X4886849Y-1780460D02*
X4896373Y-1761412D01*
X4896373Y-1761412D02*
X4896373Y-1751888D01*
X4896373Y-1751888D02*
X4886849Y-1732841D01*
X4886849Y-1732841D02*
X4867801Y-1723317D01*
X4867801Y-1723317D02*
X4839230Y-1723317D01*
X4839230Y-1723317D02*
X4820182Y-1713793D01*
X4820182Y-1713793D02*
X4810658Y-1694746D01*
X4810658Y-1694746D02*
X4810658Y-1685222D01*
X4810658Y-1685222D02*
X4820182Y-1666174D01*
X4820182Y-1666174D02*
X4839230Y-1656650D01*
X4839230Y-1656650D02*
X4867801Y-1656650D01*
X4867801Y-1656650D02*
X4886849Y-1666174D01*
X4963039Y-1866174D02*
X4972563Y-1856650D01*
X4972563Y-1856650D02*
X4991611Y-1828079D01*
X4991611Y-1828079D02*
X5001134Y-1809031D01*
X5001134Y-1809031D02*
X5010658Y-1780460D01*
X5010658Y-1780460D02*
X5020182Y-1732841D01*
X5020182Y-1732841D02*
X5020182Y-1694746D01*
X5020182Y-1694746D02*
X5010658Y-1647127D01*
X5010658Y-1647127D02*
X5001134Y-1618555D01*
X5001134Y-1618555D02*
X4991611Y-1599508D01*
X4991611Y-1599508D02*
X4972563Y-1570936D01*
X4972563Y-1570936D02*
X4963039Y-1561412D01*
X-202500Y-1862500D02*
X-2500Y-2062500D01*
X-2500Y-1862500D02*
X-202500Y-2062500D01*
X-2500Y-1962500D02*
G75*
G02*
X-202500Y-1962500I-100000J0D01*
G01*
X-202500Y-1962500D02*
G75*
G02*
X-2500Y-1962500I100000J0D01*
G01*
X239229Y-1853984D02*
X363039Y-1853984D01*
X363039Y-1853984D02*
X296372Y-1930174D01*
X296372Y-1930174D02*
X324944Y-1930174D01*
X324944Y-1930174D02*
X343991Y-1939698D01*
X343991Y-1939698D02*
X353515Y-1949222D01*
X353515Y-1949222D02*
X363039Y-1968269D01*
X363039Y-1968269D02*
X363039Y-2015888D01*
X363039Y-2015888D02*
X353515Y-2034936D01*
X353515Y-2034936D02*
X343991Y-2044460D01*
X343991Y-2044460D02*
X324944Y-2053984D01*
X324944Y-2053984D02*
X267801Y-2053984D01*
X267801Y-2053984D02*
X248753Y-2044460D01*
X248753Y-2044460D02*
X239229Y-2034936D01*
X448753Y-2034936D02*
X458277Y-2044460D01*
X458277Y-2044460D02*
X448753Y-2053984D01*
X448753Y-2053984D02*
X439229Y-2044460D01*
X439229Y-2044460D02*
X448753Y-2034936D01*
X448753Y-2034936D02*
X448753Y-2053984D01*
X534467Y-1873031D02*
X543991Y-1863508D01*
X543991Y-1863508D02*
X563039Y-1853984D01*
X563039Y-1853984D02*
X610658Y-1853984D01*
X610658Y-1853984D02*
X629705Y-1863508D01*
X629705Y-1863508D02*
X639229Y-1873031D01*
X639229Y-1873031D02*
X648753Y-1892079D01*
X648753Y-1892079D02*
X648753Y-1911127D01*
X648753Y-1911127D02*
X639229Y-1939698D01*
X639229Y-1939698D02*
X524944Y-2053984D01*
X524944Y-2053984D02*
X648753Y-2053984D01*
X772562Y-1853984D02*
X791610Y-1853984D01*
X791610Y-1853984D02*
X810658Y-1863508D01*
X810658Y-1863508D02*
X820182Y-1873031D01*
X820182Y-1873031D02*
X829705Y-1892079D01*
X829705Y-1892079D02*
X839229Y-1930174D01*
X839229Y-1930174D02*
X839229Y-1977793D01*
X839229Y-1977793D02*
X829705Y-2015888D01*
X829705Y-2015888D02*
X820182Y-2034936D01*
X820182Y-2034936D02*
X810658Y-2044460D01*
X810658Y-2044460D02*
X791610Y-2053984D01*
X791610Y-2053984D02*
X772562Y-2053984D01*
X772562Y-2053984D02*
X753515Y-2044460D01*
X753515Y-2044460D02*
X743991Y-2034936D01*
X743991Y-2034936D02*
X734467Y-2015888D01*
X734467Y-2015888D02*
X724943Y-1977793D01*
X724943Y-1977793D02*
X724943Y-1930174D01*
X724943Y-1930174D02*
X734467Y-1892079D01*
X734467Y-1892079D02*
X743991Y-1873031D01*
X743991Y-1873031D02*
X753515Y-1863508D01*
X753515Y-1863508D02*
X772562Y-1853984D01*
X963039Y-1853984D02*
X982086Y-1853984D01*
X982086Y-1853984D02*
X1001134Y-1863508D01*
X1001134Y-1863508D02*
X1010658Y-1873031D01*
X1010658Y-1873031D02*
X1020182Y-1892079D01*
X1020182Y-1892079D02*
X1029705Y-1930174D01*
X1029705Y-1930174D02*
X1029705Y-1977793D01*
X1029705Y-1977793D02*
X1020182Y-2015888D01*
X1020182Y-2015888D02*
X1010658Y-2034936D01*
X1010658Y-2034936D02*
X1001134Y-2044460D01*
X1001134Y-2044460D02*
X982086Y-2053984D01*
X982086Y-2053984D02*
X963039Y-2053984D01*
X963039Y-2053984D02*
X943991Y-2044460D01*
X943991Y-2044460D02*
X934467Y-2034936D01*
X934467Y-2034936D02*
X924943Y-2015888D01*
X924943Y-2015888D02*
X915420Y-1977793D01*
X915420Y-1977793D02*
X915420Y-1930174D01*
X915420Y-1930174D02*
X924943Y-1892079D01*
X924943Y-1892079D02*
X934467Y-1873031D01*
X934467Y-1873031D02*
X943991Y-1863508D01*
X943991Y-1863508D02*
X963039Y-1853984D01*
X1115420Y-2053984D02*
X1115420Y-1920650D01*
X1115420Y-1939698D02*
X1124944Y-1930174D01*
X1124944Y-1930174D02*
X1143991Y-1920650D01*
X1143991Y-1920650D02*
X1172563Y-1920650D01*
X1172563Y-1920650D02*
X1191610Y-1930174D01*
X1191610Y-1930174D02*
X1201134Y-1949222D01*
X1201134Y-1949222D02*
X1201134Y-2053984D01*
X1201134Y-1949222D02*
X1210658Y-1930174D01*
X1210658Y-1930174D02*
X1229705Y-1920650D01*
X1229705Y-1920650D02*
X1258277Y-1920650D01*
X1258277Y-1920650D02*
X1277325Y-1930174D01*
X1277325Y-1930174D02*
X1286848Y-1949222D01*
X1286848Y-1949222D02*
X1286848Y-2053984D01*
X1382086Y-2053984D02*
X1382086Y-1920650D01*
X1382086Y-1939698D02*
X1391610Y-1930174D01*
X1391610Y-1930174D02*
X1410658Y-1920650D01*
X1410658Y-1920650D02*
X1439229Y-1920650D01*
X1439229Y-1920650D02*
X1458277Y-1930174D01*
X1458277Y-1930174D02*
X1467801Y-1949222D01*
X1467801Y-1949222D02*
X1467801Y-2053984D01*
X1467801Y-1949222D02*
X1477324Y-1930174D01*
X1477324Y-1930174D02*
X1496372Y-1920650D01*
X1496372Y-1920650D02*
X1524943Y-1920650D01*
X1524943Y-1920650D02*
X1543991Y-1930174D01*
X1543991Y-1930174D02*
X1553515Y-1949222D01*
X1553515Y-1949222D02*
X1553515Y-2053984D01*
X1943991Y-1844460D02*
X1772563Y-2101603D01*
X2201134Y-1853984D02*
X2220182Y-1853984D01*
X2220182Y-1853984D02*
X2239229Y-1863508D01*
X2239229Y-1863508D02*
X2248753Y-1873031D01*
X2248753Y-1873031D02*
X2258277Y-1892079D01*
X2258277Y-1892079D02*
X2267801Y-1930174D01*
X2267801Y-1930174D02*
X2267801Y-1977793D01*
X2267801Y-1977793D02*
X2258277Y-2015888D01*
X2258277Y-2015888D02*
X2248753Y-2034936D01*
X2248753Y-2034936D02*
X2239229Y-2044460D01*
X2239229Y-2044460D02*
X2220182Y-2053984D01*
X2220182Y-2053984D02*
X2201134Y-2053984D01*
X2201134Y-2053984D02*
X2182087Y-2044460D01*
X2182087Y-2044460D02*
X2172563Y-2034936D01*
X2172563Y-2034936D02*
X2163039Y-2015888D01*
X2163039Y-2015888D02*
X2153515Y-1977793D01*
X2153515Y-1977793D02*
X2153515Y-1930174D01*
X2153515Y-1930174D02*
X2163039Y-1892079D01*
X2163039Y-1892079D02*
X2172563Y-1873031D01*
X2172563Y-1873031D02*
X2182087Y-1863508D01*
X2182087Y-1863508D02*
X2201134Y-1853984D01*
X2353515Y-2034936D02*
X2363039Y-2044460D01*
X2363039Y-2044460D02*
X2353515Y-2053984D01*
X2353515Y-2053984D02*
X2343991Y-2044460D01*
X2343991Y-2044460D02*
X2353515Y-2034936D01*
X2353515Y-2034936D02*
X2353515Y-2053984D01*
X2553515Y-2053984D02*
X2439229Y-2053984D01*
X2496372Y-2053984D02*
X2496372Y-1853984D01*
X2496372Y-1853984D02*
X2477325Y-1882555D01*
X2477325Y-1882555D02*
X2458277Y-1901603D01*
X2458277Y-1901603D02*
X2439229Y-1911127D01*
X2629706Y-1873031D02*
X2639229Y-1863508D01*
X2639229Y-1863508D02*
X2658277Y-1853984D01*
X2658277Y-1853984D02*
X2705896Y-1853984D01*
X2705896Y-1853984D02*
X2724944Y-1863508D01*
X2724944Y-1863508D02*
X2734468Y-1873031D01*
X2734468Y-1873031D02*
X2743991Y-1892079D01*
X2743991Y-1892079D02*
X2743991Y-1911127D01*
X2743991Y-1911127D02*
X2734468Y-1939698D01*
X2734468Y-1939698D02*
X2620182Y-2053984D01*
X2620182Y-2053984D02*
X2743991Y-2053984D01*
X2915420Y-1853984D02*
X2877325Y-1853984D01*
X2877325Y-1853984D02*
X2858277Y-1863508D01*
X2858277Y-1863508D02*
X2848753Y-1873031D01*
X2848753Y-1873031D02*
X2829706Y-1901603D01*
X2829706Y-1901603D02*
X2820182Y-1939698D01*
X2820182Y-1939698D02*
X2820182Y-2015888D01*
X2820182Y-2015888D02*
X2829706Y-2034936D01*
X2829706Y-2034936D02*
X2839229Y-2044460D01*
X2839229Y-2044460D02*
X2858277Y-2053984D01*
X2858277Y-2053984D02*
X2896372Y-2053984D01*
X2896372Y-2053984D02*
X2915420Y-2044460D01*
X2915420Y-2044460D02*
X2924944Y-2034936D01*
X2924944Y-2034936D02*
X2934467Y-2015888D01*
X2934467Y-2015888D02*
X2934467Y-1968269D01*
X2934467Y-1968269D02*
X2924944Y-1949222D01*
X2924944Y-1949222D02*
X2915420Y-1939698D01*
X2915420Y-1939698D02*
X2896372Y-1930174D01*
X2896372Y-1930174D02*
X2858277Y-1930174D01*
X2858277Y-1930174D02*
X2839229Y-1939698D01*
X2839229Y-1939698D02*
X2829706Y-1949222D01*
X2829706Y-1949222D02*
X2820182Y-1968269D01*
X3058277Y-1853984D02*
X3077325Y-1853984D01*
X3077325Y-1853984D02*
X3096372Y-1863508D01*
X3096372Y-1863508D02*
X3105896Y-1873031D01*
X3105896Y-1873031D02*
X3115420Y-1892079D01*
X3115420Y-1892079D02*
X3124944Y-1930174D01*
X3124944Y-1930174D02*
X3124944Y-1977793D01*
X3124944Y-1977793D02*
X3115420Y-2015888D01*
X3115420Y-2015888D02*
X3105896Y-2034936D01*
X3105896Y-2034936D02*
X3096372Y-2044460D01*
X3096372Y-2044460D02*
X3077325Y-2053984D01*
X3077325Y-2053984D02*
X3058277Y-2053984D01*
X3058277Y-2053984D02*
X3039229Y-2044460D01*
X3039229Y-2044460D02*
X3029706Y-2034936D01*
X3029706Y-2034936D02*
X3020182Y-2015888D01*
X3020182Y-2015888D02*
X3010658Y-1977793D01*
X3010658Y-1977793D02*
X3010658Y-1930174D01*
X3010658Y-1930174D02*
X3020182Y-1892079D01*
X3020182Y-1892079D02*
X3029706Y-1873031D01*
X3029706Y-1873031D02*
X3039229Y-1863508D01*
X3039229Y-1863508D02*
X3058277Y-1853984D01*
X3201134Y-1853984D02*
X3201134Y-1892079D01*
X3277325Y-1853984D02*
X3277325Y-1892079D01*
X3572563Y-2130174D02*
X3563039Y-2120650D01*
X3563039Y-2120650D02*
X3543991Y-2092079D01*
X3543991Y-2092079D02*
X3534468Y-2073031D01*
X3534468Y-2073031D02*
X3524944Y-2044460D01*
X3524944Y-2044460D02*
X3515420Y-1996841D01*
X3515420Y-1996841D02*
X3515420Y-1958746D01*
X3515420Y-1958746D02*
X3524944Y-1911127D01*
X3524944Y-1911127D02*
X3534468Y-1882555D01*
X3534468Y-1882555D02*
X3543991Y-1863508D01*
X3543991Y-1863508D02*
X3563039Y-1834936D01*
X3563039Y-1834936D02*
X3572563Y-1825412D01*
X3734468Y-1920650D02*
X3734468Y-2053984D01*
X3686848Y-1844460D02*
X3639229Y-1987317D01*
X3639229Y-1987317D02*
X3763039Y-1987317D01*
X3991610Y-2053984D02*
X3991610Y-1853984D01*
X4077325Y-2053984D02*
X4077325Y-1949222D01*
X4077325Y-1949222D02*
X4067801Y-1930174D01*
X4067801Y-1930174D02*
X4048753Y-1920650D01*
X4048753Y-1920650D02*
X4020182Y-1920650D01*
X4020182Y-1920650D02*
X4001134Y-1930174D01*
X4001134Y-1930174D02*
X3991610Y-1939698D01*
X4201134Y-2053984D02*
X4182087Y-2044460D01*
X4182087Y-2044460D02*
X4172563Y-2034936D01*
X4172563Y-2034936D02*
X4163039Y-2015888D01*
X4163039Y-2015888D02*
X4163039Y-1958746D01*
X4163039Y-1958746D02*
X4172563Y-1939698D01*
X4172563Y-1939698D02*
X4182087Y-1930174D01*
X4182087Y-1930174D02*
X4201134Y-1920650D01*
X4201134Y-1920650D02*
X4229706Y-1920650D01*
X4229706Y-1920650D02*
X4248753Y-1930174D01*
X4248753Y-1930174D02*
X4258277Y-1939698D01*
X4258277Y-1939698D02*
X4267801Y-1958746D01*
X4267801Y-1958746D02*
X4267801Y-2015888D01*
X4267801Y-2015888D02*
X4258277Y-2034936D01*
X4258277Y-2034936D02*
X4248753Y-2044460D01*
X4248753Y-2044460D02*
X4229706Y-2053984D01*
X4229706Y-2053984D02*
X4201134Y-2053984D01*
X4382087Y-2053984D02*
X4363039Y-2044460D01*
X4363039Y-2044460D02*
X4353515Y-2025412D01*
X4353515Y-2025412D02*
X4353515Y-1853984D01*
X4534468Y-2044460D02*
X4515420Y-2053984D01*
X4515420Y-2053984D02*
X4477325Y-2053984D01*
X4477325Y-2053984D02*
X4458277Y-2044460D01*
X4458277Y-2044460D02*
X4448753Y-2025412D01*
X4448753Y-2025412D02*
X4448753Y-1949222D01*
X4448753Y-1949222D02*
X4458277Y-1930174D01*
X4458277Y-1930174D02*
X4477325Y-1920650D01*
X4477325Y-1920650D02*
X4515420Y-1920650D01*
X4515420Y-1920650D02*
X4534468Y-1930174D01*
X4534468Y-1930174D02*
X4543992Y-1949222D01*
X4543992Y-1949222D02*
X4543992Y-1968269D01*
X4543992Y-1968269D02*
X4448753Y-1987317D01*
X4620182Y-2044460D02*
X4639230Y-2053984D01*
X4639230Y-2053984D02*
X4677325Y-2053984D01*
X4677325Y-2053984D02*
X4696373Y-2044460D01*
X4696373Y-2044460D02*
X4705896Y-2025412D01*
X4705896Y-2025412D02*
X4705896Y-2015888D01*
X4705896Y-2015888D02*
X4696373Y-1996841D01*
X4696373Y-1996841D02*
X4677325Y-1987317D01*
X4677325Y-1987317D02*
X4648753Y-1987317D01*
X4648753Y-1987317D02*
X4629706Y-1977793D01*
X4629706Y-1977793D02*
X4620182Y-1958746D01*
X4620182Y-1958746D02*
X4620182Y-1949222D01*
X4620182Y-1949222D02*
X4629706Y-1930174D01*
X4629706Y-1930174D02*
X4648753Y-1920650D01*
X4648753Y-1920650D02*
X4677325Y-1920650D01*
X4677325Y-1920650D02*
X4696373Y-1930174D01*
X4772563Y-2130174D02*
X4782087Y-2120650D01*
X4782087Y-2120650D02*
X4801134Y-2092079D01*
X4801134Y-2092079D02*
X4810658Y-2073031D01*
X4810658Y-2073031D02*
X4820182Y-2044460D01*
X4820182Y-2044460D02*
X4829706Y-1996841D01*
X4829706Y-1996841D02*
X4829706Y-1958746D01*
X4829706Y-1958746D02*
X4820182Y-1911127D01*
X4820182Y-1911127D02*
X4810658Y-1882555D01*
X4810658Y-1882555D02*
X4801134Y-1863508D01*
X4801134Y-1863508D02*
X4782087Y-1834936D01*
X4782087Y-1834936D02*
X4772563Y-1825412D01*
M02*
