%TF.GenerationSoftware,KiCad,Pcbnew,9.0.4*%
%TF.CreationDate,2026-01-25T08:23:28+01:00*%
%TF.ProjectId,VQFN_Training_Lab,5651464e-5f54-4726-9169-6e696e675f4c,1.0*%
%TF.SameCoordinates,PX7270e00PY7270e00*%
%TF.FileFunction,Soldermask,Top*%
%TF.FilePolarity,Negative*%
%FSLAX46Y46*%
G04 Gerber Fmt 4.6, Leading zero omitted, Abs format (unit mm)*
G04 Created by KiCad (PCBNEW 9.0.4) date 2026-01-25 08:23:28*
%MOMM*%
%LPD*%
G01*
G04 APERTURE LIST*
G04 APERTURE END LIST*
G36*
X4170085Y7224919D02*
G01*
X4181108Y7224919D01*
X4257639Y7216296D01*
X4473934Y7194993D01*
X4509513Y7187916D01*
X4541045Y7184363D01*
X4633752Y7163204D01*
X4784806Y7133157D01*
X4843794Y7115263D01*
X4894179Y7103763D01*
X4975447Y7075326D01*
X5088142Y7041140D01*
X5169763Y7007332D01*
X5236067Y6984131D01*
X5299348Y6953657D01*
X5380982Y6919843D01*
X5484857Y6864321D01*
X5562412Y6826972D01*
X5606169Y6799478D01*
X5660526Y6770423D01*
X5788554Y6684877D01*
X5869108Y6634262D01*
X5893926Y6614471D01*
X5924077Y6594324D01*
X6092073Y6456453D01*
X6152299Y6408424D01*
X6160092Y6400631D01*
X6169099Y6393239D01*
X6393238Y6169100D01*
X6400629Y6160094D01*
X6408424Y6152299D01*
X6456458Y6092067D01*
X6594323Y5924078D01*
X6614468Y5893929D01*
X6634262Y5869108D01*
X6684882Y5788547D01*
X6770422Y5660527D01*
X6799473Y5606175D01*
X6826972Y5562412D01*
X6864324Y5484849D01*
X6919842Y5380983D01*
X6953652Y5299357D01*
X6984131Y5236067D01*
X7007334Y5169755D01*
X7041139Y5088143D01*
X7075320Y4975463D01*
X7103763Y4894179D01*
X7115265Y4843785D01*
X7133156Y4784807D01*
X7163197Y4633780D01*
X7184363Y4541045D01*
X7187916Y4509505D01*
X7194992Y4473935D01*
X7216293Y4257660D01*
X7224919Y4181108D01*
X7224919Y4170085D01*
X7226061Y4158490D01*
X7226061Y3841511D01*
X7224919Y3829917D01*
X7224919Y3818892D01*
X7216292Y3742334D01*
X7194992Y3526066D01*
X7187917Y3490498D01*
X7184363Y3458955D01*
X7163195Y3366214D01*
X7133156Y3215194D01*
X7115265Y3156220D01*
X7103763Y3105821D01*
X7075318Y3024532D01*
X7041139Y2911858D01*
X7007337Y2830253D01*
X6984131Y2763933D01*
X6953649Y2700637D01*
X6919842Y2619018D01*
X6864329Y2515162D01*
X6826972Y2437588D01*
X6799470Y2393820D01*
X6770422Y2339474D01*
X6684892Y2211471D01*
X6634262Y2130892D01*
X6614464Y2106067D01*
X6594323Y2075923D01*
X6456486Y1907970D01*
X6408424Y1847701D01*
X6400624Y1839902D01*
X6393238Y1830901D01*
X6169099Y1606762D01*
X6160098Y1599376D01*
X6152299Y1591576D01*
X6092030Y1543514D01*
X5924077Y1405677D01*
X5893933Y1385536D01*
X5869108Y1365738D01*
X5788529Y1315108D01*
X5660526Y1229578D01*
X5606180Y1200530D01*
X5562412Y1173028D01*
X5484838Y1135671D01*
X5380982Y1080158D01*
X5299363Y1046351D01*
X5236067Y1015869D01*
X5169747Y992663D01*
X5088142Y958861D01*
X4975468Y924682D01*
X4894179Y896237D01*
X4843780Y884735D01*
X4784806Y866844D01*
X4633786Y836805D01*
X4541045Y815637D01*
X4509502Y812083D01*
X4473934Y805008D01*
X4257661Y783707D01*
X4181108Y775081D01*
X4170085Y775081D01*
X4158490Y773939D01*
X3841510Y773939D01*
X3829915Y775081D01*
X3818892Y775081D01*
X3742340Y783707D01*
X3526065Y805008D01*
X3490495Y812084D01*
X3458955Y815637D01*
X3366220Y836803D01*
X3215193Y866844D01*
X3156215Y884735D01*
X3105821Y896237D01*
X3024537Y924680D01*
X2911857Y958861D01*
X2830245Y992666D01*
X2763933Y1015869D01*
X2700643Y1046348D01*
X2619017Y1080158D01*
X2515151Y1135676D01*
X2437588Y1173028D01*
X2393825Y1200527D01*
X2339473Y1229578D01*
X2211453Y1315118D01*
X2130892Y1365738D01*
X2106071Y1385532D01*
X2075922Y1405677D01*
X1907933Y1543542D01*
X1847701Y1591576D01*
X1839906Y1599371D01*
X1830900Y1606762D01*
X1606761Y1830901D01*
X1599369Y1839908D01*
X1591576Y1847701D01*
X1543547Y1907927D01*
X1405676Y2075923D01*
X1385529Y2106074D01*
X1365738Y2130892D01*
X1315123Y2211446D01*
X1229577Y2339474D01*
X1200522Y2393831D01*
X1173028Y2437588D01*
X1135679Y2515143D01*
X1080157Y2619018D01*
X1046343Y2700652D01*
X1015869Y2763933D01*
X992668Y2830237D01*
X958860Y2911858D01*
X924674Y3024553D01*
X896237Y3105821D01*
X884737Y3156206D01*
X866843Y3215194D01*
X836796Y3366248D01*
X815637Y3458955D01*
X812084Y3490487D01*
X805007Y3526066D01*
X783704Y3742356D01*
X775081Y3818892D01*
X775081Y3829916D01*
X773939Y3841511D01*
X773939Y4158490D01*
X775081Y4170086D01*
X775081Y4181108D01*
X783703Y4257638D01*
X805007Y4473935D01*
X812084Y4509516D01*
X815637Y4541045D01*
X836795Y4633746D01*
X866843Y4784807D01*
X884737Y4843799D01*
X896237Y4894179D01*
X924671Y4975441D01*
X958860Y5088143D01*
X992670Y5169770D01*
X1015869Y5236067D01*
X1046340Y5299343D01*
X1080157Y5380983D01*
X1135684Y5484868D01*
X1173028Y5562412D01*
X1200519Y5606165D01*
X1229577Y5660527D01*
X1315133Y5788572D01*
X1365738Y5869108D01*
X1385525Y5893921D01*
X1405676Y5924078D01*
X1543576Y6092110D01*
X1591576Y6152299D01*
X1599365Y6160089D01*
X1606761Y6169100D01*
X1830900Y6393239D01*
X1839911Y6400635D01*
X1847701Y6408424D01*
X1907890Y6456424D01*
X2075922Y6594324D01*
X2106079Y6614475D01*
X2130892Y6634262D01*
X2211428Y6684867D01*
X2339473Y6770423D01*
X2393835Y6799481D01*
X2437588Y6826972D01*
X2515132Y6864316D01*
X2619017Y6919843D01*
X2700657Y6953660D01*
X2763933Y6984131D01*
X2830230Y7007330D01*
X2911857Y7041140D01*
X3024559Y7075329D01*
X3105821Y7103763D01*
X3156201Y7115263D01*
X3215193Y7133157D01*
X3366254Y7163205D01*
X3458955Y7184363D01*
X3490484Y7187916D01*
X3526065Y7194993D01*
X3742362Y7216297D01*
X3818892Y7224919D01*
X3829915Y7224919D01*
X3841510Y7226061D01*
X4158490Y7226061D01*
X4170085Y7224919D01*
G37*
G36*
X41170085Y7224919D02*
G01*
X41181108Y7224919D01*
X41257639Y7216296D01*
X41473934Y7194993D01*
X41509513Y7187916D01*
X41541045Y7184363D01*
X41633752Y7163204D01*
X41784806Y7133157D01*
X41843794Y7115263D01*
X41894179Y7103763D01*
X41975447Y7075326D01*
X42088142Y7041140D01*
X42169763Y7007332D01*
X42236067Y6984131D01*
X42299348Y6953657D01*
X42380982Y6919843D01*
X42484857Y6864321D01*
X42562412Y6826972D01*
X42606169Y6799478D01*
X42660526Y6770423D01*
X42788554Y6684877D01*
X42869108Y6634262D01*
X42893926Y6614471D01*
X42924077Y6594324D01*
X43092073Y6456453D01*
X43152299Y6408424D01*
X43160092Y6400631D01*
X43169099Y6393239D01*
X43393238Y6169100D01*
X43400629Y6160094D01*
X43408424Y6152299D01*
X43456458Y6092067D01*
X43594323Y5924078D01*
X43614468Y5893929D01*
X43634262Y5869108D01*
X43684882Y5788547D01*
X43770422Y5660527D01*
X43799473Y5606175D01*
X43826972Y5562412D01*
X43864324Y5484849D01*
X43919842Y5380983D01*
X43953652Y5299357D01*
X43984131Y5236067D01*
X44007334Y5169755D01*
X44041139Y5088143D01*
X44075320Y4975463D01*
X44103763Y4894179D01*
X44115265Y4843785D01*
X44133156Y4784807D01*
X44163197Y4633780D01*
X44184363Y4541045D01*
X44187916Y4509505D01*
X44194992Y4473935D01*
X44216293Y4257660D01*
X44224919Y4181108D01*
X44224919Y4170085D01*
X44226061Y4158490D01*
X44226061Y3841511D01*
X44224919Y3829917D01*
X44224919Y3818892D01*
X44216292Y3742334D01*
X44194992Y3526066D01*
X44187917Y3490498D01*
X44184363Y3458955D01*
X44163195Y3366214D01*
X44133156Y3215194D01*
X44115265Y3156220D01*
X44103763Y3105821D01*
X44075318Y3024532D01*
X44041139Y2911858D01*
X44007337Y2830253D01*
X43984131Y2763933D01*
X43953649Y2700637D01*
X43919842Y2619018D01*
X43864329Y2515162D01*
X43826972Y2437588D01*
X43799470Y2393820D01*
X43770422Y2339474D01*
X43684892Y2211471D01*
X43634262Y2130892D01*
X43614464Y2106067D01*
X43594323Y2075923D01*
X43456486Y1907970D01*
X43408424Y1847701D01*
X43400624Y1839902D01*
X43393238Y1830901D01*
X43169099Y1606762D01*
X43160098Y1599376D01*
X43152299Y1591576D01*
X43092030Y1543514D01*
X42924077Y1405677D01*
X42893933Y1385536D01*
X42869108Y1365738D01*
X42788529Y1315108D01*
X42660526Y1229578D01*
X42606180Y1200530D01*
X42562412Y1173028D01*
X42484838Y1135671D01*
X42380982Y1080158D01*
X42299363Y1046351D01*
X42236067Y1015869D01*
X42169747Y992663D01*
X42088142Y958861D01*
X41975468Y924682D01*
X41894179Y896237D01*
X41843780Y884735D01*
X41784806Y866844D01*
X41633786Y836805D01*
X41541045Y815637D01*
X41509502Y812083D01*
X41473934Y805008D01*
X41257661Y783707D01*
X41181108Y775081D01*
X41170085Y775081D01*
X41158490Y773939D01*
X40841510Y773939D01*
X40829915Y775081D01*
X40818892Y775081D01*
X40742340Y783707D01*
X40526065Y805008D01*
X40490495Y812084D01*
X40458955Y815637D01*
X40366220Y836803D01*
X40215193Y866844D01*
X40156215Y884735D01*
X40105821Y896237D01*
X40024537Y924680D01*
X39911857Y958861D01*
X39830245Y992666D01*
X39763933Y1015869D01*
X39700643Y1046348D01*
X39619017Y1080158D01*
X39515151Y1135676D01*
X39437588Y1173028D01*
X39393825Y1200527D01*
X39339473Y1229578D01*
X39211453Y1315118D01*
X39130892Y1365738D01*
X39106071Y1385532D01*
X39075922Y1405677D01*
X38907933Y1543542D01*
X38847701Y1591576D01*
X38839906Y1599371D01*
X38830900Y1606762D01*
X38606761Y1830901D01*
X38599369Y1839908D01*
X38591576Y1847701D01*
X38543547Y1907927D01*
X38405676Y2075923D01*
X38385529Y2106074D01*
X38365738Y2130892D01*
X38315123Y2211446D01*
X38229577Y2339474D01*
X38200522Y2393831D01*
X38173028Y2437588D01*
X38135679Y2515143D01*
X38080157Y2619018D01*
X38046343Y2700652D01*
X38015869Y2763933D01*
X37992668Y2830237D01*
X37958860Y2911858D01*
X37924674Y3024553D01*
X37896237Y3105821D01*
X37884737Y3156206D01*
X37866843Y3215194D01*
X37836796Y3366248D01*
X37815637Y3458955D01*
X37812084Y3490487D01*
X37805007Y3526066D01*
X37783704Y3742356D01*
X37775081Y3818892D01*
X37775081Y3829916D01*
X37773939Y3841511D01*
X37773939Y4158490D01*
X37775081Y4170086D01*
X37775081Y4181108D01*
X37783703Y4257638D01*
X37805007Y4473935D01*
X37812084Y4509516D01*
X37815637Y4541045D01*
X37836795Y4633746D01*
X37866843Y4784807D01*
X37884737Y4843799D01*
X37896237Y4894179D01*
X37924671Y4975441D01*
X37958860Y5088143D01*
X37992670Y5169770D01*
X38015869Y5236067D01*
X38046340Y5299343D01*
X38080157Y5380983D01*
X38135684Y5484868D01*
X38173028Y5562412D01*
X38200519Y5606165D01*
X38229577Y5660527D01*
X38315133Y5788572D01*
X38365738Y5869108D01*
X38385525Y5893921D01*
X38405676Y5924078D01*
X38543576Y6092110D01*
X38591576Y6152299D01*
X38599365Y6160089D01*
X38606761Y6169100D01*
X38830900Y6393239D01*
X38839911Y6400635D01*
X38847701Y6408424D01*
X38907890Y6456424D01*
X39075922Y6594324D01*
X39106079Y6614475D01*
X39130892Y6634262D01*
X39211428Y6684867D01*
X39339473Y6770423D01*
X39393835Y6799481D01*
X39437588Y6826972D01*
X39515132Y6864316D01*
X39619017Y6919843D01*
X39700657Y6953660D01*
X39763933Y6984131D01*
X39830230Y7007330D01*
X39911857Y7041140D01*
X40024559Y7075329D01*
X40105821Y7103763D01*
X40156201Y7115263D01*
X40215193Y7133157D01*
X40366254Y7163205D01*
X40458955Y7184363D01*
X40490484Y7187916D01*
X40526065Y7194993D01*
X40742362Y7216297D01*
X40818892Y7224919D01*
X40829915Y7224919D01*
X40841510Y7226061D01*
X41158490Y7226061D01*
X41170085Y7224919D01*
G37*
G36*
X13104106Y3865063D02*
G01*
X13108454Y3863143D01*
X13111499Y3862742D01*
X13149612Y3844970D01*
X13198238Y3823499D01*
X13270999Y3750738D01*
X13292479Y3702091D01*
X13310241Y3664000D01*
X13310641Y3660958D01*
X13312563Y3656606D01*
X13320000Y3592500D01*
X13320000Y2892500D01*
X13312563Y2828394D01*
X13310641Y2824042D01*
X13310241Y2821001D01*
X13292487Y2782929D01*
X13270999Y2734262D01*
X13198238Y2661501D01*
X13149571Y2640013D01*
X13111499Y2622259D01*
X13108458Y2621859D01*
X13104106Y2619937D01*
X13040000Y2612500D01*
X12140000Y2612500D01*
X12075894Y2619937D01*
X12071542Y2621859D01*
X12068500Y2622259D01*
X12030409Y2640021D01*
X11981762Y2661501D01*
X11909001Y2734262D01*
X11887530Y2782888D01*
X11869758Y2821001D01*
X11869357Y2824046D01*
X11867437Y2828394D01*
X11860000Y2892500D01*
X11860000Y3592500D01*
X11867437Y3656606D01*
X11869357Y3660955D01*
X11869758Y3664000D01*
X11887538Y3702131D01*
X11909001Y3750738D01*
X11981762Y3823499D01*
X12030369Y3844962D01*
X12068500Y3862742D01*
X12071545Y3863143D01*
X12075894Y3865063D01*
X12140000Y3872500D01*
X13040000Y3872500D01*
X13104106Y3865063D01*
G37*
G36*
X15104106Y3865063D02*
G01*
X15108454Y3863143D01*
X15111499Y3862742D01*
X15149612Y3844970D01*
X15198238Y3823499D01*
X15270999Y3750738D01*
X15292479Y3702091D01*
X15310241Y3664000D01*
X15310641Y3660958D01*
X15312563Y3656606D01*
X15320000Y3592500D01*
X15320000Y2892500D01*
X15312563Y2828394D01*
X15310641Y2824042D01*
X15310241Y2821001D01*
X15292487Y2782929D01*
X15270999Y2734262D01*
X15198238Y2661501D01*
X15149571Y2640013D01*
X15111499Y2622259D01*
X15108458Y2621859D01*
X15104106Y2619937D01*
X15040000Y2612500D01*
X14140000Y2612500D01*
X14075894Y2619937D01*
X14071542Y2621859D01*
X14068500Y2622259D01*
X14030409Y2640021D01*
X13981762Y2661501D01*
X13909001Y2734262D01*
X13887530Y2782888D01*
X13869758Y2821001D01*
X13869357Y2824046D01*
X13867437Y2828394D01*
X13860000Y2892500D01*
X13860000Y3592500D01*
X13867437Y3656606D01*
X13869357Y3660955D01*
X13869758Y3664000D01*
X13887538Y3702131D01*
X13909001Y3750738D01*
X13981762Y3823499D01*
X14030369Y3844962D01*
X14068500Y3862742D01*
X14071545Y3863143D01*
X14075894Y3865063D01*
X14140000Y3872500D01*
X15040000Y3872500D01*
X15104106Y3865063D01*
G37*
G36*
X17104106Y3865063D02*
G01*
X17108454Y3863143D01*
X17111499Y3862742D01*
X17149612Y3844970D01*
X17198238Y3823499D01*
X17270999Y3750738D01*
X17292479Y3702091D01*
X17310241Y3664000D01*
X17310641Y3660958D01*
X17312563Y3656606D01*
X17320000Y3592500D01*
X17320000Y2892500D01*
X17312563Y2828394D01*
X17310641Y2824042D01*
X17310241Y2821001D01*
X17292487Y2782929D01*
X17270999Y2734262D01*
X17198238Y2661501D01*
X17149571Y2640013D01*
X17111499Y2622259D01*
X17108458Y2621859D01*
X17104106Y2619937D01*
X17040000Y2612500D01*
X16140000Y2612500D01*
X16075894Y2619937D01*
X16071542Y2621859D01*
X16068500Y2622259D01*
X16030409Y2640021D01*
X15981762Y2661501D01*
X15909001Y2734262D01*
X15887530Y2782888D01*
X15869758Y2821001D01*
X15869357Y2824046D01*
X15867437Y2828394D01*
X15860000Y2892500D01*
X15860000Y3592500D01*
X15867437Y3656606D01*
X15869357Y3660955D01*
X15869758Y3664000D01*
X15887538Y3702131D01*
X15909001Y3750738D01*
X15981762Y3823499D01*
X16030369Y3844962D01*
X16068500Y3862742D01*
X16071545Y3863143D01*
X16075894Y3865063D01*
X16140000Y3872500D01*
X17040000Y3872500D01*
X17104106Y3865063D01*
G37*
G36*
X13104106Y5865063D02*
G01*
X13108454Y5863143D01*
X13111499Y5862742D01*
X13149612Y5844970D01*
X13198238Y5823499D01*
X13270999Y5750738D01*
X13292479Y5702091D01*
X13310241Y5664000D01*
X13310641Y5660958D01*
X13312563Y5656606D01*
X13320000Y5592500D01*
X13320000Y4892500D01*
X13312563Y4828394D01*
X13310641Y4824042D01*
X13310241Y4821001D01*
X13292487Y4782929D01*
X13270999Y4734262D01*
X13198238Y4661501D01*
X13149571Y4640013D01*
X13111499Y4622259D01*
X13108458Y4621859D01*
X13104106Y4619937D01*
X13040000Y4612500D01*
X12140000Y4612500D01*
X12075894Y4619937D01*
X12071542Y4621859D01*
X12068500Y4622259D01*
X12030409Y4640021D01*
X11981762Y4661501D01*
X11909001Y4734262D01*
X11887530Y4782888D01*
X11869758Y4821001D01*
X11869357Y4824046D01*
X11867437Y4828394D01*
X11860000Y4892500D01*
X11860000Y5592500D01*
X11867437Y5656606D01*
X11869357Y5660955D01*
X11869758Y5664000D01*
X11887538Y5702131D01*
X11909001Y5750738D01*
X11981762Y5823499D01*
X12030369Y5844962D01*
X12068500Y5862742D01*
X12071545Y5863143D01*
X12075894Y5865063D01*
X12140000Y5872500D01*
X13040000Y5872500D01*
X13104106Y5865063D01*
G37*
G36*
X15104106Y5865063D02*
G01*
X15108454Y5863143D01*
X15111499Y5862742D01*
X15149612Y5844970D01*
X15198238Y5823499D01*
X15270999Y5750738D01*
X15292479Y5702091D01*
X15310241Y5664000D01*
X15310641Y5660958D01*
X15312563Y5656606D01*
X15320000Y5592500D01*
X15320000Y4892500D01*
X15312563Y4828394D01*
X15310641Y4824042D01*
X15310241Y4821001D01*
X15292487Y4782929D01*
X15270999Y4734262D01*
X15198238Y4661501D01*
X15149571Y4640013D01*
X15111499Y4622259D01*
X15108458Y4621859D01*
X15104106Y4619937D01*
X15040000Y4612500D01*
X14140000Y4612500D01*
X14075894Y4619937D01*
X14071542Y4621859D01*
X14068500Y4622259D01*
X14030409Y4640021D01*
X13981762Y4661501D01*
X13909001Y4734262D01*
X13887530Y4782888D01*
X13869758Y4821001D01*
X13869357Y4824046D01*
X13867437Y4828394D01*
X13860000Y4892500D01*
X13860000Y5592500D01*
X13867437Y5656606D01*
X13869357Y5660955D01*
X13869758Y5664000D01*
X13887538Y5702131D01*
X13909001Y5750738D01*
X13981762Y5823499D01*
X14030369Y5844962D01*
X14068500Y5862742D01*
X14071545Y5863143D01*
X14075894Y5865063D01*
X14140000Y5872500D01*
X15040000Y5872500D01*
X15104106Y5865063D01*
G37*
G36*
X17104106Y5865063D02*
G01*
X17108454Y5863143D01*
X17111499Y5862742D01*
X17149612Y5844970D01*
X17198238Y5823499D01*
X17270999Y5750738D01*
X17292479Y5702091D01*
X17310241Y5664000D01*
X17310641Y5660958D01*
X17312563Y5656606D01*
X17320000Y5592500D01*
X17320000Y4892500D01*
X17312563Y4828394D01*
X17310641Y4824042D01*
X17310241Y4821001D01*
X17292487Y4782929D01*
X17270999Y4734262D01*
X17198238Y4661501D01*
X17149571Y4640013D01*
X17111499Y4622259D01*
X17108458Y4621859D01*
X17104106Y4619937D01*
X17040000Y4612500D01*
X16140000Y4612500D01*
X16075894Y4619937D01*
X16071542Y4621859D01*
X16068500Y4622259D01*
X16030409Y4640021D01*
X15981762Y4661501D01*
X15909001Y4734262D01*
X15887530Y4782888D01*
X15869758Y4821001D01*
X15869357Y4824046D01*
X15867437Y4828394D01*
X15860000Y4892500D01*
X15860000Y5592500D01*
X15867437Y5656606D01*
X15869357Y5660955D01*
X15869758Y5664000D01*
X15887538Y5702131D01*
X15909001Y5750738D01*
X15981762Y5823499D01*
X16030369Y5844962D01*
X16068500Y5862742D01*
X16071545Y5863143D01*
X16075894Y5865063D01*
X16140000Y5872500D01*
X17040000Y5872500D01*
X17104106Y5865063D01*
G37*
G36*
X30689106Y9415063D02*
G01*
X30693454Y9413143D01*
X30696499Y9412742D01*
X30734612Y9394970D01*
X30783238Y9373499D01*
X30855999Y9300738D01*
X30877479Y9252091D01*
X30895241Y9214000D01*
X30895641Y9210958D01*
X30897563Y9206606D01*
X30905000Y9142500D01*
X30905000Y8242500D01*
X30897563Y8178394D01*
X30895641Y8174042D01*
X30895241Y8171001D01*
X30877487Y8132929D01*
X30855999Y8084262D01*
X30783238Y8011501D01*
X30734571Y7990013D01*
X30696499Y7972259D01*
X30693458Y7971859D01*
X30689106Y7969937D01*
X30625000Y7962500D01*
X29975000Y7962500D01*
X29910894Y7969937D01*
X29906542Y7971859D01*
X29903500Y7972259D01*
X29865409Y7990021D01*
X29816762Y8011501D01*
X29744001Y8084262D01*
X29722530Y8132888D01*
X29704758Y8171001D01*
X29704357Y8174046D01*
X29702437Y8178394D01*
X29695000Y8242500D01*
X29695000Y9142500D01*
X29702437Y9206606D01*
X29704357Y9210955D01*
X29704758Y9214000D01*
X29722538Y9252131D01*
X29744001Y9300738D01*
X29816762Y9373499D01*
X29865369Y9394962D01*
X29903500Y9412742D01*
X29906545Y9413143D01*
X29910894Y9415063D01*
X29975000Y9422500D01*
X30625000Y9422500D01*
X30689106Y9415063D01*
G37*
G36*
X32739106Y9415063D02*
G01*
X32743454Y9413143D01*
X32746499Y9412742D01*
X32784612Y9394970D01*
X32833238Y9373499D01*
X32905999Y9300738D01*
X32927479Y9252091D01*
X32945241Y9214000D01*
X32945641Y9210958D01*
X32947563Y9206606D01*
X32955000Y9142500D01*
X32955000Y8242500D01*
X32947563Y8178394D01*
X32945641Y8174042D01*
X32945241Y8171001D01*
X32927487Y8132929D01*
X32905999Y8084262D01*
X32833238Y8011501D01*
X32784571Y7990013D01*
X32746499Y7972259D01*
X32743458Y7971859D01*
X32739106Y7969937D01*
X32675000Y7962500D01*
X32025000Y7962500D01*
X31960894Y7969937D01*
X31956542Y7971859D01*
X31953500Y7972259D01*
X31915409Y7990021D01*
X31866762Y8011501D01*
X31794001Y8084262D01*
X31772530Y8132888D01*
X31754758Y8171001D01*
X31754357Y8174046D01*
X31752437Y8178394D01*
X31745000Y8242500D01*
X31745000Y9142500D01*
X31752437Y9206606D01*
X31754357Y9210955D01*
X31754758Y9214000D01*
X31772538Y9252131D01*
X31794001Y9300738D01*
X31866762Y9373499D01*
X31915369Y9394962D01*
X31953500Y9412742D01*
X31956545Y9413143D01*
X31960894Y9415063D01*
X32025000Y9422500D01*
X32675000Y9422500D01*
X32739106Y9415063D01*
G37*
G36*
X28650731Y9659358D02*
G01*
X28707280Y9652797D01*
X28726601Y9644267D01*
X28749868Y9639638D01*
X28774775Y9622996D01*
X28798280Y9612617D01*
X28814334Y9596563D01*
X28836651Y9581651D01*
X28851562Y9559335D01*
X28867616Y9543281D01*
X28877993Y9519778D01*
X28894638Y9494868D01*
X28899266Y9471600D01*
X28907795Y9452284D01*
X28914352Y9395755D01*
X28915000Y9392500D01*
X28915000Y8792500D01*
X28914354Y8789257D01*
X28907796Y8732720D01*
X28899266Y8713404D01*
X28894638Y8690132D01*
X28877992Y8665220D01*
X28867616Y8641720D01*
X28851564Y8625669D01*
X28836651Y8603349D01*
X28814331Y8588436D01*
X28798280Y8572384D01*
X28774779Y8562008D01*
X28749868Y8545362D01*
X28726597Y8540734D01*
X28707283Y8532205D01*
X28650755Y8525648D01*
X28647500Y8525000D01*
X28172500Y8525000D01*
X28169258Y8525645D01*
X28112719Y8532204D01*
X28093401Y8540734D01*
X28070132Y8545362D01*
X28045221Y8562007D01*
X28021719Y8572384D01*
X28005665Y8588438D01*
X27983349Y8603349D01*
X27968437Y8625666D01*
X27952383Y8641720D01*
X27942004Y8665225D01*
X27925362Y8690132D01*
X27920734Y8713398D01*
X27912204Y8732717D01*
X27905645Y8789257D01*
X27905000Y8792500D01*
X27905000Y9392500D01*
X27905642Y9395730D01*
X27912203Y9452281D01*
X27920734Y9471603D01*
X27925362Y9494868D01*
X27942003Y9519774D01*
X27952383Y9543281D01*
X27968439Y9559338D01*
X27983349Y9581651D01*
X28005662Y9596561D01*
X28021719Y9612617D01*
X28045226Y9622997D01*
X28070132Y9639638D01*
X28093396Y9644266D01*
X28112716Y9652796D01*
X28169257Y9659356D01*
X28172500Y9660000D01*
X28647500Y9660000D01*
X28650731Y9659358D01*
G37*
G36*
X23421634Y11251194D02*
G01*
X23437855Y11240355D01*
X23448694Y11224134D01*
X23452500Y11205000D01*
X23452500Y8955000D01*
X23448694Y8935866D01*
X23437855Y8919645D01*
X23421634Y8908806D01*
X23402500Y8905000D01*
X21902500Y8905000D01*
X21883366Y8908806D01*
X21867145Y8919645D01*
X21856306Y8935866D01*
X21852500Y8955000D01*
X21852500Y11205000D01*
X21856306Y11224134D01*
X21867145Y11240355D01*
X21883366Y11251194D01*
X21902500Y11255000D01*
X23402500Y11255000D01*
X23421634Y11251194D01*
G37*
G36*
X21720800Y9283625D02*
G01*
X21747970Y9265470D01*
X21766125Y9238300D01*
X21772500Y9206250D01*
X21772500Y9003750D01*
X21766125Y8971700D01*
X21747970Y8944530D01*
X21720800Y8926375D01*
X21688750Y8920000D01*
X20836250Y8920000D01*
X20804200Y8926375D01*
X20777030Y8944530D01*
X20758875Y8971700D01*
X20752500Y9003750D01*
X20752500Y9206250D01*
X20758875Y9238300D01*
X20777030Y9265470D01*
X20804200Y9283625D01*
X20836250Y9290000D01*
X21688750Y9290000D01*
X21720800Y9283625D01*
G37*
G36*
X24500800Y9283625D02*
G01*
X24527970Y9265470D01*
X24546125Y9238300D01*
X24552500Y9206250D01*
X24552500Y9003750D01*
X24546125Y8971700D01*
X24527970Y8944530D01*
X24500800Y8926375D01*
X24468750Y8920000D01*
X23616250Y8920000D01*
X23584200Y8926375D01*
X23557030Y8944530D01*
X23538875Y8971700D01*
X23532500Y9003750D01*
X23532500Y9206250D01*
X23538875Y9238300D01*
X23557030Y9265470D01*
X23584200Y9283625D01*
X23616250Y9290000D01*
X24468750Y9290000D01*
X24500800Y9283625D01*
G37*
G36*
X12829106Y11015063D02*
G01*
X12833454Y11013143D01*
X12836499Y11012742D01*
X12874612Y10994970D01*
X12923238Y10973499D01*
X12995999Y10900738D01*
X13017479Y10852091D01*
X13035241Y10814000D01*
X13035641Y10810958D01*
X13037563Y10806606D01*
X13045000Y10742500D01*
X13045000Y9842500D01*
X13037563Y9778394D01*
X13035641Y9774042D01*
X13035241Y9771001D01*
X13017487Y9732929D01*
X12995999Y9684262D01*
X12923238Y9611501D01*
X12874571Y9590013D01*
X12836499Y9572259D01*
X12833458Y9571859D01*
X12829106Y9569937D01*
X12765000Y9562500D01*
X12115000Y9562500D01*
X12050894Y9569937D01*
X12046542Y9571859D01*
X12043500Y9572259D01*
X12005409Y9590021D01*
X11956762Y9611501D01*
X11884001Y9684262D01*
X11862530Y9732888D01*
X11844758Y9771001D01*
X11844357Y9774046D01*
X11842437Y9778394D01*
X11835000Y9842500D01*
X11835000Y10742500D01*
X11842437Y10806606D01*
X11844357Y10810955D01*
X11844758Y10814000D01*
X11862538Y10852131D01*
X11884001Y10900738D01*
X11956762Y10973499D01*
X12005369Y10994962D01*
X12043500Y11012742D01*
X12046545Y11013143D01*
X12050894Y11015063D01*
X12115000Y11022500D01*
X12765000Y11022500D01*
X12829106Y11015063D01*
G37*
G36*
X14879106Y11015063D02*
G01*
X14883454Y11013143D01*
X14886499Y11012742D01*
X14924612Y10994970D01*
X14973238Y10973499D01*
X15045999Y10900738D01*
X15067479Y10852091D01*
X15085241Y10814000D01*
X15085641Y10810958D01*
X15087563Y10806606D01*
X15095000Y10742500D01*
X15095000Y9842500D01*
X15087563Y9778394D01*
X15085641Y9774042D01*
X15085241Y9771001D01*
X15067487Y9732929D01*
X15045999Y9684262D01*
X14973238Y9611501D01*
X14924571Y9590013D01*
X14886499Y9572259D01*
X14883458Y9571859D01*
X14879106Y9569937D01*
X14815000Y9562500D01*
X14165000Y9562500D01*
X14100894Y9569937D01*
X14096542Y9571859D01*
X14093500Y9572259D01*
X14055409Y9590021D01*
X14006762Y9611501D01*
X13934001Y9684262D01*
X13912530Y9732888D01*
X13894758Y9771001D01*
X13894357Y9774046D01*
X13892437Y9778394D01*
X13885000Y9842500D01*
X13885000Y10742500D01*
X13892437Y10806606D01*
X13894357Y10810955D01*
X13894758Y10814000D01*
X13912538Y10852131D01*
X13934001Y10900738D01*
X14006762Y10973499D01*
X14055369Y10994962D01*
X14093500Y11012742D01*
X14096545Y11013143D01*
X14100894Y11015063D01*
X14165000Y11022500D01*
X14815000Y11022500D01*
X14879106Y11015063D01*
G37*
G36*
X21720800Y9933625D02*
G01*
X21747970Y9915470D01*
X21766125Y9888300D01*
X21772500Y9856250D01*
X21772500Y9653750D01*
X21766125Y9621700D01*
X21747970Y9594530D01*
X21720800Y9576375D01*
X21688750Y9570000D01*
X20836250Y9570000D01*
X20804200Y9576375D01*
X20777030Y9594530D01*
X20758875Y9621700D01*
X20752500Y9653750D01*
X20752500Y9856250D01*
X20758875Y9888300D01*
X20777030Y9915470D01*
X20804200Y9933625D01*
X20836250Y9940000D01*
X21688750Y9940000D01*
X21720800Y9933625D01*
G37*
G36*
X24500800Y9933625D02*
G01*
X24527970Y9915470D01*
X24546125Y9888300D01*
X24552500Y9856250D01*
X24552500Y9653750D01*
X24546125Y9621700D01*
X24527970Y9594530D01*
X24500800Y9576375D01*
X24468750Y9570000D01*
X23616250Y9570000D01*
X23584200Y9576375D01*
X23557030Y9594530D01*
X23538875Y9621700D01*
X23532500Y9653750D01*
X23532500Y9856250D01*
X23538875Y9888300D01*
X23557030Y9915470D01*
X23584200Y9933625D01*
X23616250Y9940000D01*
X24468750Y9940000D01*
X24500800Y9933625D01*
G37*
G36*
X16640731Y11259358D02*
G01*
X16697280Y11252797D01*
X16716601Y11244267D01*
X16739868Y11239638D01*
X16764775Y11222996D01*
X16788280Y11212617D01*
X16804334Y11196563D01*
X16826651Y11181651D01*
X16841562Y11159335D01*
X16857616Y11143281D01*
X16867993Y11119778D01*
X16884638Y11094868D01*
X16889266Y11071600D01*
X16897795Y11052284D01*
X16904352Y10995755D01*
X16905000Y10992500D01*
X16905000Y10392500D01*
X16904354Y10389257D01*
X16897796Y10332720D01*
X16889266Y10313404D01*
X16884638Y10290132D01*
X16867992Y10265220D01*
X16857616Y10241720D01*
X16841564Y10225669D01*
X16826651Y10203349D01*
X16804331Y10188436D01*
X16788280Y10172384D01*
X16764779Y10162008D01*
X16739868Y10145362D01*
X16716597Y10140734D01*
X16697283Y10132205D01*
X16640755Y10125648D01*
X16637500Y10125000D01*
X16162500Y10125000D01*
X16159258Y10125645D01*
X16102719Y10132204D01*
X16083401Y10140734D01*
X16060132Y10145362D01*
X16035221Y10162007D01*
X16011719Y10172384D01*
X15995665Y10188438D01*
X15973349Y10203349D01*
X15958437Y10225666D01*
X15942383Y10241720D01*
X15932004Y10265225D01*
X15915362Y10290132D01*
X15910734Y10313398D01*
X15902204Y10332717D01*
X15895645Y10389257D01*
X15895000Y10392500D01*
X15895000Y10992500D01*
X15895642Y10995730D01*
X15902203Y11052281D01*
X15910734Y11071603D01*
X15915362Y11094868D01*
X15932003Y11119774D01*
X15942383Y11143281D01*
X15958439Y11159338D01*
X15973349Y11181651D01*
X15995662Y11196561D01*
X16011719Y11212617D01*
X16035226Y11222997D01*
X16060132Y11239638D01*
X16083396Y11244266D01*
X16102716Y11252796D01*
X16159257Y11259356D01*
X16162500Y11260000D01*
X16637500Y11260000D01*
X16640731Y11259358D01*
G37*
G36*
X30714106Y11615063D02*
G01*
X30718454Y11613143D01*
X30721499Y11612742D01*
X30759612Y11594970D01*
X30808238Y11573499D01*
X30880999Y11500738D01*
X30902479Y11452091D01*
X30920241Y11414000D01*
X30920641Y11410958D01*
X30922563Y11406606D01*
X30930000Y11342500D01*
X30930000Y10442500D01*
X30922563Y10378394D01*
X30920641Y10374042D01*
X30920241Y10371001D01*
X30902487Y10332929D01*
X30880999Y10284262D01*
X30808238Y10211501D01*
X30759571Y10190013D01*
X30721499Y10172259D01*
X30718458Y10171859D01*
X30714106Y10169937D01*
X30650000Y10162500D01*
X29950000Y10162500D01*
X29885894Y10169937D01*
X29881542Y10171859D01*
X29878500Y10172259D01*
X29840409Y10190021D01*
X29791762Y10211501D01*
X29719001Y10284262D01*
X29697530Y10332888D01*
X29679758Y10371001D01*
X29679357Y10374046D01*
X29677437Y10378394D01*
X29670000Y10442500D01*
X29670000Y11342500D01*
X29677437Y11406606D01*
X29679357Y11410955D01*
X29679758Y11414000D01*
X29697538Y11452131D01*
X29719001Y11500738D01*
X29791762Y11573499D01*
X29840369Y11594962D01*
X29878500Y11612742D01*
X29881545Y11613143D01*
X29885894Y11615063D01*
X29950000Y11622500D01*
X30650000Y11622500D01*
X30714106Y11615063D01*
G37*
G36*
X32714106Y11615063D02*
G01*
X32718454Y11613143D01*
X32721499Y11612742D01*
X32759612Y11594970D01*
X32808238Y11573499D01*
X32880999Y11500738D01*
X32902479Y11452091D01*
X32920241Y11414000D01*
X32920641Y11410958D01*
X32922563Y11406606D01*
X32930000Y11342500D01*
X32930000Y10442500D01*
X32922563Y10378394D01*
X32920641Y10374042D01*
X32920241Y10371001D01*
X32902487Y10332929D01*
X32880999Y10284262D01*
X32808238Y10211501D01*
X32759571Y10190013D01*
X32721499Y10172259D01*
X32718458Y10171859D01*
X32714106Y10169937D01*
X32650000Y10162500D01*
X31950000Y10162500D01*
X31885894Y10169937D01*
X31881542Y10171859D01*
X31878500Y10172259D01*
X31840409Y10190021D01*
X31791762Y10211501D01*
X31719001Y10284262D01*
X31697530Y10332888D01*
X31679758Y10371001D01*
X31679357Y10374046D01*
X31677437Y10378394D01*
X31670000Y10442500D01*
X31670000Y11342500D01*
X31677437Y11406606D01*
X31679357Y11410955D01*
X31679758Y11414000D01*
X31697538Y11452131D01*
X31719001Y11500738D01*
X31791762Y11573499D01*
X31840369Y11594962D01*
X31878500Y11612742D01*
X31881545Y11613143D01*
X31885894Y11615063D01*
X31950000Y11622500D01*
X32650000Y11622500D01*
X32714106Y11615063D01*
G37*
G36*
X21720800Y10583625D02*
G01*
X21747970Y10565470D01*
X21766125Y10538300D01*
X21772500Y10506250D01*
X21772500Y10303750D01*
X21766125Y10271700D01*
X21747970Y10244530D01*
X21720800Y10226375D01*
X21688750Y10220000D01*
X20836250Y10220000D01*
X20804200Y10226375D01*
X20777030Y10244530D01*
X20758875Y10271700D01*
X20752500Y10303750D01*
X20752500Y10506250D01*
X20758875Y10538300D01*
X20777030Y10565470D01*
X20804200Y10583625D01*
X20836250Y10590000D01*
X21688750Y10590000D01*
X21720800Y10583625D01*
G37*
G36*
X24500800Y10583625D02*
G01*
X24527970Y10565470D01*
X24546125Y10538300D01*
X24552500Y10506250D01*
X24552500Y10303750D01*
X24546125Y10271700D01*
X24527970Y10244530D01*
X24500800Y10226375D01*
X24468750Y10220000D01*
X23616250Y10220000D01*
X23584200Y10226375D01*
X23557030Y10244530D01*
X23538875Y10271700D01*
X23532500Y10303750D01*
X23532500Y10506250D01*
X23538875Y10538300D01*
X23557030Y10565470D01*
X23584200Y10583625D01*
X23616250Y10590000D01*
X24468750Y10590000D01*
X24500800Y10583625D01*
G37*
G36*
X28650731Y11384358D02*
G01*
X28707280Y11377797D01*
X28726601Y11369267D01*
X28749868Y11364638D01*
X28774775Y11347996D01*
X28798280Y11337617D01*
X28814334Y11321563D01*
X28836651Y11306651D01*
X28851562Y11284335D01*
X28867616Y11268281D01*
X28877993Y11244778D01*
X28894638Y11219868D01*
X28899266Y11196600D01*
X28907795Y11177284D01*
X28914352Y11120755D01*
X28915000Y11117500D01*
X28915000Y10517500D01*
X28914354Y10514257D01*
X28907796Y10457720D01*
X28899266Y10438404D01*
X28894638Y10415132D01*
X28877992Y10390220D01*
X28867616Y10366720D01*
X28851564Y10350669D01*
X28836651Y10328349D01*
X28814331Y10313436D01*
X28798280Y10297384D01*
X28774779Y10287008D01*
X28749868Y10270362D01*
X28726597Y10265734D01*
X28707283Y10257205D01*
X28650755Y10250648D01*
X28647500Y10250000D01*
X28172500Y10250000D01*
X28169258Y10250645D01*
X28112719Y10257204D01*
X28093401Y10265734D01*
X28070132Y10270362D01*
X28045221Y10287007D01*
X28021719Y10297384D01*
X28005665Y10313438D01*
X27983349Y10328349D01*
X27968437Y10350666D01*
X27952383Y10366720D01*
X27942004Y10390225D01*
X27925362Y10415132D01*
X27920734Y10438398D01*
X27912204Y10457717D01*
X27905645Y10514257D01*
X27905000Y10517500D01*
X27905000Y11117500D01*
X27905642Y11120730D01*
X27912203Y11177281D01*
X27920734Y11196603D01*
X27925362Y11219868D01*
X27942003Y11244774D01*
X27952383Y11268281D01*
X27968439Y11284338D01*
X27983349Y11306651D01*
X28005662Y11321561D01*
X28021719Y11337617D01*
X28045226Y11347997D01*
X28070132Y11364638D01*
X28093396Y11369266D01*
X28112716Y11377796D01*
X28169257Y11384356D01*
X28172500Y11385000D01*
X28647500Y11385000D01*
X28650731Y11384358D01*
G37*
G36*
X42180451Y12262107D02*
G01*
X42339829Y12196091D01*
X42483266Y12100249D01*
X42605249Y11978266D01*
X42701091Y11834829D01*
X42767107Y11675451D01*
X42800763Y11506255D01*
X42800763Y11333745D01*
X42767107Y11164549D01*
X42701091Y11005171D01*
X42605249Y10861734D01*
X42483266Y10739751D01*
X42339829Y10643909D01*
X42180451Y10577893D01*
X42011255Y10544237D01*
X41838745Y10544237D01*
X41669549Y10577893D01*
X41510171Y10643909D01*
X41366734Y10739751D01*
X41244751Y10861734D01*
X41148909Y11005171D01*
X41082893Y11164549D01*
X41049237Y11333745D01*
X41049237Y11506255D01*
X41082893Y11675451D01*
X41148909Y11834829D01*
X41244751Y11978266D01*
X41366734Y12100249D01*
X41510171Y12196091D01*
X41669549Y12262107D01*
X41838745Y12295763D01*
X42011255Y12295763D01*
X42180451Y12262107D01*
G37*
G36*
X3455451Y12272107D02*
G01*
X3614829Y12206091D01*
X3758266Y12110249D01*
X3880249Y11988266D01*
X3976091Y11844829D01*
X4042107Y11685451D01*
X4075763Y11516255D01*
X4075763Y11343745D01*
X4042107Y11174549D01*
X3976091Y11015171D01*
X3880249Y10871734D01*
X3758266Y10749751D01*
X3614829Y10653909D01*
X3455451Y10587893D01*
X3286255Y10554237D01*
X3113745Y10554237D01*
X2944549Y10587893D01*
X2785171Y10653909D01*
X2641734Y10749751D01*
X2519751Y10871734D01*
X2423909Y11015171D01*
X2357893Y11174549D01*
X2324237Y11343745D01*
X2324237Y11516255D01*
X2357893Y11685451D01*
X2423909Y11844829D01*
X2519751Y11988266D01*
X2641734Y12110249D01*
X2785171Y12206091D01*
X2944549Y12272107D01*
X3113745Y12305763D01*
X3286255Y12305763D01*
X3455451Y12272107D01*
G37*
G36*
X21720800Y11233625D02*
G01*
X21747970Y11215470D01*
X21766125Y11188300D01*
X21772500Y11156250D01*
X21772500Y10953750D01*
X21766125Y10921700D01*
X21747970Y10894530D01*
X21720800Y10876375D01*
X21688750Y10870000D01*
X20836250Y10870000D01*
X20804200Y10876375D01*
X20777030Y10894530D01*
X20758875Y10921700D01*
X20752500Y10953750D01*
X20752500Y11156250D01*
X20758875Y11188300D01*
X20777030Y11215470D01*
X20804200Y11233625D01*
X20836250Y11240000D01*
X21688750Y11240000D01*
X21720800Y11233625D01*
G37*
G36*
X24500800Y11233625D02*
G01*
X24527970Y11215470D01*
X24546125Y11188300D01*
X24552500Y11156250D01*
X24552500Y10953750D01*
X24546125Y10921700D01*
X24527970Y10894530D01*
X24500800Y10876375D01*
X24468750Y10870000D01*
X23616250Y10870000D01*
X23584200Y10876375D01*
X23557030Y10894530D01*
X23538875Y10921700D01*
X23532500Y10953750D01*
X23532500Y11156250D01*
X23538875Y11188300D01*
X23557030Y11215470D01*
X23584200Y11233625D01*
X23616250Y11240000D01*
X24468750Y11240000D01*
X24500800Y11233625D01*
G37*
G36*
X12904106Y13215063D02*
G01*
X12908454Y13213143D01*
X12911499Y13212742D01*
X12949612Y13194970D01*
X12998238Y13173499D01*
X13070999Y13100738D01*
X13092479Y13052091D01*
X13110241Y13014000D01*
X13110641Y13010958D01*
X13112563Y13006606D01*
X13120000Y12942500D01*
X13120000Y12042500D01*
X13112563Y11978394D01*
X13110641Y11974042D01*
X13110241Y11971001D01*
X13092487Y11932929D01*
X13070999Y11884262D01*
X12998238Y11811501D01*
X12949571Y11790013D01*
X12911499Y11772259D01*
X12908458Y11771859D01*
X12904106Y11769937D01*
X12840000Y11762500D01*
X12140000Y11762500D01*
X12075894Y11769937D01*
X12071542Y11771859D01*
X12068500Y11772259D01*
X12030409Y11790021D01*
X11981762Y11811501D01*
X11909001Y11884262D01*
X11887530Y11932888D01*
X11869758Y11971001D01*
X11869357Y11974046D01*
X11867437Y11978394D01*
X11860000Y12042500D01*
X11860000Y12942500D01*
X11867437Y13006606D01*
X11869357Y13010955D01*
X11869758Y13014000D01*
X11887538Y13052131D01*
X11909001Y13100738D01*
X11981762Y13173499D01*
X12030369Y13194962D01*
X12068500Y13212742D01*
X12071545Y13213143D01*
X12075894Y13215063D01*
X12140000Y13222500D01*
X12840000Y13222500D01*
X12904106Y13215063D01*
G37*
G36*
X14904106Y13215063D02*
G01*
X14908454Y13213143D01*
X14911499Y13212742D01*
X14949612Y13194970D01*
X14998238Y13173499D01*
X15070999Y13100738D01*
X15092479Y13052091D01*
X15110241Y13014000D01*
X15110641Y13010958D01*
X15112563Y13006606D01*
X15120000Y12942500D01*
X15120000Y12042500D01*
X15112563Y11978394D01*
X15110641Y11974042D01*
X15110241Y11971001D01*
X15092487Y11932929D01*
X15070999Y11884262D01*
X14998238Y11811501D01*
X14949571Y11790013D01*
X14911499Y11772259D01*
X14908458Y11771859D01*
X14904106Y11769937D01*
X14840000Y11762500D01*
X14140000Y11762500D01*
X14075894Y11769937D01*
X14071542Y11771859D01*
X14068500Y11772259D01*
X14030409Y11790021D01*
X13981762Y11811501D01*
X13909001Y11884262D01*
X13887530Y11932888D01*
X13869758Y11971001D01*
X13869357Y11974046D01*
X13867437Y11978394D01*
X13860000Y12042500D01*
X13860000Y12942500D01*
X13867437Y13006606D01*
X13869357Y13010955D01*
X13869758Y13014000D01*
X13887538Y13052131D01*
X13909001Y13100738D01*
X13981762Y13173499D01*
X14030369Y13194962D01*
X14068500Y13212742D01*
X14071545Y13213143D01*
X14075894Y13215063D01*
X14140000Y13222500D01*
X14840000Y13222500D01*
X14904106Y13215063D01*
G37*
G36*
X16640731Y12984358D02*
G01*
X16697280Y12977797D01*
X16716601Y12969267D01*
X16739868Y12964638D01*
X16764775Y12947996D01*
X16788280Y12937617D01*
X16804334Y12921563D01*
X16826651Y12906651D01*
X16841562Y12884335D01*
X16857616Y12868281D01*
X16867993Y12844778D01*
X16884638Y12819868D01*
X16889266Y12796600D01*
X16897795Y12777284D01*
X16904352Y12720755D01*
X16905000Y12717500D01*
X16905000Y12117500D01*
X16904354Y12114257D01*
X16897796Y12057720D01*
X16889266Y12038404D01*
X16884638Y12015132D01*
X16867992Y11990220D01*
X16857616Y11966720D01*
X16841564Y11950669D01*
X16826651Y11928349D01*
X16804331Y11913436D01*
X16788280Y11897384D01*
X16764779Y11887008D01*
X16739868Y11870362D01*
X16716597Y11865734D01*
X16697283Y11857205D01*
X16640755Y11850648D01*
X16637500Y11850000D01*
X16162500Y11850000D01*
X16159258Y11850645D01*
X16102719Y11857204D01*
X16083401Y11865734D01*
X16060132Y11870362D01*
X16035221Y11887007D01*
X16011719Y11897384D01*
X15995665Y11913438D01*
X15973349Y11928349D01*
X15958437Y11950666D01*
X15942383Y11966720D01*
X15932004Y11990225D01*
X15915362Y12015132D01*
X15910734Y12038398D01*
X15902204Y12057717D01*
X15895645Y12114257D01*
X15895000Y12117500D01*
X15895000Y12717500D01*
X15895642Y12720730D01*
X15902203Y12777281D01*
X15910734Y12796603D01*
X15915362Y12819868D01*
X15932003Y12844774D01*
X15942383Y12868281D01*
X15958439Y12884338D01*
X15973349Y12906651D01*
X15995662Y12921561D01*
X16011719Y12937617D01*
X16035226Y12947997D01*
X16060132Y12964638D01*
X16083396Y12969266D01*
X16102716Y12977796D01*
X16159257Y12984356D01*
X16162500Y12985000D01*
X16637500Y12985000D01*
X16640731Y12984358D01*
G37*
G36*
X42786481Y14837716D02*
G01*
X42796213Y14831213D01*
X42802716Y14821481D01*
X42805000Y14810000D01*
X42805000Y13110000D01*
X42802716Y13098519D01*
X42796213Y13088787D01*
X42786481Y13082284D01*
X42775000Y13080000D01*
X41075000Y13080000D01*
X41063519Y13082284D01*
X41053787Y13088787D01*
X41047284Y13098519D01*
X41045000Y13110000D01*
X41045000Y14810000D01*
X41047284Y14821481D01*
X41053787Y14831213D01*
X41063519Y14837716D01*
X41075000Y14840000D01*
X42775000Y14840000D01*
X42786481Y14837716D01*
G37*
G36*
X4061481Y14847716D02*
G01*
X4071213Y14841213D01*
X4077716Y14831481D01*
X4080000Y14820000D01*
X4080000Y13120000D01*
X4077716Y13108519D01*
X4071213Y13098787D01*
X4061481Y13092284D01*
X4050000Y13090000D01*
X2350000Y13090000D01*
X2338519Y13092284D01*
X2328787Y13098787D01*
X2322284Y13108519D01*
X2320000Y13120000D01*
X2320000Y14820000D01*
X2322284Y14831481D01*
X2328787Y14841213D01*
X2338519Y14847716D01*
X2350000Y14850000D01*
X4050000Y14850000D01*
X4061481Y14847716D01*
G37*
G36*
X17814106Y15222563D02*
G01*
X17818454Y15220643D01*
X17821499Y15220242D01*
X17859612Y15202470D01*
X17908238Y15180999D01*
X17980999Y15108238D01*
X18002479Y15059591D01*
X18020241Y15021500D01*
X18020641Y15018458D01*
X18022563Y15014106D01*
X18030000Y14950000D01*
X18030000Y14250000D01*
X18022563Y14185894D01*
X18020641Y14181542D01*
X18020241Y14178501D01*
X18002487Y14140429D01*
X17980999Y14091762D01*
X17908238Y14019001D01*
X17859571Y13997513D01*
X17821499Y13979759D01*
X17818458Y13979359D01*
X17814106Y13977437D01*
X17750000Y13970000D01*
X16850000Y13970000D01*
X16785894Y13977437D01*
X16781542Y13979359D01*
X16778500Y13979759D01*
X16740409Y13997521D01*
X16691762Y14019001D01*
X16619001Y14091762D01*
X16597530Y14140388D01*
X16579758Y14178501D01*
X16579357Y14181546D01*
X16577437Y14185894D01*
X16570000Y14250000D01*
X16570000Y14950000D01*
X16577437Y15014106D01*
X16579357Y15018455D01*
X16579758Y15021500D01*
X16597538Y15059631D01*
X16619001Y15108238D01*
X16691762Y15180999D01*
X16740369Y15202462D01*
X16778500Y15220242D01*
X16781545Y15220643D01*
X16785894Y15222563D01*
X16850000Y15230000D01*
X17750000Y15230000D01*
X17814106Y15222563D01*
G37*
G36*
X20555451Y16354607D02*
G01*
X20714829Y16288591D01*
X20858266Y16192749D01*
X20980249Y16070766D01*
X21076091Y15927329D01*
X21142107Y15767951D01*
X21175763Y15598755D01*
X21175763Y15426245D01*
X21142107Y15257049D01*
X21076091Y15097671D01*
X20980249Y14954234D01*
X20858266Y14832251D01*
X20714829Y14736409D01*
X20555451Y14670393D01*
X20386255Y14636737D01*
X20213745Y14636737D01*
X20044549Y14670393D01*
X19885171Y14736409D01*
X19741734Y14832251D01*
X19619751Y14954234D01*
X19523909Y15097671D01*
X19457893Y15257049D01*
X19424237Y15426245D01*
X19424237Y15598755D01*
X19457893Y15767951D01*
X19523909Y15927329D01*
X19619751Y16070766D01*
X19741734Y16192749D01*
X19885171Y16288591D01*
X20044549Y16354607D01*
X20213745Y16388263D01*
X20386255Y16388263D01*
X20555451Y16354607D01*
G37*
G36*
X31402822Y15782156D02*
G01*
X31522644Y15712977D01*
X31620477Y15615144D01*
X31689656Y15495322D01*
X31725466Y15361679D01*
X31725466Y15223321D01*
X31689656Y15089678D01*
X31620477Y14969856D01*
X31522644Y14872023D01*
X31402822Y14802844D01*
X31269179Y14767034D01*
X31130821Y14767034D01*
X30997178Y14802844D01*
X30877356Y14872023D01*
X30779523Y14969856D01*
X30710344Y15089678D01*
X30674534Y15223321D01*
X30674534Y15361679D01*
X30710344Y15495322D01*
X30779523Y15615144D01*
X30877356Y15712977D01*
X30997178Y15782156D01*
X31130821Y15817966D01*
X31269179Y15817966D01*
X31402822Y15782156D01*
G37*
G36*
X17814106Y17222563D02*
G01*
X17818454Y17220643D01*
X17821499Y17220242D01*
X17859612Y17202470D01*
X17908238Y17180999D01*
X17980999Y17108238D01*
X18002479Y17059591D01*
X18020241Y17021500D01*
X18020641Y17018458D01*
X18022563Y17014106D01*
X18030000Y16950000D01*
X18030000Y16250000D01*
X18022563Y16185894D01*
X18020641Y16181542D01*
X18020241Y16178501D01*
X18002487Y16140429D01*
X17980999Y16091762D01*
X17908238Y16019001D01*
X17859571Y15997513D01*
X17821499Y15979759D01*
X17818458Y15979359D01*
X17814106Y15977437D01*
X17750000Y15970000D01*
X16850000Y15970000D01*
X16785894Y15977437D01*
X16781542Y15979359D01*
X16778500Y15979759D01*
X16740409Y15997521D01*
X16691762Y16019001D01*
X16619001Y16091762D01*
X16597530Y16140388D01*
X16579758Y16178501D01*
X16579357Y16181546D01*
X16577437Y16185894D01*
X16570000Y16250000D01*
X16570000Y16950000D01*
X16577437Y17014106D01*
X16579357Y17018455D01*
X16579758Y17021500D01*
X16597538Y17059631D01*
X16619001Y17108238D01*
X16691762Y17180999D01*
X16740369Y17202462D01*
X16778500Y17220242D01*
X16781545Y17220643D01*
X16785894Y17222563D01*
X16850000Y17230000D01*
X17750000Y17230000D01*
X17814106Y17222563D01*
G37*
G36*
X20555451Y18894607D02*
G01*
X20714829Y18828591D01*
X20858266Y18732749D01*
X20980249Y18610766D01*
X21076091Y18467329D01*
X21142107Y18307951D01*
X21175763Y18138755D01*
X21175763Y17966245D01*
X21142107Y17797049D01*
X21076091Y17637671D01*
X20980249Y17494234D01*
X20858266Y17372251D01*
X20714829Y17276409D01*
X20555451Y17210393D01*
X20386255Y17176737D01*
X20213745Y17176737D01*
X20044549Y17210393D01*
X19885171Y17276409D01*
X19741734Y17372251D01*
X19619751Y17494234D01*
X19523909Y17637671D01*
X19457893Y17797049D01*
X19424237Y17966245D01*
X19424237Y18138755D01*
X19457893Y18307951D01*
X19523909Y18467329D01*
X19619751Y18610766D01*
X19741734Y18732749D01*
X19885171Y18828591D01*
X20044549Y18894607D01*
X20213745Y18928263D01*
X20386255Y18928263D01*
X20555451Y18894607D01*
G37*
G36*
X41874107Y20882563D02*
G01*
X41878455Y20880643D01*
X41881500Y20880242D01*
X41919604Y20862474D01*
X41968239Y20840999D01*
X42040999Y20768239D01*
X42062482Y20719584D01*
X42080241Y20681501D01*
X42080641Y20678459D01*
X42082563Y20674107D01*
X42089999Y20610000D01*
X42089999Y20607386D01*
X42090000Y20607378D01*
X42090000Y19746442D01*
X42090000Y18909999D01*
X42082563Y18845893D01*
X42080641Y18841542D01*
X42080241Y18838500D01*
X42062491Y18800436D01*
X42040999Y18751761D01*
X41968239Y18679001D01*
X41919564Y18657509D01*
X41881500Y18639759D01*
X41878458Y18639359D01*
X41874107Y18637437D01*
X41810000Y18630001D01*
X41807385Y18630001D01*
X41807378Y18630000D01*
X40112622Y18630000D01*
X40112621Y18630001D01*
X40109999Y18630000D01*
X40045893Y18637437D01*
X40041541Y18639359D01*
X40038499Y18639759D01*
X40000416Y18657518D01*
X39951761Y18679001D01*
X39879001Y18751761D01*
X39857526Y18800396D01*
X39839758Y18838500D01*
X39839357Y18841545D01*
X39837437Y18845893D01*
X39830001Y18910000D01*
X39830000Y18912616D01*
X39830000Y18912623D01*
X39830000Y20607378D01*
X39830000Y20607379D01*
X39830000Y20610001D01*
X39837437Y20674107D01*
X39839357Y20678456D01*
X39839758Y20681501D01*
X39857534Y20719624D01*
X39879001Y20768239D01*
X39951761Y20840999D01*
X40000376Y20862466D01*
X40038499Y20880242D01*
X40041544Y20880643D01*
X40045893Y20882563D01*
X40110000Y20889999D01*
X40112614Y20890000D01*
X40112622Y20890000D01*
X41807378Y20890000D01*
X41810001Y20890000D01*
X41874107Y20882563D01*
G37*
G36*
X4303793Y20888778D02*
G01*
X4472432Y20833984D01*
X4630423Y20753483D01*
X4773876Y20649259D01*
X4899259Y20523876D01*
X5003483Y20380423D01*
X5083984Y20222432D01*
X5138778Y20053793D01*
X5166517Y19878659D01*
X5166517Y19701341D01*
X5138778Y19526207D01*
X5083984Y19357568D01*
X5003483Y19199577D01*
X4899259Y19056124D01*
X4773876Y18930741D01*
X4630423Y18826517D01*
X4472432Y18746016D01*
X4303793Y18691222D01*
X4128659Y18663483D01*
X3951341Y18663483D01*
X3776207Y18691222D01*
X3607568Y18746016D01*
X3449577Y18826517D01*
X3306124Y18930741D01*
X3180741Y19056124D01*
X3076517Y19199577D01*
X2996016Y19357568D01*
X2941222Y19526207D01*
X2913483Y19701341D01*
X2913483Y19878659D01*
X2941222Y20053793D01*
X2996016Y20222432D01*
X3076517Y20380423D01*
X3180741Y20523876D01*
X3306124Y20649259D01*
X3449577Y20753483D01*
X3607568Y20833984D01*
X3776207Y20888778D01*
X3951341Y20916517D01*
X4128659Y20916517D01*
X4303793Y20888778D01*
G37*
G36*
X43566772Y20335038D02*
G01*
X43575705Y20335038D01*
X43601444Y20328142D01*
X43668308Y20314841D01*
X43699866Y20301769D01*
X43721956Y20295850D01*
X43741762Y20284415D01*
X43773318Y20271344D01*
X43829992Y20233476D01*
X43853082Y20220145D01*
X43859401Y20213826D01*
X43867822Y20208199D01*
X43948198Y20127823D01*
X43953824Y20119403D01*
X43960145Y20113082D01*
X43973477Y20089990D01*
X44011343Y20033319D01*
X44024412Y20001766D01*
X44035850Y19981956D01*
X44041769Y19959863D01*
X44054840Y19928309D01*
X44068139Y19861449D01*
X44075038Y19835705D01*
X44075038Y19826772D01*
X44077015Y19816833D01*
X44077015Y19703168D01*
X44075038Y19693230D01*
X44075038Y19684295D01*
X44068139Y19658549D01*
X44054840Y19591692D01*
X44041770Y19560141D01*
X44035850Y19538044D01*
X44024411Y19518232D01*
X44011343Y19486682D01*
X43973481Y19430019D01*
X43960145Y19406918D01*
X43953822Y19400596D01*
X43948198Y19392178D01*
X43867822Y19311802D01*
X43859404Y19306178D01*
X43853082Y19299855D01*
X43829981Y19286519D01*
X43773318Y19248657D01*
X43741768Y19235589D01*
X43721956Y19224150D01*
X43699859Y19218230D01*
X43668308Y19205160D01*
X43601449Y19191861D01*
X43575705Y19184962D01*
X43566771Y19184962D01*
X43556833Y19182985D01*
X43443167Y19182985D01*
X43433228Y19184962D01*
X43424295Y19184962D01*
X43398551Y19191861D01*
X43331691Y19205160D01*
X43300137Y19218231D01*
X43278044Y19224150D01*
X43258234Y19235588D01*
X43226681Y19248657D01*
X43170010Y19286523D01*
X43146918Y19299855D01*
X43140597Y19306176D01*
X43132177Y19311802D01*
X43051801Y19392178D01*
X43046174Y19400599D01*
X43039855Y19406918D01*
X43026524Y19430008D01*
X42988656Y19486682D01*
X42975585Y19518238D01*
X42964150Y19538044D01*
X42958231Y19560134D01*
X42945159Y19591692D01*
X42931859Y19658555D01*
X42924962Y19684295D01*
X42924962Y19693229D01*
X42922985Y19703168D01*
X42922985Y19816833D01*
X42924962Y19826773D01*
X42924962Y19835705D01*
X42931858Y19861443D01*
X42945159Y19928309D01*
X42958231Y19959870D01*
X42964150Y19981956D01*
X42975583Y20001760D01*
X42988656Y20033319D01*
X43026528Y20090001D01*
X43039855Y20113082D01*
X43046172Y20119400D01*
X43051801Y20127823D01*
X43132177Y20208199D01*
X43140600Y20213828D01*
X43146918Y20220145D01*
X43169999Y20233472D01*
X43226681Y20271344D01*
X43258240Y20284417D01*
X43278044Y20295850D01*
X43300130Y20301769D01*
X43331691Y20314841D01*
X43398557Y20328142D01*
X43424295Y20335038D01*
X43433228Y20335038D01*
X43443167Y20337015D01*
X43556833Y20337015D01*
X43566772Y20335038D01*
G37*
G36*
X1566772Y20365038D02*
G01*
X1575705Y20365038D01*
X1601444Y20358142D01*
X1668308Y20344841D01*
X1699866Y20331769D01*
X1721956Y20325850D01*
X1741762Y20314415D01*
X1773318Y20301344D01*
X1829992Y20263476D01*
X1853082Y20250145D01*
X1859401Y20243826D01*
X1867822Y20238199D01*
X1948198Y20157823D01*
X1953824Y20149403D01*
X1960145Y20143082D01*
X1973477Y20119990D01*
X2011343Y20063319D01*
X2024412Y20031766D01*
X2035850Y20011956D01*
X2041769Y19989863D01*
X2054840Y19958309D01*
X2068139Y19891449D01*
X2075038Y19865705D01*
X2075038Y19856772D01*
X2077015Y19846833D01*
X2077015Y19733168D01*
X2075038Y19723230D01*
X2075038Y19714295D01*
X2068139Y19688549D01*
X2054840Y19621692D01*
X2041770Y19590141D01*
X2035850Y19568044D01*
X2024411Y19548232D01*
X2011343Y19516682D01*
X1973481Y19460019D01*
X1960145Y19436918D01*
X1953822Y19430596D01*
X1948198Y19422178D01*
X1867822Y19341802D01*
X1859404Y19336178D01*
X1853082Y19329855D01*
X1829981Y19316519D01*
X1773318Y19278657D01*
X1741768Y19265589D01*
X1721956Y19254150D01*
X1699859Y19248230D01*
X1668308Y19235160D01*
X1601449Y19221861D01*
X1575705Y19214962D01*
X1566771Y19214962D01*
X1556833Y19212985D01*
X1443167Y19212985D01*
X1433228Y19214962D01*
X1424295Y19214962D01*
X1398551Y19221861D01*
X1331691Y19235160D01*
X1300137Y19248231D01*
X1278044Y19254150D01*
X1258234Y19265588D01*
X1226681Y19278657D01*
X1170010Y19316523D01*
X1146918Y19329855D01*
X1140597Y19336176D01*
X1132177Y19341802D01*
X1051801Y19422178D01*
X1046174Y19430599D01*
X1039855Y19436918D01*
X1026524Y19460008D01*
X988656Y19516682D01*
X975585Y19548238D01*
X964150Y19568044D01*
X958231Y19590134D01*
X945159Y19621692D01*
X931859Y19688555D01*
X924962Y19714295D01*
X924962Y19723229D01*
X922985Y19733168D01*
X922985Y19846833D01*
X924962Y19856773D01*
X924962Y19865705D01*
X931858Y19891443D01*
X945159Y19958309D01*
X958231Y19989870D01*
X964150Y20011956D01*
X975583Y20031760D01*
X988656Y20063319D01*
X1026528Y20120001D01*
X1039855Y20143082D01*
X1046172Y20149400D01*
X1051801Y20157823D01*
X1132177Y20238199D01*
X1140600Y20243828D01*
X1146918Y20250145D01*
X1169999Y20263472D01*
X1226681Y20301344D01*
X1258240Y20314417D01*
X1278044Y20325850D01*
X1300130Y20331769D01*
X1331691Y20344841D01*
X1398557Y20358142D01*
X1424295Y20365038D01*
X1433228Y20365038D01*
X1443167Y20367015D01*
X1556833Y20367015D01*
X1566772Y20365038D01*
G37*
G36*
X21161481Y21470216D02*
G01*
X21171213Y21463713D01*
X21177716Y21453981D01*
X21180000Y21442500D01*
X21180000Y19742500D01*
X21177716Y19731019D01*
X21171213Y19721287D01*
X21161481Y19714784D01*
X21150000Y19712500D01*
X19450000Y19712500D01*
X19438519Y19714784D01*
X19428787Y19721287D01*
X19422284Y19731019D01*
X19420000Y19742500D01*
X19420000Y21442500D01*
X19422284Y21453981D01*
X19428787Y21463713D01*
X19438519Y21470216D01*
X19450000Y21472500D01*
X21150000Y21472500D01*
X21161481Y21470216D01*
G37*
G36*
X41223793Y23398778D02*
G01*
X41392432Y23343984D01*
X41550423Y23263483D01*
X41693876Y23159259D01*
X41819259Y23033876D01*
X41923483Y22890423D01*
X42003984Y22732432D01*
X42058778Y22563793D01*
X42086517Y22388659D01*
X42086517Y22211341D01*
X42058778Y22036207D01*
X42003984Y21867568D01*
X41923483Y21709577D01*
X41819259Y21566124D01*
X41693876Y21440741D01*
X41550423Y21336517D01*
X41392432Y21256016D01*
X41223793Y21201222D01*
X41048659Y21173483D01*
X40871341Y21173483D01*
X40696207Y21201222D01*
X40527568Y21256016D01*
X40369577Y21336517D01*
X40226124Y21440741D01*
X40100741Y21566124D01*
X39996517Y21709577D01*
X39916016Y21867568D01*
X39861222Y22036207D01*
X39833483Y22211341D01*
X39833483Y22388659D01*
X39861222Y22563793D01*
X39916016Y22732432D01*
X39996517Y22890423D01*
X40100741Y23033876D01*
X40226124Y23159259D01*
X40369577Y23263483D01*
X40527568Y23343984D01*
X40696207Y23398778D01*
X40871341Y23426517D01*
X41048659Y23426517D01*
X41223793Y23398778D01*
G37*
G36*
X4954107Y23452563D02*
G01*
X4958455Y23450643D01*
X4961500Y23450242D01*
X4999604Y23432474D01*
X5048239Y23410999D01*
X5120999Y23338239D01*
X5142482Y23289584D01*
X5160241Y23251501D01*
X5160641Y23248459D01*
X5162563Y23244107D01*
X5169999Y23180000D01*
X5169999Y23177386D01*
X5170000Y23177378D01*
X5170000Y22273168D01*
X5170000Y21479999D01*
X5162563Y21415893D01*
X5160641Y21411542D01*
X5160241Y21408500D01*
X5142491Y21370436D01*
X5120999Y21321761D01*
X5048239Y21249001D01*
X4999564Y21227509D01*
X4961500Y21209759D01*
X4958458Y21209359D01*
X4954107Y21207437D01*
X4890000Y21200001D01*
X4887385Y21200001D01*
X4887378Y21200000D01*
X3192622Y21200000D01*
X3192621Y21200001D01*
X3189999Y21200000D01*
X3125893Y21207437D01*
X3121541Y21209359D01*
X3118499Y21209759D01*
X3080416Y21227518D01*
X3031761Y21249001D01*
X2959001Y21321761D01*
X2937526Y21370396D01*
X2919758Y21408500D01*
X2919357Y21411545D01*
X2917437Y21415893D01*
X2910001Y21480000D01*
X2910000Y21482616D01*
X2910000Y21482623D01*
X2910000Y23177378D01*
X2910000Y23177379D01*
X2910000Y23180001D01*
X2917437Y23244107D01*
X2919357Y23248456D01*
X2919758Y23251501D01*
X2937534Y23289624D01*
X2959001Y23338239D01*
X3031761Y23410999D01*
X3080376Y23432466D01*
X3118499Y23450242D01*
X3121544Y23450643D01*
X3125893Y23452563D01*
X3190000Y23459999D01*
X3192614Y23460000D01*
X3192622Y23460000D01*
X4887378Y23460000D01*
X4890001Y23460000D01*
X4954107Y23452563D01*
G37*
G36*
X43566772Y22875038D02*
G01*
X43575705Y22875038D01*
X43601444Y22868142D01*
X43668308Y22854841D01*
X43699866Y22841769D01*
X43721956Y22835850D01*
X43741762Y22824415D01*
X43773318Y22811344D01*
X43829992Y22773476D01*
X43853082Y22760145D01*
X43859401Y22753826D01*
X43867822Y22748199D01*
X43948198Y22667823D01*
X43953824Y22659403D01*
X43960145Y22653082D01*
X43973477Y22629990D01*
X44011343Y22573319D01*
X44024412Y22541766D01*
X44035850Y22521956D01*
X44041769Y22499863D01*
X44054840Y22468309D01*
X44068139Y22401449D01*
X44075038Y22375705D01*
X44075038Y22366772D01*
X44077015Y22356833D01*
X44077015Y22243168D01*
X44075038Y22233230D01*
X44075038Y22224295D01*
X44068139Y22198549D01*
X44054840Y22131692D01*
X44041770Y22100141D01*
X44035850Y22078044D01*
X44024411Y22058232D01*
X44011343Y22026682D01*
X43973481Y21970019D01*
X43960145Y21946918D01*
X43953822Y21940596D01*
X43948198Y21932178D01*
X43867822Y21851802D01*
X43859404Y21846178D01*
X43853082Y21839855D01*
X43829981Y21826519D01*
X43773318Y21788657D01*
X43741768Y21775589D01*
X43721956Y21764150D01*
X43699859Y21758230D01*
X43668308Y21745160D01*
X43601449Y21731861D01*
X43575705Y21724962D01*
X43566771Y21724962D01*
X43556833Y21722985D01*
X43443167Y21722985D01*
X43433228Y21724962D01*
X43424295Y21724962D01*
X43398551Y21731861D01*
X43331691Y21745160D01*
X43300137Y21758231D01*
X43278044Y21764150D01*
X43258234Y21775588D01*
X43226681Y21788657D01*
X43170010Y21826523D01*
X43146918Y21839855D01*
X43140597Y21846176D01*
X43132177Y21851802D01*
X43051801Y21932178D01*
X43046174Y21940599D01*
X43039855Y21946918D01*
X43026524Y21970008D01*
X42988656Y22026682D01*
X42975585Y22058238D01*
X42964150Y22078044D01*
X42958231Y22100134D01*
X42945159Y22131692D01*
X42931859Y22198555D01*
X42924962Y22224295D01*
X42924962Y22233229D01*
X42922985Y22243168D01*
X42922985Y22356833D01*
X42924962Y22366773D01*
X42924962Y22375705D01*
X42931858Y22401443D01*
X42945159Y22468309D01*
X42958231Y22499870D01*
X42964150Y22521956D01*
X42975583Y22541760D01*
X42988656Y22573319D01*
X43026528Y22630001D01*
X43039855Y22653082D01*
X43046172Y22659400D01*
X43051801Y22667823D01*
X43132177Y22748199D01*
X43140600Y22753828D01*
X43146918Y22760145D01*
X43169999Y22773472D01*
X43226681Y22811344D01*
X43258240Y22824417D01*
X43278044Y22835850D01*
X43300130Y22841769D01*
X43331691Y22854841D01*
X43398557Y22868142D01*
X43424295Y22875038D01*
X43433228Y22875038D01*
X43443167Y22877015D01*
X43556833Y22877015D01*
X43566772Y22875038D01*
G37*
G36*
X1566772Y22905038D02*
G01*
X1575705Y22905038D01*
X1601444Y22898142D01*
X1668308Y22884841D01*
X1699866Y22871769D01*
X1721956Y22865850D01*
X1741762Y22854415D01*
X1773318Y22841344D01*
X1829992Y22803476D01*
X1853082Y22790145D01*
X1859401Y22783826D01*
X1867822Y22778199D01*
X1948198Y22697823D01*
X1953824Y22689403D01*
X1960145Y22683082D01*
X1973477Y22659990D01*
X2011343Y22603319D01*
X2024412Y22571766D01*
X2035850Y22551956D01*
X2041769Y22529863D01*
X2054840Y22498309D01*
X2068139Y22431449D01*
X2075038Y22405705D01*
X2075038Y22396772D01*
X2077015Y22386833D01*
X2077015Y22273168D01*
X2075038Y22263230D01*
X2075038Y22254295D01*
X2068139Y22228549D01*
X2054840Y22161692D01*
X2041770Y22130141D01*
X2035850Y22108044D01*
X2024411Y22088232D01*
X2011343Y22056682D01*
X1973481Y22000019D01*
X1960145Y21976918D01*
X1953822Y21970596D01*
X1948198Y21962178D01*
X1867822Y21881802D01*
X1859404Y21876178D01*
X1853082Y21869855D01*
X1829981Y21856519D01*
X1773318Y21818657D01*
X1741768Y21805589D01*
X1721956Y21794150D01*
X1699859Y21788230D01*
X1668308Y21775160D01*
X1601449Y21761861D01*
X1575705Y21754962D01*
X1566771Y21754962D01*
X1556833Y21752985D01*
X1443167Y21752985D01*
X1433228Y21754962D01*
X1424295Y21754962D01*
X1398551Y21761861D01*
X1331691Y21775160D01*
X1300137Y21788231D01*
X1278044Y21794150D01*
X1258234Y21805588D01*
X1226681Y21818657D01*
X1170010Y21856523D01*
X1146918Y21869855D01*
X1140597Y21876176D01*
X1132177Y21881802D01*
X1051801Y21962178D01*
X1046174Y21970599D01*
X1039855Y21976918D01*
X1026524Y22000008D01*
X988656Y22056682D01*
X975585Y22088238D01*
X964150Y22108044D01*
X958231Y22130134D01*
X945159Y22161692D01*
X931859Y22228555D01*
X924962Y22254295D01*
X924962Y22263229D01*
X922985Y22273168D01*
X922985Y22386833D01*
X924962Y22396773D01*
X924962Y22405705D01*
X931858Y22431443D01*
X945159Y22498309D01*
X958231Y22529870D01*
X964150Y22551956D01*
X975583Y22571760D01*
X988656Y22603319D01*
X1026528Y22660001D01*
X1039855Y22683082D01*
X1046172Y22689400D01*
X1051801Y22697823D01*
X1132177Y22778199D01*
X1140600Y22783828D01*
X1146918Y22790145D01*
X1169999Y22803472D01*
X1226681Y22841344D01*
X1258240Y22854417D01*
X1278044Y22865850D01*
X1300130Y22871769D01*
X1331691Y22884841D01*
X1398557Y22898142D01*
X1424295Y22905038D01*
X1433228Y22905038D01*
X1443167Y22907015D01*
X1556833Y22907015D01*
X1566772Y22905038D01*
G37*
G36*
X12531481Y23720216D02*
G01*
X12541213Y23713713D01*
X12547716Y23703981D01*
X12550000Y23692500D01*
X12550000Y22792500D01*
X12547716Y22781019D01*
X12541213Y22771287D01*
X12531481Y22764784D01*
X12520000Y22762500D01*
X12280000Y22762500D01*
X12268519Y22764784D01*
X12258787Y22771287D01*
X12252284Y22781019D01*
X12250000Y22792500D01*
X12250000Y23692500D01*
X12252284Y23703981D01*
X12258787Y23713713D01*
X12268519Y23720216D01*
X12280000Y23722500D01*
X12520000Y23722500D01*
X12531481Y23720216D01*
G37*
G36*
X13031481Y23720216D02*
G01*
X13041213Y23713713D01*
X13047716Y23703981D01*
X13050000Y23692500D01*
X13050000Y22792500D01*
X13047716Y22781019D01*
X13041213Y22771287D01*
X13031481Y22764784D01*
X13020000Y22762500D01*
X12780000Y22762500D01*
X12768519Y22764784D01*
X12758787Y22771287D01*
X12752284Y22781019D01*
X12750000Y22792500D01*
X12750000Y23692500D01*
X12752284Y23703981D01*
X12758787Y23713713D01*
X12768519Y23720216D01*
X12780000Y23722500D01*
X13020000Y23722500D01*
X13031481Y23720216D01*
G37*
G36*
X13531481Y23720216D02*
G01*
X13541213Y23713713D01*
X13547716Y23703981D01*
X13550000Y23692500D01*
X13550000Y22792500D01*
X13547716Y22781019D01*
X13541213Y22771287D01*
X13531481Y22764784D01*
X13520000Y22762500D01*
X13280000Y22762500D01*
X13268519Y22764784D01*
X13258787Y22771287D01*
X13252284Y22781019D01*
X13250000Y22792500D01*
X13250000Y23692500D01*
X13252284Y23703981D01*
X13258787Y23713713D01*
X13268519Y23720216D01*
X13280000Y23722500D01*
X13520000Y23722500D01*
X13531481Y23720216D01*
G37*
G36*
X14031481Y23720216D02*
G01*
X14041213Y23713713D01*
X14047716Y23703981D01*
X14050000Y23692500D01*
X14050000Y22792500D01*
X14047716Y22781019D01*
X14041213Y22771287D01*
X14031481Y22764784D01*
X14020000Y22762500D01*
X13780000Y22762500D01*
X13768519Y22764784D01*
X13758787Y22771287D01*
X13752284Y22781019D01*
X13750000Y22792500D01*
X13750000Y23692500D01*
X13752284Y23703981D01*
X13758787Y23713713D01*
X13768519Y23720216D01*
X13780000Y23722500D01*
X14020000Y23722500D01*
X14031481Y23720216D01*
G37*
G36*
X14531481Y23720216D02*
G01*
X14541213Y23713713D01*
X14547716Y23703981D01*
X14550000Y23692500D01*
X14550000Y22792500D01*
X14547716Y22781019D01*
X14541213Y22771287D01*
X14531481Y22764784D01*
X14520000Y22762500D01*
X14280000Y22762500D01*
X14268519Y22764784D01*
X14258787Y22771287D01*
X14252284Y22781019D01*
X14250000Y22792500D01*
X14250000Y23692500D01*
X14252284Y23703981D01*
X14258787Y23713713D01*
X14268519Y23720216D01*
X14280000Y23722500D01*
X14520000Y23722500D01*
X14531481Y23720216D01*
G37*
G36*
X30831481Y23720216D02*
G01*
X30841213Y23713713D01*
X30847716Y23703981D01*
X30850000Y23692500D01*
X30850000Y22792500D01*
X30847716Y22781019D01*
X30841213Y22771287D01*
X30831481Y22764784D01*
X30820000Y22762500D01*
X30580000Y22762500D01*
X30568519Y22764784D01*
X30558787Y22771287D01*
X30552284Y22781019D01*
X30550000Y22792500D01*
X30550000Y23692500D01*
X30552284Y23703981D01*
X30558787Y23713713D01*
X30568519Y23720216D01*
X30580000Y23722500D01*
X30820000Y23722500D01*
X30831481Y23720216D01*
G37*
G36*
X31331481Y23720216D02*
G01*
X31341213Y23713713D01*
X31347716Y23703981D01*
X31350000Y23692500D01*
X31350000Y22792500D01*
X31347716Y22781019D01*
X31341213Y22771287D01*
X31331481Y22764784D01*
X31320000Y22762500D01*
X31080000Y22762500D01*
X31068519Y22764784D01*
X31058787Y22771287D01*
X31052284Y22781019D01*
X31050000Y22792500D01*
X31050000Y23692500D01*
X31052284Y23703981D01*
X31058787Y23713713D01*
X31068519Y23720216D01*
X31080000Y23722500D01*
X31320000Y23722500D01*
X31331481Y23720216D01*
G37*
G36*
X31831481Y23720216D02*
G01*
X31841213Y23713713D01*
X31847716Y23703981D01*
X31850000Y23692500D01*
X31850000Y22792500D01*
X31847716Y22781019D01*
X31841213Y22771287D01*
X31831481Y22764784D01*
X31820000Y22762500D01*
X31580000Y22762500D01*
X31568519Y22764784D01*
X31558787Y22771287D01*
X31552284Y22781019D01*
X31550000Y22792500D01*
X31550000Y23692500D01*
X31552284Y23703981D01*
X31558787Y23713713D01*
X31568519Y23720216D01*
X31580000Y23722500D01*
X31820000Y23722500D01*
X31831481Y23720216D01*
G37*
G36*
X32331481Y23720216D02*
G01*
X32341213Y23713713D01*
X32347716Y23703981D01*
X32350000Y23692500D01*
X32350000Y22792500D01*
X32347716Y22781019D01*
X32341213Y22771287D01*
X32331481Y22764784D01*
X32320000Y22762500D01*
X32080000Y22762500D01*
X32068519Y22764784D01*
X32058787Y22771287D01*
X32052284Y22781019D01*
X32050000Y22792500D01*
X32050000Y23692500D01*
X32052284Y23703981D01*
X32058787Y23713713D01*
X32068519Y23720216D01*
X32080000Y23722500D01*
X32320000Y23722500D01*
X32331481Y23720216D01*
G37*
G36*
X32831481Y23720216D02*
G01*
X32841213Y23713713D01*
X32847716Y23703981D01*
X32850000Y23692500D01*
X32850000Y22792500D01*
X32847716Y22781019D01*
X32841213Y22771287D01*
X32831481Y22764784D01*
X32820000Y22762500D01*
X32580000Y22762500D01*
X32568519Y22764784D01*
X32558787Y22771287D01*
X32552284Y22781019D01*
X32550000Y22792500D01*
X32550000Y23692500D01*
X32552284Y23703981D01*
X32558787Y23713713D01*
X32568519Y23720216D01*
X32580000Y23722500D01*
X32820000Y23722500D01*
X32831481Y23720216D01*
G37*
G36*
X14111481Y25020216D02*
G01*
X14121213Y25013713D01*
X14127716Y25003981D01*
X14130000Y24992500D01*
X14130000Y24092500D01*
X14127716Y24081019D01*
X14121213Y24071287D01*
X14111481Y24064784D01*
X14100000Y24062500D01*
X12700000Y24062500D01*
X12688519Y24064784D01*
X12678787Y24071287D01*
X12672284Y24081019D01*
X12670000Y24092500D01*
X12670000Y24992500D01*
X12672284Y25003981D01*
X12678787Y25013713D01*
X12688519Y25020216D01*
X12700000Y25022500D01*
X14100000Y25022500D01*
X14111481Y25020216D01*
G37*
G36*
X32411481Y25020216D02*
G01*
X32421213Y25013713D01*
X32427716Y25003981D01*
X32430000Y24992500D01*
X32430000Y24092500D01*
X32427716Y24081019D01*
X32421213Y24071287D01*
X32411481Y24064784D01*
X32400000Y24062500D01*
X31000000Y24062500D01*
X30988519Y24064784D01*
X30978787Y24071287D01*
X30972284Y24081019D01*
X30970000Y24092500D01*
X30970000Y24992500D01*
X30972284Y25003981D01*
X30978787Y25013713D01*
X30988519Y25020216D01*
X31000000Y25022500D01*
X32400000Y25022500D01*
X32411481Y25020216D01*
G37*
G36*
X12311481Y24440216D02*
G01*
X12321213Y24433713D01*
X12327716Y24423981D01*
X12330000Y24412500D01*
X12330000Y24172500D01*
X12327716Y24161019D01*
X12321213Y24151287D01*
X12311481Y24144784D01*
X12300000Y24142500D01*
X11400000Y24142500D01*
X11388519Y24144784D01*
X11378787Y24151287D01*
X11372284Y24161019D01*
X11370000Y24172500D01*
X11370000Y24412500D01*
X11372284Y24423981D01*
X11378787Y24433713D01*
X11388519Y24440216D01*
X11400000Y24442500D01*
X12300000Y24442500D01*
X12311481Y24440216D01*
G37*
G36*
X15411481Y24440216D02*
G01*
X15421213Y24433713D01*
X15427716Y24423981D01*
X15430000Y24412500D01*
X15430000Y24172500D01*
X15427716Y24161019D01*
X15421213Y24151287D01*
X15411481Y24144784D01*
X15400000Y24142500D01*
X14500000Y24142500D01*
X14488519Y24144784D01*
X14478787Y24151287D01*
X14472284Y24161019D01*
X14470000Y24172500D01*
X14470000Y24412500D01*
X14472284Y24423981D01*
X14478787Y24433713D01*
X14488519Y24440216D01*
X14500000Y24442500D01*
X15400000Y24442500D01*
X15411481Y24440216D01*
G37*
G36*
X30611481Y24440216D02*
G01*
X30621213Y24433713D01*
X30627716Y24423981D01*
X30630000Y24412500D01*
X30630000Y24172500D01*
X30627716Y24161019D01*
X30621213Y24151287D01*
X30611481Y24144784D01*
X30600000Y24142500D01*
X29700000Y24142500D01*
X29688519Y24144784D01*
X29678787Y24151287D01*
X29672284Y24161019D01*
X29670000Y24172500D01*
X29670000Y24412500D01*
X29672284Y24423981D01*
X29678787Y24433713D01*
X29688519Y24440216D01*
X29700000Y24442500D01*
X30600000Y24442500D01*
X30611481Y24440216D01*
G37*
G36*
X33711481Y24440216D02*
G01*
X33721213Y24433713D01*
X33727716Y24423981D01*
X33730000Y24412500D01*
X33730000Y24172500D01*
X33727716Y24161019D01*
X33721213Y24151287D01*
X33711481Y24144784D01*
X33700000Y24142500D01*
X32800000Y24142500D01*
X32788519Y24144784D01*
X32778787Y24151287D01*
X32772284Y24161019D01*
X32770000Y24172500D01*
X32770000Y24412500D01*
X32772284Y24423981D01*
X32778787Y24433713D01*
X32788519Y24440216D01*
X32800000Y24442500D01*
X33700000Y24442500D01*
X33711481Y24440216D01*
G37*
G36*
X25040731Y25396858D02*
G01*
X25097280Y25390297D01*
X25116601Y25381767D01*
X25139868Y25377138D01*
X25164775Y25360496D01*
X25188280Y25350117D01*
X25204334Y25334063D01*
X25226651Y25319151D01*
X25241562Y25296835D01*
X25257616Y25280781D01*
X25267993Y25257278D01*
X25284638Y25232368D01*
X25289266Y25209100D01*
X25297795Y25189784D01*
X25304352Y25133255D01*
X25305000Y25130000D01*
X25305000Y24530000D01*
X25304354Y24526757D01*
X25297796Y24470220D01*
X25289266Y24450904D01*
X25284638Y24427632D01*
X25267992Y24402720D01*
X25257616Y24379220D01*
X25241564Y24363169D01*
X25226651Y24340849D01*
X25204331Y24325936D01*
X25188280Y24309884D01*
X25164779Y24299508D01*
X25139868Y24282862D01*
X25116597Y24278234D01*
X25097283Y24269705D01*
X25040755Y24263148D01*
X25037500Y24262500D01*
X24562500Y24262500D01*
X24559258Y24263145D01*
X24502719Y24269704D01*
X24483401Y24278234D01*
X24460132Y24282862D01*
X24435221Y24299507D01*
X24411719Y24309884D01*
X24395665Y24325938D01*
X24373349Y24340849D01*
X24358437Y24363166D01*
X24342383Y24379220D01*
X24332004Y24402725D01*
X24315362Y24427632D01*
X24310734Y24450898D01*
X24302204Y24470217D01*
X24295645Y24526757D01*
X24295000Y24530000D01*
X24295000Y25130000D01*
X24295642Y25133230D01*
X24302203Y25189781D01*
X24310734Y25209103D01*
X24315362Y25232368D01*
X24332003Y25257274D01*
X24342383Y25280781D01*
X24358439Y25296838D01*
X24373349Y25319151D01*
X24395662Y25334061D01*
X24411719Y25350117D01*
X24435226Y25360497D01*
X24460132Y25377138D01*
X24483396Y25381766D01*
X24502716Y25390296D01*
X24559257Y25396856D01*
X24562500Y25397500D01*
X25037500Y25397500D01*
X25040731Y25396858D01*
G37*
G36*
X12311481Y24940216D02*
G01*
X12321213Y24933713D01*
X12327716Y24923981D01*
X12330000Y24912500D01*
X12330000Y24672500D01*
X12327716Y24661019D01*
X12321213Y24651287D01*
X12311481Y24644784D01*
X12300000Y24642500D01*
X11400000Y24642500D01*
X11388519Y24644784D01*
X11378787Y24651287D01*
X11372284Y24661019D01*
X11370000Y24672500D01*
X11370000Y24912500D01*
X11372284Y24923981D01*
X11378787Y24933713D01*
X11388519Y24940216D01*
X11400000Y24942500D01*
X12300000Y24942500D01*
X12311481Y24940216D01*
G37*
G36*
X15411481Y24940216D02*
G01*
X15421213Y24933713D01*
X15427716Y24923981D01*
X15430000Y24912500D01*
X15430000Y24672500D01*
X15427716Y24661019D01*
X15421213Y24651287D01*
X15411481Y24644784D01*
X15400000Y24642500D01*
X14500000Y24642500D01*
X14488519Y24644784D01*
X14478787Y24651287D01*
X14472284Y24661019D01*
X14470000Y24672500D01*
X14470000Y24912500D01*
X14472284Y24923981D01*
X14478787Y24933713D01*
X14488519Y24940216D01*
X14500000Y24942500D01*
X15400000Y24942500D01*
X15411481Y24940216D01*
G37*
G36*
X30611481Y24940216D02*
G01*
X30621213Y24933713D01*
X30627716Y24923981D01*
X30630000Y24912500D01*
X30630000Y24672500D01*
X30627716Y24661019D01*
X30621213Y24651287D01*
X30611481Y24644784D01*
X30600000Y24642500D01*
X29700000Y24642500D01*
X29688519Y24644784D01*
X29678787Y24651287D01*
X29672284Y24661019D01*
X29670000Y24672500D01*
X29670000Y24912500D01*
X29672284Y24923981D01*
X29678787Y24933713D01*
X29688519Y24940216D01*
X29700000Y24942500D01*
X30600000Y24942500D01*
X30611481Y24940216D01*
G37*
G36*
X33711481Y24940216D02*
G01*
X33721213Y24933713D01*
X33727716Y24923981D01*
X33730000Y24912500D01*
X33730000Y24672500D01*
X33727716Y24661019D01*
X33721213Y24651287D01*
X33711481Y24644784D01*
X33700000Y24642500D01*
X32800000Y24642500D01*
X32788519Y24644784D01*
X32778787Y24651287D01*
X32772284Y24661019D01*
X32770000Y24672500D01*
X32770000Y24912500D01*
X32772284Y24923981D01*
X32778787Y24933713D01*
X32788519Y24940216D01*
X32800000Y24942500D01*
X33700000Y24942500D01*
X33711481Y24940216D01*
G37*
G36*
X12531481Y26320216D02*
G01*
X12541213Y26313713D01*
X12547716Y26303981D01*
X12550000Y26292500D01*
X12550000Y25392500D01*
X12547716Y25381019D01*
X12541213Y25371287D01*
X12531481Y25364784D01*
X12520000Y25362500D01*
X12280000Y25362500D01*
X12268519Y25364784D01*
X12258787Y25371287D01*
X12252284Y25381019D01*
X12250000Y25392500D01*
X12250000Y26292500D01*
X12252284Y26303981D01*
X12258787Y26313713D01*
X12268519Y26320216D01*
X12280000Y26322500D01*
X12520000Y26322500D01*
X12531481Y26320216D01*
G37*
G36*
X13031481Y26320216D02*
G01*
X13041213Y26313713D01*
X13047716Y26303981D01*
X13050000Y26292500D01*
X13050000Y25392500D01*
X13047716Y25381019D01*
X13041213Y25371287D01*
X13031481Y25364784D01*
X13020000Y25362500D01*
X12780000Y25362500D01*
X12768519Y25364784D01*
X12758787Y25371287D01*
X12752284Y25381019D01*
X12750000Y25392500D01*
X12750000Y26292500D01*
X12752284Y26303981D01*
X12758787Y26313713D01*
X12768519Y26320216D01*
X12780000Y26322500D01*
X13020000Y26322500D01*
X13031481Y26320216D01*
G37*
G36*
X13531481Y26320216D02*
G01*
X13541213Y26313713D01*
X13547716Y26303981D01*
X13550000Y26292500D01*
X13550000Y25392500D01*
X13547716Y25381019D01*
X13541213Y25371287D01*
X13531481Y25364784D01*
X13520000Y25362500D01*
X13280000Y25362500D01*
X13268519Y25364784D01*
X13258787Y25371287D01*
X13252284Y25381019D01*
X13250000Y25392500D01*
X13250000Y26292500D01*
X13252284Y26303981D01*
X13258787Y26313713D01*
X13268519Y26320216D01*
X13280000Y26322500D01*
X13520000Y26322500D01*
X13531481Y26320216D01*
G37*
G36*
X14031481Y26320216D02*
G01*
X14041213Y26313713D01*
X14047716Y26303981D01*
X14050000Y26292500D01*
X14050000Y25392500D01*
X14047716Y25381019D01*
X14041213Y25371287D01*
X14031481Y25364784D01*
X14020000Y25362500D01*
X13780000Y25362500D01*
X13768519Y25364784D01*
X13758787Y25371287D01*
X13752284Y25381019D01*
X13750000Y25392500D01*
X13750000Y26292500D01*
X13752284Y26303981D01*
X13758787Y26313713D01*
X13768519Y26320216D01*
X13780000Y26322500D01*
X14020000Y26322500D01*
X14031481Y26320216D01*
G37*
G36*
X14531481Y26320216D02*
G01*
X14541213Y26313713D01*
X14547716Y26303981D01*
X14550000Y26292500D01*
X14550000Y25392500D01*
X14547716Y25381019D01*
X14541213Y25371287D01*
X14531481Y25364784D01*
X14520000Y25362500D01*
X14280000Y25362500D01*
X14268519Y25364784D01*
X14258787Y25371287D01*
X14252284Y25381019D01*
X14250000Y25392500D01*
X14250000Y26292500D01*
X14252284Y26303981D01*
X14258787Y26313713D01*
X14268519Y26320216D01*
X14280000Y26322500D01*
X14520000Y26322500D01*
X14531481Y26320216D01*
G37*
G36*
X30831481Y26320216D02*
G01*
X30841213Y26313713D01*
X30847716Y26303981D01*
X30850000Y26292500D01*
X30850000Y25392500D01*
X30847716Y25381019D01*
X30841213Y25371287D01*
X30831481Y25364784D01*
X30820000Y25362500D01*
X30580000Y25362500D01*
X30568519Y25364784D01*
X30558787Y25371287D01*
X30552284Y25381019D01*
X30550000Y25392500D01*
X30550000Y26292500D01*
X30552284Y26303981D01*
X30558787Y26313713D01*
X30568519Y26320216D01*
X30580000Y26322500D01*
X30820000Y26322500D01*
X30831481Y26320216D01*
G37*
G36*
X31331481Y26320216D02*
G01*
X31341213Y26313713D01*
X31347716Y26303981D01*
X31350000Y26292500D01*
X31350000Y25392500D01*
X31347716Y25381019D01*
X31341213Y25371287D01*
X31331481Y25364784D01*
X31320000Y25362500D01*
X31080000Y25362500D01*
X31068519Y25364784D01*
X31058787Y25371287D01*
X31052284Y25381019D01*
X31050000Y25392500D01*
X31050000Y26292500D01*
X31052284Y26303981D01*
X31058787Y26313713D01*
X31068519Y26320216D01*
X31080000Y26322500D01*
X31320000Y26322500D01*
X31331481Y26320216D01*
G37*
G36*
X31831481Y26320216D02*
G01*
X31841213Y26313713D01*
X31847716Y26303981D01*
X31850000Y26292500D01*
X31850000Y25392500D01*
X31847716Y25381019D01*
X31841213Y25371287D01*
X31831481Y25364784D01*
X31820000Y25362500D01*
X31580000Y25362500D01*
X31568519Y25364784D01*
X31558787Y25371287D01*
X31552284Y25381019D01*
X31550000Y25392500D01*
X31550000Y26292500D01*
X31552284Y26303981D01*
X31558787Y26313713D01*
X31568519Y26320216D01*
X31580000Y26322500D01*
X31820000Y26322500D01*
X31831481Y26320216D01*
G37*
G36*
X32331481Y26320216D02*
G01*
X32341213Y26313713D01*
X32347716Y26303981D01*
X32350000Y26292500D01*
X32350000Y25392500D01*
X32347716Y25381019D01*
X32341213Y25371287D01*
X32331481Y25364784D01*
X32320000Y25362500D01*
X32080000Y25362500D01*
X32068519Y25364784D01*
X32058787Y25371287D01*
X32052284Y25381019D01*
X32050000Y25392500D01*
X32050000Y26292500D01*
X32052284Y26303981D01*
X32058787Y26313713D01*
X32068519Y26320216D01*
X32080000Y26322500D01*
X32320000Y26322500D01*
X32331481Y26320216D01*
G37*
G36*
X32831481Y26320216D02*
G01*
X32841213Y26313713D01*
X32847716Y26303981D01*
X32850000Y26292500D01*
X32850000Y25392500D01*
X32847716Y25381019D01*
X32841213Y25371287D01*
X32831481Y25364784D01*
X32820000Y25362500D01*
X32580000Y25362500D01*
X32568519Y25364784D01*
X32558787Y25371287D01*
X32552284Y25381019D01*
X32550000Y25392500D01*
X32550000Y26292500D01*
X32552284Y26303981D01*
X32558787Y26313713D01*
X32568519Y26320216D01*
X32580000Y26322500D01*
X32820000Y26322500D01*
X32831481Y26320216D01*
G37*
G36*
X25040731Y27121858D02*
G01*
X25097280Y27115297D01*
X25116601Y27106767D01*
X25139868Y27102138D01*
X25164775Y27085496D01*
X25188280Y27075117D01*
X25204334Y27059063D01*
X25226651Y27044151D01*
X25241562Y27021835D01*
X25257616Y27005781D01*
X25267993Y26982278D01*
X25284638Y26957368D01*
X25289266Y26934100D01*
X25297795Y26914784D01*
X25304352Y26858255D01*
X25305000Y26855000D01*
X25305000Y26255000D01*
X25304354Y26251757D01*
X25297796Y26195220D01*
X25289266Y26175904D01*
X25284638Y26152632D01*
X25267992Y26127720D01*
X25257616Y26104220D01*
X25241564Y26088169D01*
X25226651Y26065849D01*
X25204331Y26050936D01*
X25188280Y26034884D01*
X25164779Y26024508D01*
X25139868Y26007862D01*
X25116597Y26003234D01*
X25097283Y25994705D01*
X25040755Y25988148D01*
X25037500Y25987500D01*
X24562500Y25987500D01*
X24559258Y25988145D01*
X24502719Y25994704D01*
X24483401Y26003234D01*
X24460132Y26007862D01*
X24435221Y26024507D01*
X24411719Y26034884D01*
X24395665Y26050938D01*
X24373349Y26065849D01*
X24358437Y26088166D01*
X24342383Y26104220D01*
X24332004Y26127725D01*
X24315362Y26152632D01*
X24310734Y26175898D01*
X24302204Y26195217D01*
X24295645Y26251757D01*
X24295000Y26255000D01*
X24295000Y26855000D01*
X24295642Y26858230D01*
X24302203Y26914781D01*
X24310734Y26934103D01*
X24315362Y26957368D01*
X24332003Y26982274D01*
X24342383Y27005781D01*
X24358439Y27021838D01*
X24373349Y27044151D01*
X24395662Y27059061D01*
X24411719Y27075117D01*
X24435226Y27085497D01*
X24460132Y27102138D01*
X24483396Y27106766D01*
X24502716Y27115296D01*
X24559257Y27121856D01*
X24562500Y27122500D01*
X25037500Y27122500D01*
X25040731Y27121858D01*
G37*
G36*
X5278231Y27204358D02*
G01*
X5334780Y27197797D01*
X5354101Y27189267D01*
X5377368Y27184638D01*
X5402275Y27167996D01*
X5425780Y27157617D01*
X5441834Y27141563D01*
X5464151Y27126651D01*
X5479062Y27104335D01*
X5495116Y27088281D01*
X5505493Y27064778D01*
X5522138Y27039868D01*
X5526766Y27016600D01*
X5535295Y26997284D01*
X5541852Y26940755D01*
X5542500Y26937500D01*
X5542500Y26462500D01*
X5541854Y26459257D01*
X5535296Y26402720D01*
X5526766Y26383404D01*
X5522138Y26360132D01*
X5505492Y26335220D01*
X5495116Y26311720D01*
X5479064Y26295669D01*
X5464151Y26273349D01*
X5441831Y26258436D01*
X5425780Y26242384D01*
X5402279Y26232008D01*
X5377368Y26215362D01*
X5354097Y26210734D01*
X5334783Y26202205D01*
X5278255Y26195648D01*
X5275000Y26195000D01*
X4675000Y26195000D01*
X4671758Y26195645D01*
X4615219Y26202204D01*
X4595901Y26210734D01*
X4572632Y26215362D01*
X4547721Y26232007D01*
X4524219Y26242384D01*
X4508165Y26258438D01*
X4485849Y26273349D01*
X4470937Y26295666D01*
X4454883Y26311720D01*
X4444504Y26335225D01*
X4427862Y26360132D01*
X4423234Y26383398D01*
X4414704Y26402717D01*
X4408145Y26459257D01*
X4407500Y26462500D01*
X4407500Y26937500D01*
X4408142Y26940730D01*
X4414703Y26997281D01*
X4423234Y27016603D01*
X4427862Y27039868D01*
X4444503Y27064774D01*
X4454883Y27088281D01*
X4470939Y27104338D01*
X4485849Y27126651D01*
X4508162Y27141561D01*
X4524219Y27157617D01*
X4547726Y27167997D01*
X4572632Y27184638D01*
X4595896Y27189266D01*
X4615216Y27197796D01*
X4671757Y27204356D01*
X4675000Y27205000D01*
X5275000Y27205000D01*
X5278231Y27204358D01*
G37*
G36*
X7003231Y27204358D02*
G01*
X7059780Y27197797D01*
X7079101Y27189267D01*
X7102368Y27184638D01*
X7127275Y27167996D01*
X7150780Y27157617D01*
X7166834Y27141563D01*
X7189151Y27126651D01*
X7204062Y27104335D01*
X7220116Y27088281D01*
X7230493Y27064778D01*
X7247138Y27039868D01*
X7251766Y27016600D01*
X7260295Y26997284D01*
X7266852Y26940755D01*
X7267500Y26937500D01*
X7267500Y26462500D01*
X7266854Y26459257D01*
X7260296Y26402720D01*
X7251766Y26383404D01*
X7247138Y26360132D01*
X7230492Y26335220D01*
X7220116Y26311720D01*
X7204064Y26295669D01*
X7189151Y26273349D01*
X7166831Y26258436D01*
X7150780Y26242384D01*
X7127279Y26232008D01*
X7102368Y26215362D01*
X7079097Y26210734D01*
X7059783Y26202205D01*
X7003255Y26195648D01*
X7000000Y26195000D01*
X6400000Y26195000D01*
X6396758Y26195645D01*
X6340219Y26202204D01*
X6320901Y26210734D01*
X6297632Y26215362D01*
X6272721Y26232007D01*
X6249219Y26242384D01*
X6233165Y26258438D01*
X6210849Y26273349D01*
X6195937Y26295666D01*
X6179883Y26311720D01*
X6169504Y26335225D01*
X6152862Y26360132D01*
X6148234Y26383398D01*
X6139704Y26402717D01*
X6133145Y26459257D01*
X6132500Y26462500D01*
X6132500Y26937500D01*
X6133142Y26940730D01*
X6139703Y26997281D01*
X6148234Y27016603D01*
X6152862Y27039868D01*
X6169503Y27064774D01*
X6179883Y27088281D01*
X6195939Y27104338D01*
X6210849Y27126651D01*
X6233162Y27141561D01*
X6249219Y27157617D01*
X6272726Y27167997D01*
X6297632Y27184638D01*
X6320896Y27189266D01*
X6340216Y27197796D01*
X6396757Y27204356D01*
X6400000Y27205000D01*
X7000000Y27205000D01*
X7003231Y27204358D01*
G37*
G36*
X25002822Y30089656D02*
G01*
X25122644Y30020477D01*
X25220477Y29922644D01*
X25289656Y29802822D01*
X25325466Y29669179D01*
X25325466Y29530821D01*
X25289656Y29397178D01*
X25220477Y29277356D01*
X25122644Y29179523D01*
X25002822Y29110344D01*
X24869179Y29074534D01*
X24730821Y29074534D01*
X24597178Y29110344D01*
X24477356Y29179523D01*
X24379523Y29277356D01*
X24310344Y29397178D01*
X24274534Y29530821D01*
X24274534Y29669179D01*
X24310344Y29802822D01*
X24379523Y29922644D01*
X24477356Y30020477D01*
X24597178Y30089656D01*
X24730821Y30125466D01*
X24869179Y30125466D01*
X25002822Y30089656D01*
G37*
G36*
X32302822Y30839656D02*
G01*
X32422644Y30770477D01*
X32520477Y30672644D01*
X32589656Y30552822D01*
X32625466Y30419179D01*
X32625466Y30280821D01*
X32589656Y30147178D01*
X32520477Y30027356D01*
X32422644Y29929523D01*
X32302822Y29860344D01*
X32169179Y29824534D01*
X32030821Y29824534D01*
X31897178Y29860344D01*
X31777356Y29929523D01*
X31679523Y30027356D01*
X31610344Y30147178D01*
X31574534Y30280821D01*
X31574534Y30419179D01*
X31610344Y30552822D01*
X31679523Y30672644D01*
X31777356Y30770477D01*
X31897178Y30839656D01*
X32030821Y30875466D01*
X32169179Y30875466D01*
X32302822Y30839656D01*
G37*
G36*
X12852822Y30889656D02*
G01*
X12972644Y30820477D01*
X13070477Y30722644D01*
X13139656Y30602822D01*
X13175466Y30469179D01*
X13175466Y30330821D01*
X13139656Y30197178D01*
X13070477Y30077356D01*
X12972644Y29979523D01*
X12852822Y29910344D01*
X12719179Y29874534D01*
X12580821Y29874534D01*
X12447178Y29910344D01*
X12327356Y29979523D01*
X12229523Y30077356D01*
X12160344Y30197178D01*
X12124534Y30330821D01*
X12124534Y30469179D01*
X12160344Y30602822D01*
X12229523Y30722644D01*
X12327356Y30820477D01*
X12447178Y30889656D01*
X12580821Y30925466D01*
X12719179Y30925466D01*
X12852822Y30889656D01*
G37*
G36*
X30114106Y34622563D02*
G01*
X30118454Y34620643D01*
X30121499Y34620242D01*
X30159612Y34602470D01*
X30208238Y34580999D01*
X30280999Y34508238D01*
X30302479Y34459591D01*
X30320241Y34421500D01*
X30320641Y34418458D01*
X30322563Y34414106D01*
X30330000Y34350000D01*
X30330000Y33650000D01*
X30322563Y33585894D01*
X30320641Y33581542D01*
X30320241Y33578501D01*
X30302487Y33540429D01*
X30280999Y33491762D01*
X30208238Y33419001D01*
X30159571Y33397513D01*
X30121499Y33379759D01*
X30118458Y33379359D01*
X30114106Y33377437D01*
X30050000Y33370000D01*
X29150000Y33370000D01*
X29085894Y33377437D01*
X29081542Y33379359D01*
X29078500Y33379759D01*
X29040409Y33397521D01*
X28991762Y33419001D01*
X28919001Y33491762D01*
X28897530Y33540388D01*
X28879758Y33578501D01*
X28879357Y33581546D01*
X28877437Y33585894D01*
X28870000Y33650000D01*
X28870000Y34350000D01*
X28877437Y34414106D01*
X28879357Y34418455D01*
X28879758Y34421500D01*
X28897538Y34459631D01*
X28919001Y34508238D01*
X28991762Y34580999D01*
X29040369Y34602462D01*
X29078500Y34620242D01*
X29081545Y34620643D01*
X29085894Y34622563D01*
X29150000Y34630000D01*
X30050000Y34630000D01*
X30114106Y34622563D01*
G37*
G36*
X35114106Y34630063D02*
G01*
X35118454Y34628143D01*
X35121499Y34627742D01*
X35159612Y34609970D01*
X35208238Y34588499D01*
X35280999Y34515738D01*
X35302479Y34467091D01*
X35320241Y34429000D01*
X35320641Y34425958D01*
X35322563Y34421606D01*
X35330000Y34357500D01*
X35330000Y33657500D01*
X35322563Y33593394D01*
X35320641Y33589042D01*
X35320241Y33586001D01*
X35302487Y33547929D01*
X35280999Y33499262D01*
X35208238Y33426501D01*
X35159571Y33405013D01*
X35121499Y33387259D01*
X35118458Y33386859D01*
X35114106Y33384937D01*
X35050000Y33377500D01*
X34150000Y33377500D01*
X34085894Y33384937D01*
X34081542Y33386859D01*
X34078500Y33387259D01*
X34040409Y33405021D01*
X33991762Y33426501D01*
X33919001Y33499262D01*
X33897530Y33547888D01*
X33879758Y33586001D01*
X33879357Y33589046D01*
X33877437Y33593394D01*
X33870000Y33657500D01*
X33870000Y34357500D01*
X33877437Y34421606D01*
X33879357Y34425955D01*
X33879758Y34429000D01*
X33897538Y34467131D01*
X33919001Y34515738D01*
X33991762Y34588499D01*
X34040369Y34609962D01*
X34078500Y34627742D01*
X34081545Y34628143D01*
X34085894Y34630063D01*
X34150000Y34637500D01*
X35050000Y34637500D01*
X35114106Y34630063D01*
G37*
G36*
X10664106Y34680063D02*
G01*
X10668454Y34678143D01*
X10671499Y34677742D01*
X10709612Y34659970D01*
X10758238Y34638499D01*
X10830999Y34565738D01*
X10852479Y34517091D01*
X10870241Y34479000D01*
X10870641Y34475958D01*
X10872563Y34471606D01*
X10880000Y34407500D01*
X10880000Y33707500D01*
X10872563Y33643394D01*
X10870641Y33639042D01*
X10870241Y33636001D01*
X10852487Y33597929D01*
X10830999Y33549262D01*
X10758238Y33476501D01*
X10709571Y33455013D01*
X10671499Y33437259D01*
X10668458Y33436859D01*
X10664106Y33434937D01*
X10600000Y33427500D01*
X9700000Y33427500D01*
X9635894Y33434937D01*
X9631542Y33436859D01*
X9628500Y33437259D01*
X9590409Y33455021D01*
X9541762Y33476501D01*
X9469001Y33549262D01*
X9447530Y33597888D01*
X9429758Y33636001D01*
X9429357Y33639046D01*
X9427437Y33643394D01*
X9420000Y33707500D01*
X9420000Y34407500D01*
X9427437Y34471606D01*
X9429357Y34475955D01*
X9429758Y34479000D01*
X9447538Y34517131D01*
X9469001Y34565738D01*
X9541762Y34638499D01*
X9590369Y34659962D01*
X9628500Y34677742D01*
X9631545Y34678143D01*
X9635894Y34680063D01*
X9700000Y34687500D01*
X10600000Y34687500D01*
X10664106Y34680063D01*
G37*
G36*
X15664106Y34680063D02*
G01*
X15668454Y34678143D01*
X15671499Y34677742D01*
X15709612Y34659970D01*
X15758238Y34638499D01*
X15830999Y34565738D01*
X15852479Y34517091D01*
X15870241Y34479000D01*
X15870641Y34475958D01*
X15872563Y34471606D01*
X15880000Y34407500D01*
X15880000Y33707500D01*
X15872563Y33643394D01*
X15870641Y33639042D01*
X15870241Y33636001D01*
X15852487Y33597929D01*
X15830999Y33549262D01*
X15758238Y33476501D01*
X15709571Y33455013D01*
X15671499Y33437259D01*
X15668458Y33436859D01*
X15664106Y33434937D01*
X15600000Y33427500D01*
X14700000Y33427500D01*
X14635894Y33434937D01*
X14631542Y33436859D01*
X14628500Y33437259D01*
X14590409Y33455021D01*
X14541762Y33476501D01*
X14469001Y33549262D01*
X14447530Y33597888D01*
X14429758Y33636001D01*
X14429357Y33639046D01*
X14427437Y33643394D01*
X14420000Y33707500D01*
X14420000Y34407500D01*
X14427437Y34471606D01*
X14429357Y34475955D01*
X14429758Y34479000D01*
X14447538Y34517131D01*
X14469001Y34565738D01*
X14541762Y34638499D01*
X14590369Y34659962D01*
X14628500Y34677742D01*
X14631545Y34678143D01*
X14635894Y34680063D01*
X14700000Y34687500D01*
X15600000Y34687500D01*
X15664106Y34680063D01*
G37*
G36*
X20611481Y34127716D02*
G01*
X20621213Y34121213D01*
X20627716Y34111481D01*
X20630000Y34100000D01*
X20630000Y33500000D01*
X20627716Y33488519D01*
X20621213Y33478787D01*
X20611481Y33472284D01*
X20600000Y33470000D01*
X20000000Y33470000D01*
X19988519Y33472284D01*
X19978787Y33478787D01*
X19972284Y33488519D01*
X19970000Y33500000D01*
X19970000Y34100000D01*
X19972284Y34111481D01*
X19978787Y34121213D01*
X19988519Y34127716D01*
X20000000Y34130000D01*
X20600000Y34130000D01*
X20611481Y34127716D01*
G37*
G36*
X22411481Y34127716D02*
G01*
X22421213Y34121213D01*
X22427716Y34111481D01*
X22430000Y34100000D01*
X22430000Y33500000D01*
X22427716Y33488519D01*
X22421213Y33478787D01*
X22411481Y33472284D01*
X22400000Y33470000D01*
X21800000Y33470000D01*
X21788519Y33472284D01*
X21778787Y33478787D01*
X21772284Y33488519D01*
X21770000Y33500000D01*
X21770000Y34100000D01*
X21772284Y34111481D01*
X21778787Y34121213D01*
X21788519Y34127716D01*
X21800000Y34130000D01*
X22400000Y34130000D01*
X22411481Y34127716D01*
G37*
G36*
X32340731Y34704358D02*
G01*
X32397280Y34697797D01*
X32416601Y34689267D01*
X32439868Y34684638D01*
X32464775Y34667996D01*
X32488280Y34657617D01*
X32504334Y34641563D01*
X32526651Y34626651D01*
X32541562Y34604335D01*
X32557616Y34588281D01*
X32567993Y34564778D01*
X32584638Y34539868D01*
X32589266Y34516600D01*
X32597795Y34497284D01*
X32604352Y34440755D01*
X32605000Y34437500D01*
X32605000Y33837500D01*
X32604354Y33834257D01*
X32597796Y33777720D01*
X32589266Y33758404D01*
X32584638Y33735132D01*
X32567992Y33710220D01*
X32557616Y33686720D01*
X32541564Y33670669D01*
X32526651Y33648349D01*
X32504331Y33633436D01*
X32488280Y33617384D01*
X32464779Y33607008D01*
X32439868Y33590362D01*
X32416597Y33585734D01*
X32397283Y33577205D01*
X32340755Y33570648D01*
X32337500Y33570000D01*
X31862500Y33570000D01*
X31859258Y33570645D01*
X31802719Y33577204D01*
X31783401Y33585734D01*
X31760132Y33590362D01*
X31735221Y33607007D01*
X31711719Y33617384D01*
X31695665Y33633438D01*
X31673349Y33648349D01*
X31658437Y33670666D01*
X31642383Y33686720D01*
X31632004Y33710225D01*
X31615362Y33735132D01*
X31610734Y33758398D01*
X31602204Y33777717D01*
X31595645Y33834257D01*
X31595000Y33837500D01*
X31595000Y34437500D01*
X31595642Y34440730D01*
X31602203Y34497281D01*
X31610734Y34516603D01*
X31615362Y34539868D01*
X31632003Y34564774D01*
X31642383Y34588281D01*
X31658439Y34604338D01*
X31673349Y34626651D01*
X31695662Y34641561D01*
X31711719Y34657617D01*
X31735226Y34667997D01*
X31760132Y34684638D01*
X31783396Y34689266D01*
X31802716Y34697796D01*
X31859257Y34704356D01*
X31862500Y34705000D01*
X32337500Y34705000D01*
X32340731Y34704358D01*
G37*
G36*
X12890731Y34874358D02*
G01*
X12947280Y34867797D01*
X12966601Y34859267D01*
X12989868Y34854638D01*
X13014775Y34837996D01*
X13038280Y34827617D01*
X13054334Y34811563D01*
X13076651Y34796651D01*
X13091562Y34774335D01*
X13107616Y34758281D01*
X13117993Y34734778D01*
X13134638Y34709868D01*
X13139266Y34686600D01*
X13147795Y34667284D01*
X13154352Y34610755D01*
X13155000Y34607500D01*
X13155000Y34007500D01*
X13154354Y34004257D01*
X13147796Y33947720D01*
X13139266Y33928404D01*
X13134638Y33905132D01*
X13117992Y33880220D01*
X13107616Y33856720D01*
X13091564Y33840669D01*
X13076651Y33818349D01*
X13054331Y33803436D01*
X13038280Y33787384D01*
X13014779Y33777008D01*
X12989868Y33760362D01*
X12966597Y33755734D01*
X12947283Y33747205D01*
X12890755Y33740648D01*
X12887500Y33740000D01*
X12412500Y33740000D01*
X12409258Y33740645D01*
X12352719Y33747204D01*
X12333401Y33755734D01*
X12310132Y33760362D01*
X12285221Y33777007D01*
X12261719Y33787384D01*
X12245665Y33803438D01*
X12223349Y33818349D01*
X12208437Y33840666D01*
X12192383Y33856720D01*
X12182004Y33880225D01*
X12165362Y33905132D01*
X12160734Y33928398D01*
X12152204Y33947717D01*
X12145645Y34004257D01*
X12145000Y34007500D01*
X12145000Y34607500D01*
X12145642Y34610730D01*
X12152203Y34667281D01*
X12160734Y34686603D01*
X12165362Y34709868D01*
X12182003Y34734774D01*
X12192383Y34758281D01*
X12208439Y34774338D01*
X12223349Y34796651D01*
X12245662Y34811561D01*
X12261719Y34827617D01*
X12285226Y34837997D01*
X12310132Y34854638D01*
X12333396Y34859266D01*
X12352716Y34867796D01*
X12409257Y34874356D01*
X12412500Y34875000D01*
X12887500Y34875000D01*
X12890731Y34874358D01*
G37*
G36*
X20611481Y34777716D02*
G01*
X20621213Y34771213D01*
X20627716Y34761481D01*
X20630000Y34750000D01*
X20630000Y34350000D01*
X20627716Y34338519D01*
X20621213Y34328787D01*
X20611481Y34322284D01*
X20600000Y34320000D01*
X20000000Y34320000D01*
X19988519Y34322284D01*
X19978787Y34328787D01*
X19972284Y34338519D01*
X19970000Y34350000D01*
X19970000Y34750000D01*
X19972284Y34761481D01*
X19978787Y34771213D01*
X19988519Y34777716D01*
X20000000Y34780000D01*
X20600000Y34780000D01*
X20611481Y34777716D01*
G37*
G36*
X22411481Y34777716D02*
G01*
X22421213Y34771213D01*
X22427716Y34761481D01*
X22430000Y34750000D01*
X22430000Y34350000D01*
X22427716Y34338519D01*
X22421213Y34328787D01*
X22411481Y34322284D01*
X22400000Y34320000D01*
X21800000Y34320000D01*
X21788519Y34322284D01*
X21778787Y34328787D01*
X21772284Y34338519D01*
X21770000Y34350000D01*
X21770000Y34750000D01*
X21772284Y34761481D01*
X21778787Y34771213D01*
X21788519Y34777716D01*
X21800000Y34780000D01*
X22400000Y34780000D01*
X22411481Y34777716D01*
G37*
G36*
X20611481Y35627716D02*
G01*
X20621213Y35621213D01*
X20627716Y35611481D01*
X20630000Y35600000D01*
X20630000Y35000000D01*
X20627716Y34988519D01*
X20621213Y34978787D01*
X20611481Y34972284D01*
X20600000Y34970000D01*
X20000000Y34970000D01*
X19988519Y34972284D01*
X19978787Y34978787D01*
X19972284Y34988519D01*
X19970000Y35000000D01*
X19970000Y35600000D01*
X19972284Y35611481D01*
X19978787Y35621213D01*
X19988519Y35627716D01*
X20000000Y35630000D01*
X20600000Y35630000D01*
X20611481Y35627716D01*
G37*
G36*
X22411481Y35627716D02*
G01*
X22421213Y35621213D01*
X22427716Y35611481D01*
X22430000Y35600000D01*
X22430000Y35000000D01*
X22427716Y34988519D01*
X22421213Y34978787D01*
X22411481Y34972284D01*
X22400000Y34970000D01*
X21800000Y34970000D01*
X21788519Y34972284D01*
X21778787Y34978787D01*
X21772284Y34988519D01*
X21770000Y35000000D01*
X21770000Y35600000D01*
X21772284Y35611481D01*
X21778787Y35621213D01*
X21788519Y35627716D01*
X21800000Y35630000D01*
X22400000Y35630000D01*
X22411481Y35627716D01*
G37*
G36*
X8102822Y36297156D02*
G01*
X8222644Y36227977D01*
X8320477Y36130144D01*
X8389656Y36010322D01*
X8425466Y35876679D01*
X8425466Y35738321D01*
X8389656Y35604678D01*
X8320477Y35484856D01*
X8222644Y35387023D01*
X8102822Y35317844D01*
X7969179Y35282034D01*
X7830821Y35282034D01*
X7697178Y35317844D01*
X7577356Y35387023D01*
X7479523Y35484856D01*
X7410344Y35604678D01*
X7374534Y35738321D01*
X7374534Y35876679D01*
X7410344Y36010322D01*
X7479523Y36130144D01*
X7577356Y36227977D01*
X7697178Y36297156D01*
X7830821Y36332966D01*
X7969179Y36332966D01*
X8102822Y36297156D01*
G37*
G36*
X32340731Y36429358D02*
G01*
X32397280Y36422797D01*
X32416601Y36414267D01*
X32439868Y36409638D01*
X32464775Y36392996D01*
X32488280Y36382617D01*
X32504334Y36366563D01*
X32526651Y36351651D01*
X32541562Y36329335D01*
X32557616Y36313281D01*
X32567993Y36289778D01*
X32584638Y36264868D01*
X32589266Y36241600D01*
X32597795Y36222284D01*
X32604352Y36165755D01*
X32605000Y36162500D01*
X32605000Y35562500D01*
X32604354Y35559257D01*
X32597796Y35502720D01*
X32589266Y35483404D01*
X32584638Y35460132D01*
X32567992Y35435220D01*
X32557616Y35411720D01*
X32541564Y35395669D01*
X32526651Y35373349D01*
X32504331Y35358436D01*
X32488280Y35342384D01*
X32464779Y35332008D01*
X32439868Y35315362D01*
X32416597Y35310734D01*
X32397283Y35302205D01*
X32340755Y35295648D01*
X32337500Y35295000D01*
X31862500Y35295000D01*
X31859258Y35295645D01*
X31802719Y35302204D01*
X31783401Y35310734D01*
X31760132Y35315362D01*
X31735221Y35332007D01*
X31711719Y35342384D01*
X31695665Y35358438D01*
X31673349Y35373349D01*
X31658437Y35395666D01*
X31642383Y35411720D01*
X31632004Y35435225D01*
X31615362Y35460132D01*
X31610734Y35483398D01*
X31602204Y35502717D01*
X31595645Y35559257D01*
X31595000Y35562500D01*
X31595000Y36162500D01*
X31595642Y36165730D01*
X31602203Y36222281D01*
X31610734Y36241603D01*
X31615362Y36264868D01*
X31632003Y36289774D01*
X31642383Y36313281D01*
X31658439Y36329338D01*
X31673349Y36351651D01*
X31695662Y36366561D01*
X31711719Y36382617D01*
X31735226Y36392997D01*
X31760132Y36409638D01*
X31783396Y36414266D01*
X31802716Y36422796D01*
X31859257Y36429356D01*
X31862500Y36430000D01*
X32337500Y36430000D01*
X32340731Y36429358D01*
G37*
G36*
X30114106Y36622563D02*
G01*
X30118454Y36620643D01*
X30121499Y36620242D01*
X30159612Y36602470D01*
X30208238Y36580999D01*
X30280999Y36508238D01*
X30302479Y36459591D01*
X30320241Y36421500D01*
X30320641Y36418458D01*
X30322563Y36414106D01*
X30330000Y36350000D01*
X30330000Y35650000D01*
X30322563Y35585894D01*
X30320641Y35581542D01*
X30320241Y35578501D01*
X30302487Y35540429D01*
X30280999Y35491762D01*
X30208238Y35419001D01*
X30159571Y35397513D01*
X30121499Y35379759D01*
X30118458Y35379359D01*
X30114106Y35377437D01*
X30050000Y35370000D01*
X29150000Y35370000D01*
X29085894Y35377437D01*
X29081542Y35379359D01*
X29078500Y35379759D01*
X29040409Y35397521D01*
X28991762Y35419001D01*
X28919001Y35491762D01*
X28897530Y35540388D01*
X28879758Y35578501D01*
X28879357Y35581546D01*
X28877437Y35585894D01*
X28870000Y35650000D01*
X28870000Y36350000D01*
X28877437Y36414106D01*
X28879357Y36418455D01*
X28879758Y36421500D01*
X28897538Y36459631D01*
X28919001Y36508238D01*
X28991762Y36580999D01*
X29040369Y36602462D01*
X29078500Y36620242D01*
X29081545Y36620643D01*
X29085894Y36622563D01*
X29150000Y36630000D01*
X30050000Y36630000D01*
X30114106Y36622563D01*
G37*
G36*
X35114106Y36630063D02*
G01*
X35118454Y36628143D01*
X35121499Y36627742D01*
X35159612Y36609970D01*
X35208238Y36588499D01*
X35280999Y36515738D01*
X35302479Y36467091D01*
X35320241Y36429000D01*
X35320641Y36425958D01*
X35322563Y36421606D01*
X35330000Y36357500D01*
X35330000Y35657500D01*
X35322563Y35593394D01*
X35320641Y35589042D01*
X35320241Y35586001D01*
X35302487Y35547929D01*
X35280999Y35499262D01*
X35208238Y35426501D01*
X35159571Y35405013D01*
X35121499Y35387259D01*
X35118458Y35386859D01*
X35114106Y35384937D01*
X35050000Y35377500D01*
X34150000Y35377500D01*
X34085894Y35384937D01*
X34081542Y35386859D01*
X34078500Y35387259D01*
X34040409Y35405021D01*
X33991762Y35426501D01*
X33919001Y35499262D01*
X33897530Y35547888D01*
X33879758Y35586001D01*
X33879357Y35589046D01*
X33877437Y35593394D01*
X33870000Y35657500D01*
X33870000Y36357500D01*
X33877437Y36421606D01*
X33879357Y36425955D01*
X33879758Y36429000D01*
X33897538Y36467131D01*
X33919001Y36515738D01*
X33991762Y36588499D01*
X34040369Y36609962D01*
X34078500Y36627742D01*
X34081545Y36628143D01*
X34085894Y36630063D01*
X34150000Y36637500D01*
X35050000Y36637500D01*
X35114106Y36630063D01*
G37*
G36*
X10664106Y36680063D02*
G01*
X10668454Y36678143D01*
X10671499Y36677742D01*
X10709612Y36659970D01*
X10758238Y36638499D01*
X10830999Y36565738D01*
X10852479Y36517091D01*
X10870241Y36479000D01*
X10870641Y36475958D01*
X10872563Y36471606D01*
X10880000Y36407500D01*
X10880000Y35707500D01*
X10872563Y35643394D01*
X10870641Y35639042D01*
X10870241Y35636001D01*
X10852487Y35597929D01*
X10830999Y35549262D01*
X10758238Y35476501D01*
X10709571Y35455013D01*
X10671499Y35437259D01*
X10668458Y35436859D01*
X10664106Y35434937D01*
X10600000Y35427500D01*
X9700000Y35427500D01*
X9635894Y35434937D01*
X9631542Y35436859D01*
X9628500Y35437259D01*
X9590409Y35455021D01*
X9541762Y35476501D01*
X9469001Y35549262D01*
X9447530Y35597888D01*
X9429758Y35636001D01*
X9429357Y35639046D01*
X9427437Y35643394D01*
X9420000Y35707500D01*
X9420000Y36407500D01*
X9427437Y36471606D01*
X9429357Y36475955D01*
X9429758Y36479000D01*
X9447538Y36517131D01*
X9469001Y36565738D01*
X9541762Y36638499D01*
X9590369Y36659962D01*
X9628500Y36677742D01*
X9631545Y36678143D01*
X9635894Y36680063D01*
X9700000Y36687500D01*
X10600000Y36687500D01*
X10664106Y36680063D01*
G37*
G36*
X15664106Y36680063D02*
G01*
X15668454Y36678143D01*
X15671499Y36677742D01*
X15709612Y36659970D01*
X15758238Y36638499D01*
X15830999Y36565738D01*
X15852479Y36517091D01*
X15870241Y36479000D01*
X15870641Y36475958D01*
X15872563Y36471606D01*
X15880000Y36407500D01*
X15880000Y35707500D01*
X15872563Y35643394D01*
X15870641Y35639042D01*
X15870241Y35636001D01*
X15852487Y35597929D01*
X15830999Y35549262D01*
X15758238Y35476501D01*
X15709571Y35455013D01*
X15671499Y35437259D01*
X15668458Y35436859D01*
X15664106Y35434937D01*
X15600000Y35427500D01*
X14700000Y35427500D01*
X14635894Y35434937D01*
X14631542Y35436859D01*
X14628500Y35437259D01*
X14590409Y35455021D01*
X14541762Y35476501D01*
X14469001Y35549262D01*
X14447530Y35597888D01*
X14429758Y35636001D01*
X14429357Y35639046D01*
X14427437Y35643394D01*
X14420000Y35707500D01*
X14420000Y36407500D01*
X14427437Y36471606D01*
X14429357Y36475955D01*
X14429758Y36479000D01*
X14447538Y36517131D01*
X14469001Y36565738D01*
X14541762Y36638499D01*
X14590369Y36659962D01*
X14628500Y36677742D01*
X14631545Y36678143D01*
X14635894Y36680063D01*
X14700000Y36687500D01*
X15600000Y36687500D01*
X15664106Y36680063D01*
G37*
G36*
X12890731Y36599358D02*
G01*
X12947280Y36592797D01*
X12966601Y36584267D01*
X12989868Y36579638D01*
X13014775Y36562996D01*
X13038280Y36552617D01*
X13054334Y36536563D01*
X13076651Y36521651D01*
X13091562Y36499335D01*
X13107616Y36483281D01*
X13117993Y36459778D01*
X13134638Y36434868D01*
X13139266Y36411600D01*
X13147795Y36392284D01*
X13154352Y36335755D01*
X13155000Y36332500D01*
X13155000Y35732500D01*
X13154354Y35729257D01*
X13147796Y35672720D01*
X13139266Y35653404D01*
X13134638Y35630132D01*
X13117992Y35605220D01*
X13107616Y35581720D01*
X13091564Y35565669D01*
X13076651Y35543349D01*
X13054331Y35528436D01*
X13038280Y35512384D01*
X13014779Y35502008D01*
X12989868Y35485362D01*
X12966597Y35480734D01*
X12947283Y35472205D01*
X12890755Y35465648D01*
X12887500Y35465000D01*
X12412500Y35465000D01*
X12409258Y35465645D01*
X12352719Y35472204D01*
X12333401Y35480734D01*
X12310132Y35485362D01*
X12285221Y35502007D01*
X12261719Y35512384D01*
X12245665Y35528438D01*
X12223349Y35543349D01*
X12208437Y35565666D01*
X12192383Y35581720D01*
X12182004Y35605225D01*
X12165362Y35630132D01*
X12160734Y35653398D01*
X12152204Y35672717D01*
X12145645Y35729257D01*
X12145000Y35732500D01*
X12145000Y36332500D01*
X12145642Y36335730D01*
X12152203Y36392281D01*
X12160734Y36411603D01*
X12165362Y36434868D01*
X12182003Y36459774D01*
X12192383Y36483281D01*
X12208439Y36499338D01*
X12223349Y36521651D01*
X12245662Y36536561D01*
X12261719Y36552617D01*
X12285226Y36562997D01*
X12310132Y36579638D01*
X12333396Y36584266D01*
X12352716Y36592796D01*
X12409257Y36599356D01*
X12412500Y36600000D01*
X12887500Y36600000D01*
X12890731Y36599358D01*
G37*
G36*
X25002822Y36489656D02*
G01*
X25122644Y36420477D01*
X25220477Y36322644D01*
X25289656Y36202822D01*
X25325466Y36069179D01*
X25325466Y35930821D01*
X25289656Y35797178D01*
X25220477Y35677356D01*
X25122644Y35579523D01*
X25002822Y35510344D01*
X24869179Y35474534D01*
X24730821Y35474534D01*
X24597178Y35510344D01*
X24477356Y35579523D01*
X24379523Y35677356D01*
X24310344Y35797178D01*
X24274534Y35930821D01*
X24274534Y36069179D01*
X24310344Y36202822D01*
X24379523Y36322644D01*
X24477356Y36420477D01*
X24597178Y36489656D01*
X24730821Y36525466D01*
X24869179Y36525466D01*
X25002822Y36489656D01*
G37*
G36*
X27552822Y36489656D02*
G01*
X27672644Y36420477D01*
X27770477Y36322644D01*
X27839656Y36202822D01*
X27875466Y36069179D01*
X27875466Y35930821D01*
X27839656Y35797178D01*
X27770477Y35677356D01*
X27672644Y35579523D01*
X27552822Y35510344D01*
X27419179Y35474534D01*
X27280821Y35474534D01*
X27147178Y35510344D01*
X27027356Y35579523D01*
X26929523Y35677356D01*
X26860344Y35797178D01*
X26824534Y35930821D01*
X26824534Y36069179D01*
X26860344Y36202822D01*
X26929523Y36322644D01*
X27027356Y36420477D01*
X27147178Y36489656D01*
X27280821Y36525466D01*
X27419179Y36525466D01*
X27552822Y36489656D01*
G37*
G36*
X30398993Y39585649D02*
G01*
X30585539Y39508379D01*
X30753425Y39396201D01*
X30896201Y39253425D01*
X31008379Y39085539D01*
X31085649Y38898993D01*
X31125040Y38700958D01*
X31125040Y38499042D01*
X31085649Y38301007D01*
X31008379Y38114461D01*
X30896201Y37946575D01*
X30753425Y37803799D01*
X30585539Y37691621D01*
X30398993Y37614351D01*
X30200958Y37574960D01*
X29999042Y37574960D01*
X29801007Y37614351D01*
X29614461Y37691621D01*
X29446575Y37803799D01*
X29303799Y37946575D01*
X29191621Y38114461D01*
X29114351Y38301007D01*
X29074960Y38499042D01*
X29074960Y38700958D01*
X29114351Y38898993D01*
X29191621Y39085539D01*
X29303799Y39253425D01*
X29446575Y39396201D01*
X29614461Y39508379D01*
X29801007Y39585649D01*
X29999042Y39625040D01*
X30200958Y39625040D01*
X30398993Y39585649D01*
G37*
G36*
X34898993Y39585649D02*
G01*
X35085539Y39508379D01*
X35253425Y39396201D01*
X35396201Y39253425D01*
X35508379Y39085539D01*
X35585649Y38898993D01*
X35625040Y38700958D01*
X35625040Y38499042D01*
X35585649Y38301007D01*
X35508379Y38114461D01*
X35396201Y37946575D01*
X35253425Y37803799D01*
X35085539Y37691621D01*
X34898993Y37614351D01*
X34700958Y37574960D01*
X34499042Y37574960D01*
X34301007Y37614351D01*
X34114461Y37691621D01*
X33946575Y37803799D01*
X33803799Y37946575D01*
X33691621Y38114461D01*
X33614351Y38301007D01*
X33574960Y38499042D01*
X33574960Y38700958D01*
X33614351Y38898993D01*
X33691621Y39085539D01*
X33803799Y39253425D01*
X33946575Y39396201D01*
X34114461Y39508379D01*
X34301007Y39585649D01*
X34499042Y39625040D01*
X34700958Y39625040D01*
X34898993Y39585649D01*
G37*
G36*
X10448993Y39635649D02*
G01*
X10635539Y39558379D01*
X10803425Y39446201D01*
X10946201Y39303425D01*
X11058379Y39135539D01*
X11135649Y38948993D01*
X11175040Y38750958D01*
X11175040Y38549042D01*
X11135649Y38351007D01*
X11058379Y38164461D01*
X10946201Y37996575D01*
X10803425Y37853799D01*
X10635539Y37741621D01*
X10448993Y37664351D01*
X10250958Y37624960D01*
X10049042Y37624960D01*
X9851007Y37664351D01*
X9664461Y37741621D01*
X9496575Y37853799D01*
X9353799Y37996575D01*
X9241621Y38164461D01*
X9164351Y38351007D01*
X9124960Y38549042D01*
X9124960Y38750958D01*
X9164351Y38948993D01*
X9241621Y39135539D01*
X9353799Y39303425D01*
X9496575Y39446201D01*
X9664461Y39558379D01*
X9851007Y39635649D01*
X10049042Y39675040D01*
X10250958Y39675040D01*
X10448993Y39635649D01*
G37*
G36*
X14948993Y39635649D02*
G01*
X15135539Y39558379D01*
X15303425Y39446201D01*
X15446201Y39303425D01*
X15558379Y39135539D01*
X15635649Y38948993D01*
X15675040Y38750958D01*
X15675040Y38549042D01*
X15635649Y38351007D01*
X15558379Y38164461D01*
X15446201Y37996575D01*
X15303425Y37853799D01*
X15135539Y37741621D01*
X14948993Y37664351D01*
X14750958Y37624960D01*
X14549042Y37624960D01*
X14351007Y37664351D01*
X14164461Y37741621D01*
X13996575Y37853799D01*
X13853799Y37996575D01*
X13741621Y38164461D01*
X13664351Y38351007D01*
X13624960Y38549042D01*
X13624960Y38750958D01*
X13664351Y38948993D01*
X13741621Y39135539D01*
X13853799Y39303425D01*
X13996575Y39446201D01*
X14164461Y39558379D01*
X14351007Y39635649D01*
X14549042Y39675040D01*
X14750958Y39675040D01*
X14948993Y39635649D01*
G37*
G36*
X20628231Y39304358D02*
G01*
X20684780Y39297797D01*
X20704101Y39289267D01*
X20727368Y39284638D01*
X20752275Y39267996D01*
X20775780Y39257617D01*
X20791834Y39241563D01*
X20814151Y39226651D01*
X20829062Y39204335D01*
X20845116Y39188281D01*
X20855493Y39164778D01*
X20872138Y39139868D01*
X20876766Y39116600D01*
X20885295Y39097284D01*
X20891852Y39040755D01*
X20892500Y39037500D01*
X20892500Y38562500D01*
X20891854Y38559257D01*
X20885296Y38502720D01*
X20876766Y38483404D01*
X20872138Y38460132D01*
X20855492Y38435220D01*
X20845116Y38411720D01*
X20829064Y38395669D01*
X20814151Y38373349D01*
X20791831Y38358436D01*
X20775780Y38342384D01*
X20752279Y38332008D01*
X20727368Y38315362D01*
X20704097Y38310734D01*
X20684783Y38302205D01*
X20628255Y38295648D01*
X20625000Y38295000D01*
X20025000Y38295000D01*
X20021758Y38295645D01*
X19965219Y38302204D01*
X19945901Y38310734D01*
X19922632Y38315362D01*
X19897721Y38332007D01*
X19874219Y38342384D01*
X19858165Y38358438D01*
X19835849Y38373349D01*
X19820937Y38395666D01*
X19804883Y38411720D01*
X19794504Y38435225D01*
X19777862Y38460132D01*
X19773234Y38483398D01*
X19764704Y38502717D01*
X19758145Y38559257D01*
X19757500Y38562500D01*
X19757500Y39037500D01*
X19758142Y39040730D01*
X19764703Y39097281D01*
X19773234Y39116603D01*
X19777862Y39139868D01*
X19794503Y39164774D01*
X19804883Y39188281D01*
X19820939Y39204338D01*
X19835849Y39226651D01*
X19858162Y39241561D01*
X19874219Y39257617D01*
X19897726Y39267997D01*
X19922632Y39284638D01*
X19945896Y39289266D01*
X19965216Y39297796D01*
X20021757Y39304356D01*
X20025000Y39305000D01*
X20625000Y39305000D01*
X20628231Y39304358D01*
G37*
G36*
X22353231Y39304358D02*
G01*
X22409780Y39297797D01*
X22429101Y39289267D01*
X22452368Y39284638D01*
X22477275Y39267996D01*
X22500780Y39257617D01*
X22516834Y39241563D01*
X22539151Y39226651D01*
X22554062Y39204335D01*
X22570116Y39188281D01*
X22580493Y39164778D01*
X22597138Y39139868D01*
X22601766Y39116600D01*
X22610295Y39097284D01*
X22616852Y39040755D01*
X22617500Y39037500D01*
X22617500Y38562500D01*
X22616854Y38559257D01*
X22610296Y38502720D01*
X22601766Y38483404D01*
X22597138Y38460132D01*
X22580492Y38435220D01*
X22570116Y38411720D01*
X22554064Y38395669D01*
X22539151Y38373349D01*
X22516831Y38358436D01*
X22500780Y38342384D01*
X22477279Y38332008D01*
X22452368Y38315362D01*
X22429097Y38310734D01*
X22409783Y38302205D01*
X22353255Y38295648D01*
X22350000Y38295000D01*
X21750000Y38295000D01*
X21746758Y38295645D01*
X21690219Y38302204D01*
X21670901Y38310734D01*
X21647632Y38315362D01*
X21622721Y38332007D01*
X21599219Y38342384D01*
X21583165Y38358438D01*
X21560849Y38373349D01*
X21545937Y38395666D01*
X21529883Y38411720D01*
X21519504Y38435225D01*
X21502862Y38460132D01*
X21498234Y38483398D01*
X21489704Y38502717D01*
X21483145Y38559257D01*
X21482500Y38562500D01*
X21482500Y39037500D01*
X21483142Y39040730D01*
X21489703Y39097281D01*
X21498234Y39116603D01*
X21502862Y39139868D01*
X21519503Y39164774D01*
X21529883Y39188281D01*
X21545939Y39204338D01*
X21560849Y39226651D01*
X21583162Y39241561D01*
X21599219Y39257617D01*
X21622726Y39267997D01*
X21647632Y39284638D01*
X21670896Y39289266D01*
X21690216Y39297796D01*
X21746757Y39304356D01*
X21750000Y39305000D01*
X22350000Y39305000D01*
X22353231Y39304358D01*
G37*
G36*
X4170085Y49224919D02*
G01*
X4181108Y49224919D01*
X4257639Y49216296D01*
X4473934Y49194993D01*
X4509513Y49187916D01*
X4541045Y49184363D01*
X4633752Y49163204D01*
X4784806Y49133157D01*
X4843794Y49115263D01*
X4894179Y49103763D01*
X4975447Y49075326D01*
X5088142Y49041140D01*
X5169763Y49007332D01*
X5236067Y48984131D01*
X5299348Y48953657D01*
X5380982Y48919843D01*
X5484857Y48864321D01*
X5562412Y48826972D01*
X5606169Y48799478D01*
X5660526Y48770423D01*
X5788554Y48684877D01*
X5869108Y48634262D01*
X5893926Y48614471D01*
X5924077Y48594324D01*
X6092073Y48456453D01*
X6152299Y48408424D01*
X6160092Y48400631D01*
X6169099Y48393239D01*
X6393238Y48169100D01*
X6400629Y48160094D01*
X6408424Y48152299D01*
X6456458Y48092067D01*
X6594323Y47924078D01*
X6614468Y47893929D01*
X6634262Y47869108D01*
X6684882Y47788547D01*
X6770422Y47660527D01*
X6799473Y47606175D01*
X6826972Y47562412D01*
X6864324Y47484849D01*
X6919842Y47380983D01*
X6953652Y47299357D01*
X6984131Y47236067D01*
X7007334Y47169755D01*
X7041139Y47088143D01*
X7075320Y46975463D01*
X7103763Y46894179D01*
X7115265Y46843785D01*
X7133156Y46784807D01*
X7163197Y46633780D01*
X7184363Y46541045D01*
X7187916Y46509505D01*
X7194992Y46473935D01*
X7216293Y46257660D01*
X7224919Y46181108D01*
X7224919Y46170085D01*
X7226061Y46158490D01*
X7226061Y45841511D01*
X7224919Y45829917D01*
X7224919Y45818892D01*
X7216292Y45742334D01*
X7194992Y45526066D01*
X7187917Y45490498D01*
X7184363Y45458955D01*
X7163195Y45366214D01*
X7133156Y45215194D01*
X7115265Y45156220D01*
X7103763Y45105821D01*
X7075318Y45024532D01*
X7041139Y44911858D01*
X7007337Y44830253D01*
X6984131Y44763933D01*
X6953649Y44700637D01*
X6919842Y44619018D01*
X6864329Y44515162D01*
X6826972Y44437588D01*
X6799470Y44393820D01*
X6770422Y44339474D01*
X6684892Y44211471D01*
X6634262Y44130892D01*
X6614464Y44106067D01*
X6594323Y44075923D01*
X6456486Y43907970D01*
X6408424Y43847701D01*
X6400624Y43839902D01*
X6393238Y43830901D01*
X6169099Y43606762D01*
X6160098Y43599376D01*
X6152299Y43591576D01*
X6092030Y43543514D01*
X5924077Y43405677D01*
X5893933Y43385536D01*
X5869108Y43365738D01*
X5788529Y43315108D01*
X5660526Y43229578D01*
X5606180Y43200530D01*
X5562412Y43173028D01*
X5484838Y43135671D01*
X5380982Y43080158D01*
X5299363Y43046351D01*
X5236067Y43015869D01*
X5169747Y42992663D01*
X5088142Y42958861D01*
X4975468Y42924682D01*
X4894179Y42896237D01*
X4843780Y42884735D01*
X4784806Y42866844D01*
X4633786Y42836805D01*
X4541045Y42815637D01*
X4509502Y42812083D01*
X4473934Y42805008D01*
X4257661Y42783707D01*
X4181108Y42775081D01*
X4170085Y42775081D01*
X4158490Y42773939D01*
X3841510Y42773939D01*
X3829915Y42775081D01*
X3818892Y42775081D01*
X3742340Y42783707D01*
X3526065Y42805008D01*
X3490495Y42812084D01*
X3458955Y42815637D01*
X3366220Y42836803D01*
X3215193Y42866844D01*
X3156215Y42884735D01*
X3105821Y42896237D01*
X3024537Y42924680D01*
X2911857Y42958861D01*
X2830245Y42992666D01*
X2763933Y43015869D01*
X2700643Y43046348D01*
X2619017Y43080158D01*
X2515151Y43135676D01*
X2437588Y43173028D01*
X2393825Y43200527D01*
X2339473Y43229578D01*
X2211453Y43315118D01*
X2130892Y43365738D01*
X2106071Y43385532D01*
X2075922Y43405677D01*
X1907933Y43543542D01*
X1847701Y43591576D01*
X1839906Y43599371D01*
X1830900Y43606762D01*
X1606761Y43830901D01*
X1599369Y43839908D01*
X1591576Y43847701D01*
X1543547Y43907927D01*
X1405676Y44075923D01*
X1385529Y44106074D01*
X1365738Y44130892D01*
X1315123Y44211446D01*
X1229577Y44339474D01*
X1200522Y44393831D01*
X1173028Y44437588D01*
X1135679Y44515143D01*
X1080157Y44619018D01*
X1046343Y44700652D01*
X1015869Y44763933D01*
X992668Y44830237D01*
X958860Y44911858D01*
X924674Y45024553D01*
X896237Y45105821D01*
X884737Y45156206D01*
X866843Y45215194D01*
X836796Y45366248D01*
X815637Y45458955D01*
X812084Y45490487D01*
X805007Y45526066D01*
X783704Y45742356D01*
X775081Y45818892D01*
X775081Y45829916D01*
X773939Y45841511D01*
X773939Y46158490D01*
X775081Y46170086D01*
X775081Y46181108D01*
X783703Y46257638D01*
X805007Y46473935D01*
X812084Y46509516D01*
X815637Y46541045D01*
X836795Y46633746D01*
X866843Y46784807D01*
X884737Y46843799D01*
X896237Y46894179D01*
X924671Y46975441D01*
X958860Y47088143D01*
X992670Y47169770D01*
X1015869Y47236067D01*
X1046340Y47299343D01*
X1080157Y47380983D01*
X1135684Y47484868D01*
X1173028Y47562412D01*
X1200519Y47606165D01*
X1229577Y47660527D01*
X1315133Y47788572D01*
X1365738Y47869108D01*
X1385525Y47893921D01*
X1405676Y47924078D01*
X1543576Y48092110D01*
X1591576Y48152299D01*
X1599365Y48160089D01*
X1606761Y48169100D01*
X1830900Y48393239D01*
X1839911Y48400635D01*
X1847701Y48408424D01*
X1907890Y48456424D01*
X2075922Y48594324D01*
X2106079Y48614475D01*
X2130892Y48634262D01*
X2211428Y48684867D01*
X2339473Y48770423D01*
X2393835Y48799481D01*
X2437588Y48826972D01*
X2515132Y48864316D01*
X2619017Y48919843D01*
X2700657Y48953660D01*
X2763933Y48984131D01*
X2830230Y49007330D01*
X2911857Y49041140D01*
X3024559Y49075329D01*
X3105821Y49103763D01*
X3156201Y49115263D01*
X3215193Y49133157D01*
X3366254Y49163205D01*
X3458955Y49184363D01*
X3490484Y49187916D01*
X3526065Y49194993D01*
X3742362Y49216297D01*
X3818892Y49224919D01*
X3829915Y49224919D01*
X3841510Y49226061D01*
X4158490Y49226061D01*
X4170085Y49224919D01*
G37*
G36*
X41170085Y49224919D02*
G01*
X41181108Y49224919D01*
X41257639Y49216296D01*
X41473934Y49194993D01*
X41509513Y49187916D01*
X41541045Y49184363D01*
X41633752Y49163204D01*
X41784806Y49133157D01*
X41843794Y49115263D01*
X41894179Y49103763D01*
X41975447Y49075326D01*
X42088142Y49041140D01*
X42169763Y49007332D01*
X42236067Y48984131D01*
X42299348Y48953657D01*
X42380982Y48919843D01*
X42484857Y48864321D01*
X42562412Y48826972D01*
X42606169Y48799478D01*
X42660526Y48770423D01*
X42788554Y48684877D01*
X42869108Y48634262D01*
X42893926Y48614471D01*
X42924077Y48594324D01*
X43092073Y48456453D01*
X43152299Y48408424D01*
X43160092Y48400631D01*
X43169099Y48393239D01*
X43393238Y48169100D01*
X43400629Y48160094D01*
X43408424Y48152299D01*
X43456458Y48092067D01*
X43594323Y47924078D01*
X43614468Y47893929D01*
X43634262Y47869108D01*
X43684882Y47788547D01*
X43770422Y47660527D01*
X43799473Y47606175D01*
X43826972Y47562412D01*
X43864324Y47484849D01*
X43919842Y47380983D01*
X43953652Y47299357D01*
X43984131Y47236067D01*
X44007334Y47169755D01*
X44041139Y47088143D01*
X44075320Y46975463D01*
X44103763Y46894179D01*
X44115265Y46843785D01*
X44133156Y46784807D01*
X44163197Y46633780D01*
X44184363Y46541045D01*
X44187916Y46509505D01*
X44194992Y46473935D01*
X44216293Y46257660D01*
X44224919Y46181108D01*
X44224919Y46170085D01*
X44226061Y46158490D01*
X44226061Y45841511D01*
X44224919Y45829917D01*
X44224919Y45818892D01*
X44216292Y45742334D01*
X44194992Y45526066D01*
X44187917Y45490498D01*
X44184363Y45458955D01*
X44163195Y45366214D01*
X44133156Y45215194D01*
X44115265Y45156220D01*
X44103763Y45105821D01*
X44075318Y45024532D01*
X44041139Y44911858D01*
X44007337Y44830253D01*
X43984131Y44763933D01*
X43953649Y44700637D01*
X43919842Y44619018D01*
X43864329Y44515162D01*
X43826972Y44437588D01*
X43799470Y44393820D01*
X43770422Y44339474D01*
X43684892Y44211471D01*
X43634262Y44130892D01*
X43614464Y44106067D01*
X43594323Y44075923D01*
X43456486Y43907970D01*
X43408424Y43847701D01*
X43400624Y43839902D01*
X43393238Y43830901D01*
X43169099Y43606762D01*
X43160098Y43599376D01*
X43152299Y43591576D01*
X43092030Y43543514D01*
X42924077Y43405677D01*
X42893933Y43385536D01*
X42869108Y43365738D01*
X42788529Y43315108D01*
X42660526Y43229578D01*
X42606180Y43200530D01*
X42562412Y43173028D01*
X42484838Y43135671D01*
X42380982Y43080158D01*
X42299363Y43046351D01*
X42236067Y43015869D01*
X42169747Y42992663D01*
X42088142Y42958861D01*
X41975468Y42924682D01*
X41894179Y42896237D01*
X41843780Y42884735D01*
X41784806Y42866844D01*
X41633786Y42836805D01*
X41541045Y42815637D01*
X41509502Y42812083D01*
X41473934Y42805008D01*
X41257661Y42783707D01*
X41181108Y42775081D01*
X41170085Y42775081D01*
X41158490Y42773939D01*
X40841510Y42773939D01*
X40829915Y42775081D01*
X40818892Y42775081D01*
X40742340Y42783707D01*
X40526065Y42805008D01*
X40490495Y42812084D01*
X40458955Y42815637D01*
X40366220Y42836803D01*
X40215193Y42866844D01*
X40156215Y42884735D01*
X40105821Y42896237D01*
X40024537Y42924680D01*
X39911857Y42958861D01*
X39830245Y42992666D01*
X39763933Y43015869D01*
X39700643Y43046348D01*
X39619017Y43080158D01*
X39515151Y43135676D01*
X39437588Y43173028D01*
X39393825Y43200527D01*
X39339473Y43229578D01*
X39211453Y43315118D01*
X39130892Y43365738D01*
X39106071Y43385532D01*
X39075922Y43405677D01*
X38907933Y43543542D01*
X38847701Y43591576D01*
X38839906Y43599371D01*
X38830900Y43606762D01*
X38606761Y43830901D01*
X38599369Y43839908D01*
X38591576Y43847701D01*
X38543547Y43907927D01*
X38405676Y44075923D01*
X38385529Y44106074D01*
X38365738Y44130892D01*
X38315123Y44211446D01*
X38229577Y44339474D01*
X38200522Y44393831D01*
X38173028Y44437588D01*
X38135679Y44515143D01*
X38080157Y44619018D01*
X38046343Y44700652D01*
X38015869Y44763933D01*
X37992668Y44830237D01*
X37958860Y44911858D01*
X37924674Y45024553D01*
X37896237Y45105821D01*
X37884737Y45156206D01*
X37866843Y45215194D01*
X37836796Y45366248D01*
X37815637Y45458955D01*
X37812084Y45490487D01*
X37805007Y45526066D01*
X37783704Y45742356D01*
X37775081Y45818892D01*
X37775081Y45829916D01*
X37773939Y45841511D01*
X37773939Y46158490D01*
X37775081Y46170086D01*
X37775081Y46181108D01*
X37783703Y46257638D01*
X37805007Y46473935D01*
X37812084Y46509516D01*
X37815637Y46541045D01*
X37836795Y46633746D01*
X37866843Y46784807D01*
X37884737Y46843799D01*
X37896237Y46894179D01*
X37924671Y46975441D01*
X37958860Y47088143D01*
X37992670Y47169770D01*
X38015869Y47236067D01*
X38046340Y47299343D01*
X38080157Y47380983D01*
X38135684Y47484868D01*
X38173028Y47562412D01*
X38200519Y47606165D01*
X38229577Y47660527D01*
X38315133Y47788572D01*
X38365738Y47869108D01*
X38385525Y47893921D01*
X38405676Y47924078D01*
X38543576Y48092110D01*
X38591576Y48152299D01*
X38599365Y48160089D01*
X38606761Y48169100D01*
X38830900Y48393239D01*
X38839911Y48400635D01*
X38847701Y48408424D01*
X38907890Y48456424D01*
X39075922Y48594324D01*
X39106079Y48614475D01*
X39130892Y48634262D01*
X39211428Y48684867D01*
X39339473Y48770423D01*
X39393835Y48799481D01*
X39437588Y48826972D01*
X39515132Y48864316D01*
X39619017Y48919843D01*
X39700657Y48953660D01*
X39763933Y48984131D01*
X39830230Y49007330D01*
X39911857Y49041140D01*
X40024559Y49075329D01*
X40105821Y49103763D01*
X40156201Y49115263D01*
X40215193Y49133157D01*
X40366254Y49163205D01*
X40458955Y49184363D01*
X40490484Y49187916D01*
X40526065Y49194993D01*
X40742362Y49216297D01*
X40818892Y49224919D01*
X40829915Y49224919D01*
X40841510Y49226061D01*
X41158490Y49226061D01*
X41170085Y49224919D01*
G37*
G36*
X30398993Y46085649D02*
G01*
X30585539Y46008379D01*
X30753425Y45896201D01*
X30896201Y45753425D01*
X31008379Y45585539D01*
X31085649Y45398993D01*
X31125040Y45200958D01*
X31125040Y44999042D01*
X31085649Y44801007D01*
X31008379Y44614461D01*
X30896201Y44446575D01*
X30753425Y44303799D01*
X30585539Y44191621D01*
X30398993Y44114351D01*
X30200958Y44074960D01*
X29999042Y44074960D01*
X29801007Y44114351D01*
X29614461Y44191621D01*
X29446575Y44303799D01*
X29303799Y44446575D01*
X29191621Y44614461D01*
X29114351Y44801007D01*
X29074960Y44999042D01*
X29074960Y45200958D01*
X29114351Y45398993D01*
X29191621Y45585539D01*
X29303799Y45753425D01*
X29446575Y45896201D01*
X29614461Y46008379D01*
X29801007Y46085649D01*
X29999042Y46125040D01*
X30200958Y46125040D01*
X30398993Y46085649D01*
G37*
G36*
X34898993Y46085649D02*
G01*
X35085539Y46008379D01*
X35253425Y45896201D01*
X35396201Y45753425D01*
X35508379Y45585539D01*
X35585649Y45398993D01*
X35625040Y45200958D01*
X35625040Y44999042D01*
X35585649Y44801007D01*
X35508379Y44614461D01*
X35396201Y44446575D01*
X35253425Y44303799D01*
X35085539Y44191621D01*
X34898993Y44114351D01*
X34700958Y44074960D01*
X34499042Y44074960D01*
X34301007Y44114351D01*
X34114461Y44191621D01*
X33946575Y44303799D01*
X33803799Y44446575D01*
X33691621Y44614461D01*
X33614351Y44801007D01*
X33574960Y44999042D01*
X33574960Y45200958D01*
X33614351Y45398993D01*
X33691621Y45585539D01*
X33803799Y45753425D01*
X33946575Y45896201D01*
X34114461Y46008379D01*
X34301007Y46085649D01*
X34499042Y46125040D01*
X34700958Y46125040D01*
X34898993Y46085649D01*
G37*
G36*
X10448993Y46135649D02*
G01*
X10635539Y46058379D01*
X10803425Y45946201D01*
X10946201Y45803425D01*
X11058379Y45635539D01*
X11135649Y45448993D01*
X11175040Y45250958D01*
X11175040Y45049042D01*
X11135649Y44851007D01*
X11058379Y44664461D01*
X10946201Y44496575D01*
X10803425Y44353799D01*
X10635539Y44241621D01*
X10448993Y44164351D01*
X10250958Y44124960D01*
X10049042Y44124960D01*
X9851007Y44164351D01*
X9664461Y44241621D01*
X9496575Y44353799D01*
X9353799Y44496575D01*
X9241621Y44664461D01*
X9164351Y44851007D01*
X9124960Y45049042D01*
X9124960Y45250958D01*
X9164351Y45448993D01*
X9241621Y45635539D01*
X9353799Y45803425D01*
X9496575Y45946201D01*
X9664461Y46058379D01*
X9851007Y46135649D01*
X10049042Y46175040D01*
X10250958Y46175040D01*
X10448993Y46135649D01*
G37*
G36*
X14948993Y46135649D02*
G01*
X15135539Y46058379D01*
X15303425Y45946201D01*
X15446201Y45803425D01*
X15558379Y45635539D01*
X15635649Y45448993D01*
X15675040Y45250958D01*
X15675040Y45049042D01*
X15635649Y44851007D01*
X15558379Y44664461D01*
X15446201Y44496575D01*
X15303425Y44353799D01*
X15135539Y44241621D01*
X14948993Y44164351D01*
X14750958Y44124960D01*
X14549042Y44124960D01*
X14351007Y44164351D01*
X14164461Y44241621D01*
X13996575Y44353799D01*
X13853799Y44496575D01*
X13741621Y44664461D01*
X13664351Y44851007D01*
X13624960Y45049042D01*
X13624960Y45250958D01*
X13664351Y45448993D01*
X13741621Y45635539D01*
X13853799Y45803425D01*
X13996575Y45946201D01*
X14164461Y46058379D01*
X14351007Y46135649D01*
X14549042Y46175040D01*
X14750958Y46175040D01*
X14948993Y46135649D01*
G37*
M02*
