%TF.GenerationSoftware,KiCad,Pcbnew,9.0.4*%
%TF.CreationDate,2026-01-25T08:23:28+01:00*%
%TF.ProjectId,VQFN_Training_Lab,5651464e-5f54-4726-9169-6e696e675f4c,1.0*%
%TF.SameCoordinates,PX7270e00PY7270e00*%
%TF.FileFunction,Paste,Top*%
%TF.FilePolarity,Positive*%
%FSLAX46Y46*%
G04 Gerber Fmt 4.6, Leading zero omitted, Abs format (unit mm)*
G04 Created by KiCad (PCBNEW 9.0.4) date 2026-01-25 08:23:28*
%MOMM*%
%LPD*%
G01*
G04 APERTURE LIST*
G04 Aperture macros list*
%AMRoundRect*
0 Rectangle with rounded corners*
0 $1 Rounding radius*
0 $2 $3 $4 $5 $6 $7 $8 $9 X,Y pos of 4 corners*
0 Add a 4 corners polygon primitive as box body*
4,1,4,$2,$3,$4,$5,$6,$7,$8,$9,$2,$3,0*
0 Add four circle primitives for the rounded corners*
1,1,$1+$1,$2,$3*
1,1,$1+$1,$4,$5*
1,1,$1+$1,$6,$7*
1,1,$1+$1,$8,$9*
0 Add four rect primitives between the rounded corners*
20,1,$1+$1,$2,$3,$4,$5,0*
20,1,$1+$1,$4,$5,$6,$7,0*
20,1,$1+$1,$6,$7,$8,$9,0*
20,1,$1+$1,$8,$9,$2,$3,0*%
G04 Aperture macros list end*
%ADD10C,0.010000*%
%ADD11RoundRect,0.237500X0.237500X-0.300000X0.237500X0.300000X-0.237500X0.300000X-0.237500X-0.300000X0*%
%ADD12RoundRect,0.237500X-0.300000X-0.237500X0.300000X-0.237500X0.300000X0.237500X-0.300000X0.237500X0*%
%ADD13RoundRect,0.033750X-0.426250X-0.101250X0.426250X-0.101250X0.426250X0.101250X-0.426250X0.101250X0*%
%ADD14RoundRect,0.250000X0.450000X-0.350000X0.450000X0.350000X-0.450000X0.350000X-0.450000X-0.350000X0*%
%ADD15RoundRect,0.250000X0.350000X0.450000X-0.350000X0.450000X-0.350000X-0.450000X0.350000X-0.450000X0*%
%ADD16R,0.600000X0.600000*%
%ADD17R,0.600000X0.400000*%
%ADD18RoundRect,0.237500X0.300000X0.237500X-0.300000X0.237500X-0.300000X-0.237500X0.300000X-0.237500X0*%
%ADD19R,0.900000X0.240000*%
%ADD20R,0.240000X0.900000*%
%ADD21R,1.400000X0.900000*%
%ADD22RoundRect,0.237500X-0.237500X0.300000X-0.237500X-0.300000X0.237500X-0.300000X0.237500X0.300000X0*%
%ADD23RoundRect,0.250000X0.325000X0.450000X-0.325000X0.450000X-0.325000X-0.450000X0.325000X-0.450000X0*%
%ADD24RoundRect,0.250000X-0.450000X0.350000X-0.450000X-0.350000X0.450000X-0.350000X0.450000X0.350000X0*%
G04 APERTURE END LIST*
D10*
%TO.C,U1*%
X23122500Y9370000D02*
X22182500Y9370000D01*
X22182500Y10790000D01*
X23122500Y10790000D01*
X23122500Y9370000D01*
G36*
X23122500Y9370000D02*
G01*
X22182500Y9370000D01*
X22182500Y10790000D01*
X23122500Y10790000D01*
X23122500Y9370000D01*
G37*
%TD*%
D11*
%TO.C,C6*%
X24800000Y24830000D03*
X24800000Y26555000D03*
%TD*%
D12*
%TO.C,C4*%
X4975000Y26700000D03*
X6700000Y26700000D03*
%TD*%
D11*
%TO.C,C1*%
X12650000Y34307500D03*
X12650000Y36032500D03*
%TD*%
%TO.C,C2*%
X32100000Y34137500D03*
X32100000Y35862500D03*
%TD*%
D13*
%TO.C,U1*%
X21262500Y11055000D03*
X21262500Y10405000D03*
X21262500Y9755000D03*
X21262500Y9105000D03*
X24042500Y9105000D03*
X24042500Y9755000D03*
X24042500Y10405000D03*
X24042500Y11055000D03*
%TD*%
D14*
%TO.C,R7*%
X14590000Y3242500D03*
X14590000Y5242500D03*
%TD*%
D15*
%TO.C,R5*%
X32300000Y10892500D03*
X30300000Y10892500D03*
%TD*%
D16*
%TO.C,IC1*%
X20300000Y35300000D03*
D17*
X20300000Y34550000D03*
D16*
X20300000Y33800000D03*
X22100000Y33800000D03*
D17*
X22100000Y34550000D03*
D16*
X22100000Y35300000D03*
%TD*%
D18*
%TO.C,C3*%
X22050000Y38800000D03*
X20325000Y38800000D03*
%TD*%
D14*
%TO.C,R8*%
X16590000Y3242500D03*
X16590000Y5242500D03*
%TD*%
D19*
%TO.C,IC3*%
X30150000Y24292500D03*
D20*
X30700000Y23242500D03*
X31200000Y23242500D03*
X31700000Y23242500D03*
X32200000Y23242500D03*
X32700000Y23242500D03*
D19*
X33250000Y24292500D03*
X33250000Y24792500D03*
D20*
X32700000Y25842500D03*
X32200000Y25842500D03*
X31700000Y25842500D03*
X31200000Y25842500D03*
X30700000Y25842500D03*
D19*
X30150000Y24792500D03*
D21*
X31700000Y24542500D03*
%TD*%
D22*
%TO.C,C7*%
X16400000Y12417500D03*
X16400000Y10692500D03*
%TD*%
D23*
%TO.C,D1*%
X32350000Y8692500D03*
X30300000Y8692500D03*
%TD*%
D24*
%TO.C,R3*%
X34600000Y36007500D03*
X34600000Y34007500D03*
%TD*%
D15*
%TO.C,R9*%
X14490000Y12492500D03*
X12490000Y12492500D03*
%TD*%
D14*
%TO.C,R1*%
X15150000Y34057500D03*
X15150000Y36057500D03*
%TD*%
D23*
%TO.C,D2*%
X14490000Y10292500D03*
X12440000Y10292500D03*
%TD*%
D24*
%TO.C,R4*%
X29600000Y36000000D03*
X29600000Y34000000D03*
%TD*%
D14*
%TO.C,R10*%
X17300000Y14600000D03*
X17300000Y16600000D03*
%TD*%
D19*
%TO.C,IC2*%
X11850000Y24292500D03*
D20*
X12400000Y23242500D03*
X12900000Y23242500D03*
X13400000Y23242500D03*
X13900000Y23242500D03*
X14400000Y23242500D03*
D19*
X14950000Y24292500D03*
X14950000Y24792500D03*
D20*
X14400000Y25842500D03*
X13900000Y25842500D03*
X13400000Y25842500D03*
X12900000Y25842500D03*
X12400000Y25842500D03*
D19*
X11850000Y24792500D03*
D21*
X13400000Y24542500D03*
%TD*%
D24*
%TO.C,R6*%
X12590000Y5242500D03*
X12590000Y3242500D03*
%TD*%
%TO.C,R2*%
X10150000Y36057500D03*
X10150000Y34057500D03*
%TD*%
D22*
%TO.C,C5*%
X28410000Y10817500D03*
X28410000Y9092500D03*
%TD*%
M02*
